Arima Madurai-Bold.ufo
<glyph name="exclam" format="1">
  <advance width="332"/>
  <unicode hex="0021"/>
  <outline>
    <contour>
      <point x="123" y="202" type="line"/>
      <point x="86" y="718" type="line"/>
      <point x="139" y="736"/>
      <point x="193" y="735"/>
      <point x="246" y="718" type="curve"/>
      <point x="216" y="202" type="line"/>
    </contour>
    <component base="period" xOffset="7"/>
  </outline>
</glyph>
<glyph name="asterisk" format="1">
  <advance width="499"/>
  <unicode hex="002A"/>
  <outline>
    <contour>
      <point x="22" y="541" type="curve"/>
      <point x="22" y="497"/>
      <point x="66" y="474"/>
      <point x="116" y="474" type="curve"/>
      <point x="216" y="474"/>
      <point x="315" y="563"/>
      <point x="315" y="653" type="curve"/>
      <point x="315" y="690"/>
      <point x="297" y="716"/>
      <point x="249" y="716" type="curve"/>
      <point x="205" y="716"/>
      <point x="183" y="693"/>
      <point x="183" y="653" type="curve"/>
      <point x="183" y="568"/>
      <point x="289" y="473"/>
      <point x="387" y="473" type="curve"/>
      <point x="437" y="473"/>
      <point x="472" y="496"/>
      <point x="472" y="542" type="curve"/>
      <point x="472" y="578"/>
      <point x="451" y="598"/>
      <point x="417" y="598" type="curve"/>
      <point x="341" y="598"/>
      <point x="264" y="489"/>
      <point x="264" y="403" type="curve"/>
      <point x="264" y="348"/>
      <point x="295" y="284"/>
      <point x="350" y="284" type="curve"/>
      <point x="383" y="284"/>
      <point x="408" y="306"/>
      <point x="408" y="338" type="curve"/>
      <point x="408" y="393"/>
      <point x="338" y="454"/>
      <point x="246" y="454" type="curve"/>
      <point x="155" y="454"/>
      <point x="75" y="396"/>
      <point x="75" y="331" type="curve"/>
      <point x="75" y="294"/>
      <point x="104" y="281"/>
      <point x="132" y="281" type="curve"/>
      <point x="196" y="281"/>
      <point x="235" y="349"/>
      <point x="235" y="414" type="curve"/>
      <point x="235" y="498"/>
      <point x="169" y="598"/>
      <point x="85" y="598" type="curve"/>
      <point x="41" y="598"/>
      <point x="22" y="570"/>
    </contour>
    <contour>
      <point x="75" y="540" type="curve"/>
      <point x="75" y="549"/>
      <point x="82" y="556"/>
      <point x="93" y="556" type="curve"/>
      <point x="139" y="556"/>
      <point x="191" y="483"/>
      <point x="191" y="414" type="curve"/>
      <point x="191" y="371"/>
      <point x="171" y="320"/>
      <point x="143" y="320" type="curve"/>
      <point x="133" y="320"/>
      <point x="127" y="326"/>
      <point x="127" y="335" type="curve"/>
      <point x="127" y="371"/>
      <point x="183" y="411"/>
      <point x="248" y="411" type="curve"/>
      <point x="312" y="411"/>
      <point x="368" y="370"/>
      <point x="368" y="339" type="curve"/>
      <point x="368" y="330"/>
      <point x="360" y="324"/>
      <point x="350" y="324" type="curve"/>
      <point x="319" y="324"/>
      <point x="308" y="375"/>
      <point x="308" y="403" type="curve"/>
      <point x="308" y="466"/>
      <point x="365" y="554"/>
      <point x="413" y="554" type="curve"/>
      <point x="425" y="554"/>
      <point x="432" y="547"/>
      <point x="432" y="538" type="curve"/>
      <point x="432" y="518"/>
      <point x="412" y="511"/>
      <point x="388" y="511" type="curve"/>
      <point x="314" y="511"/>
      <point x="236" y="586"/>
      <point x="236" y="654" type="curve"/>
      <point x="236" y="668"/>
      <point x="242" y="676"/>
      <point x="255" y="676" type="curve"/>
      <point x="267" y="676"/>
      <point x="275" y="666"/>
      <point x="275" y="650" type="curve"/>
      <point x="275" y="588"/>
      <point x="195" y="512"/>
      <point x="119" y="512" type="curve"/>
      <point x="93" y="512"/>
      <point x="75" y="522"/>
    </contour>
  </outline>
</glyph>
<glyph name="plus" format="1">
  <advance width="549"/>
  <unicode hex="002B"/>
  <outline>
    <contour>
      <point x="474" y="382" type="curve"/>
      <point x="75" y="382" type="line"/>
      <point x="66" y="358"/>
      <point x="66" y="334"/>
      <point x="75" y="310" type="curve"/>
      <point x="474" y="310" type="line"/>
      <point x="483" y="334"/>
      <point x="483" y="358"/>
    </contour>
    <contour>
      <point x="310" y="146" type="curve"/>
      <point x="310" y="546" type="line"/>
      <point x="286" y="555"/>
      <point x="262" y="555"/>
      <point x="238" y="546" type="curve"/>
      <point x="238" y="146" type="line"/>
      <point x="262" y="138"/>
      <point x="286" y="138"/>
    </contour>
  </outline>
</glyph>
<glyph name="comma" format="1">
  <advance width="317"/>
  <unicode hex="002C"/>
  <outline>
    <contour>
      <point x="155" y="-110" type="curve"/>
      <point x="214" y="-56"/>
      <point x="237" y="-6"/>
      <point x="237" y="46" type="curve"/>
      <point x="237" y="115"/>
      <point x="199" y="141"/>
      <point x="159" y="141" type="curve"/>
      <point x="113" y="141"/>
      <point x="80" y="105"/>
      <point x="80" y="63" type="curve"/>
      <point x="105" y="56"/>
      <point x="148" y="46"/>
      <point x="148" y="-7" type="curve"/>
      <point x="148" y="-33"/>
      <point x="134" y="-59"/>
      <point x="111" y="-86" type="curve"/>
      <point x="125" y="-100"/>
      <point x="138" y="-108"/>
    </contour>
  </outline>
</glyph>
<glyph name="question" format="1">
  <advance width="525"/>
  <unicode hex="003F"/>
  <outline>
    <contour>
      <point x="170" y="361" type="curve"/>
      <point x="170" y="201" type="line"/>
      <point x="270" y="201" type="line"/>
      <point x="270" y="310" type="line"/>
      <point x="361" y="314"/>
      <point x="496" y="375"/>
      <point x="496" y="532" type="curve"/>
      <point x="496" y="679"/>
      <point x="383" y="733"/>
      <point x="242" y="733" type="curve"/>
      <point x="100" y="733"/>
      <point x="13" y="675"/>
      <point x="13" y="598" type="curve"/>
      <point x="13" y="561"/>
      <point x="33" y="527"/>
      <point x="126" y="527" type="curve"/>
      <point x="127" y="599"/>
      <point x="143" y="685"/>
      <point x="232" y="685" type="curve"/>
      <point x="315" y="685"/>
      <point x="349" y="615"/>
      <point x="349" y="539" type="curve"/>
      <point x="349" y="421"/>
      <point x="269" y="365"/>
    </contour>
    <component base="period" xOffset="54"/>
  </outline>
</glyph>
<glyph name="B" format="1">
  <advance width="603"/>
  <unicode hex="0042"/>
  <outline>
    <contour>
      <point x="163" y="0" type="curve"/>
      <point x="276" y="0" type="line" smooth="yes"/>
      <point x="457" y="0"/>
      <point x="562" y="66"/>
      <point x="562" y="199" type="curve"/>
      <point x="562" y="303"/>
      <point x="495" y="364"/>
      <point x="400" y="377" type="curve"/>
      <point x="480" y="398"/>
      <point x="528" y="462"/>
      <point x="528" y="544" type="curve"/>
      <point x="528" y="665"/>
      <point x="424" y="712"/>
      <point x="251" y="712" type="curve"/>
      <point x="165" y="712"/>
      <point x="105" y="701"/>
      <point x="63" y="681" type="curve"/>
      <point x="80" y="636"/>
      <point x="83" y="583"/>
      <point x="83" y="551" type="curve"/>
      <point x="83" y="71" type="line"/>
      <point x="83" y="26"/>
      <point x="117" y="0"/>
    </contour>
    <contour>
      <point x="270" y="48" type="curve"/>
      <point x="223" y="48" type="line"/>
      <point x="223" y="664" type="line"/>
      <point x="232" y="664"/>
      <point x="242" y="664"/>
      <point x="253" y="664" type="curve"/>
      <point x="349" y="664"/>
      <point x="380" y="610"/>
      <point x="380" y="532" type="curve"/>
      <point x="380" y="451"/>
      <point x="349" y="393"/>
      <point x="269" y="395" type="curve"/>
      <point x="200" y="395" type="line"/>
      <point x="207" y="347" type="line"/>
      <point x="272" y="347" type="line" smooth="yes"/>
      <point x="351" y="347"/>
      <point x="410" y="317"/>
      <point x="410" y="196" type="curve"/>
      <point x="410" y="113"/>
      <point x="373" y="48"/>
    </contour>
    <contour>
      <point x="301" y="0" type="move" name="bottom"/>
    </contour>
    <contour>
      <point x="301" y="698" type="move" name="top"/>
    </contour>
  </outline>
</glyph>
<glyph name="E" format="1">
  <advance width="554"/>
  <unicode hex="0045"/>
  <outline>
    <contour>
      <point x="163" y="0" type="curve"/>
      <point x="481" y="0" type="line"/>
      <point x="526" y="0"/>
      <point x="524" y="103"/>
      <point x="489" y="125" type="curve"/>
      <point x="436" y="98"/>
      <point x="311" y="69"/>
      <point x="223" y="66" type="curve"/>
      <point x="222" y="632" type="line"/>
      <point x="309" y="629"/>
      <point x="395" y="608"/>
      <point x="464" y="576" type="curve"/>
      <point x="501" y="593"/>
      <point x="517" y="698"/>
      <point x="479" y="698" type="curve"/>
      <point x="190" y="698" type="line" smooth="yes"/>
      <point x="127" y="698"/>
      <point x="98" y="693"/>
      <point x="63" y="663" type="curve"/>
      <point x="80" y="618"/>
      <point x="83" y="572"/>
      <point x="83" y="533" type="curve"/>
      <point x="83" y="71" type="line" smooth="yes"/>
      <point x="83" y="26"/>
      <point x="117" y="0"/>
    </contour>
    <contour>
      <point x="197" y="398" type="line"/>
      <point x="197" y="324" type="line"/>
      <point x="434" y="324" type="line"/>
      <point x="439" y="345"/>
      <point x="441" y="373"/>
      <point x="434" y="398" type="curve"/>
    </contour>
    <contour>
      <point x="278" y="0" type="move" name="bottom"/>
    </contour>
    <contour>
      <point x="423" y="-10" type="move" name="ogonek"/>
    </contour>
    <contour>
      <point x="280" y="698" type="move" name="top"/>
    </contour>
    <contour>
      <point x="20" y="698" type="move" name="topleft"/>
    </contour>
  </outline>
</glyph>
<glyph name="H" format="1">
  <advance width="701"/>
  <unicode hex="0048"/>
  <outline>
    <contour>
      <point x="223" y="146" type="curve"/>
      <point x="223" y="641" type="line" smooth="yes"/>
      <point x="223" y="685"/>
      <point x="188" y="711"/>
      <point x="143" y="711" type="curve"/>
      <point x="104" y="711"/>
      <point x="75" y="692"/>
      <point x="63" y="681" type="curve"/>
      <point x="80" y="636"/>
      <point x="83" y="589"/>
      <point x="83" y="551" type="curve"/>
      <point x="83" y="56" type="line" smooth="yes"/>
      <point x="83" y="12"/>
      <point x="117" y="-15"/>
      <point x="163" y="-15" type="curve"/>
      <point x="202" y="-15"/>
      <point x="231" y="5"/>
      <point x="243" y="16" type="curve"/>
      <point x="225" y="60"/>
      <point x="223" y="108"/>
    </contour>
    <contour>
      <point x="618" y="146" type="curve"/>
      <point x="618" y="641" type="line" smooth="yes"/>
      <point x="618" y="685"/>
      <point x="583" y="711"/>
      <point x="538" y="711" type="curve"/>
      <point x="499" y="711"/>
      <point x="470" y="692"/>
      <point x="458" y="681" type="curve"/>
      <point x="475" y="636"/>
      <point x="478" y="589"/>
      <point x="478" y="551" type="curve"/>
      <point x="478" y="56" type="line" smooth="yes"/>
      <point x="478" y="12"/>
      <point x="512" y="-15"/>
      <point x="558" y="-15" type="curve"/>
      <point x="597" y="-15"/>
      <point x="626" y="5"/>
      <point x="638" y="16" type="curve"/>
      <point x="620" y="60"/>
      <point x="618" y="108"/>
    </contour>
    <contour>
      <point x="520" y="401" type="line"/>
      <point x="169" y="401" type="line"/>
      <point x="169" y="327" type="line"/>
      <point x="520" y="327" type="line"/>
    </contour>
    <contour>
      <point x="351" y="0" type="move" name="bottom"/>
    </contour>
    <contour>
      <point x="351" y="349" type="move" name="center"/>
    </contour>
    <contour>
      <point x="351" y="698" type="move" name="top"/>
    </contour>
    <contour>
      <point x="20" y="698" type="move" name="topleft"/>
    </contour>
  </outline>
</glyph>
<glyph name="Z" format="1">
  <advance width="597"/>
  <unicode hex="005A"/>
  <outline>
    <contour>
      <point x="44" y="26" type="curve"/>
      <point x="62" y="-7" type="line"/>
      <point x="98" y="5"/>
      <point x="116" y="6"/>
      <point x="153" y="5" type="curve"/>
      <point x="417" y="-2" type="line" smooth="yes"/>
      <point x="524" y="-4"/>
      <point x="574" y="43"/>
      <point x="574" y="109" type="curve"/>
      <point x="574" y="156"/>
      <point x="548" y="190"/>
      <point x="508" y="206" type="curve"/>
      <point x="500" y="210"/>
      <point x="493" y="214"/>
      <point x="475" y="217" type="curve"/>
      <point x="479" y="200"/>
      <point x="478" y="181"/>
      <point x="465" y="162" type="curve"/>
      <point x="454" y="144"/>
      <point x="426" y="125"/>
      <point x="381" y="122" type="curve"/>
      <point x="119" y="103" type="line"/>
      <point x="137" y="67" type="line"/>
      <point x="516" y="557" type="line" smooth="yes"/>
      <point x="545" y="593"/>
      <point x="551" y="619"/>
      <point x="551" y="664" type="curve"/>
      <point x="534" y="705" type="line"/>
      <point x="501" y="694"/>
      <point x="458" y="693"/>
      <point x="419" y="694" type="curve"/>
      <point x="216" y="701" type="line" smooth="yes"/>
      <point x="92" y="705"/>
      <point x="40" y="653"/>
      <point x="40" y="587" type="curve"/>
      <point x="40" y="554"/>
      <point x="56" y="526"/>
      <point x="79" y="511" type="curve"/>
      <point x="96" y="498"/>
      <point x="119" y="489"/>
      <point x="142" y="485" type="curve"/>
      <point x="136" y="503"/>
      <point x="138" y="519"/>
      <point x="150" y="542" type="curve"/>
      <point x="163" y="565"/>
      <point x="196" y="575"/>
      <point x="228" y="577" type="curve"/>
      <point x="465" y="596" type="line"/>
      <point x="453" y="635" type="line"/>
      <point x="78" y="135" type="line" smooth="yes"/>
      <point x="49" y="100"/>
      <point x="44" y="72"/>
    </contour>
    <contour>
      <point x="299" y="0" type="move" name="bottom"/>
    </contour>
    <contour>
      <point x="299" y="698" type="move" name="top"/>
    </contour>
  </outline>
</glyph>
<glyph name="underscore" format="1">
  <advance width="389"/>
  <unicode hex="005F"/>
  <outline>
    <contour>
      <point x="419" y="-69" type="line"/>
      <point x="-30" y="-67" type="line"/>
      <point x="-30" y="-135" type="line"/>
      <point x="419" y="-137" type="line"/>
    </contour>
  </outline>
</glyph>
<glyph name="d" format="1">
  <advance width="592"/>
  <unicode hex="0064"/>
  <outline>
    <contour>
      <point x="212" y="-14" type="curve"/>
      <point x="315" y="-14"/>
      <point x="379" y="57"/>
      <point x="397" y="209" type="curve"/>
      <point x="376" y="220" type="line"/>
      <point x="376" y="174" type="line" smooth="yes"/>
      <point x="376" y="62"/>
      <point x="409" y="-9"/>
      <point x="487" y="-9" type="curve"/>
      <point x="537" y="-9"/>
      <point x="576" y="20"/>
      <point x="576" y="61" type="curve"/>
      <point x="576" y="73"/>
      <point x="572" y="90"/>
      <point x="563" y="104" type="curve"/>
      <point x="557" y="95"/>
      <point x="544" y="93"/>
      <point x="537" y="93" type="curve"/>
      <point x="515" y="93"/>
      <point x="503" y="110"/>
      <point x="503" y="145" type="curve"/>
      <point x="504" y="662" type="line" smooth="yes"/>
      <point x="504" y="707"/>
      <point x="469" y="733"/>
      <point x="425" y="733" type="curve"/>
      <point x="386" y="733"/>
      <point x="358" y="713"/>
      <point x="346" y="703" type="curve"/>
      <point x="366" y="635"/>
      <point x="369" y="559"/>
      <point x="369" y="513" type="curve"/>
      <point x="369" y="472" type="line"/>
      <point x="350" y="510"/>
      <point x="309" y="531"/>
      <point x="248" y="531" type="curve"/>
      <point x="111" y="531"/>
      <point x="34" y="426"/>
      <point x="34" y="240" type="curve"/>
      <point x="34" y="92"/>
      <point x="85" y="-14"/>
    </contour>
    <contour>
      <point x="254" y="60" type="curve"/>
      <point x="199" y="60"/>
      <point x="181" y="120"/>
      <point x="181" y="243" type="curve"/>
      <point x="181" y="381"/>
      <point x="208" y="463"/>
      <point x="283" y="463" type="curve"/>
      <point x="355" y="463"/>
      <point x="366" y="396"/>
      <point x="366" y="324" type="curve"/>
      <point x="366" y="193"/>
      <point x="333" y="60"/>
    </contour>
    <contour>
      <point x="296" y="0" type="move" name="bottom"/>
    </contour>
    <contour>
      <point x="296" y="258" type="move" name="center"/>
    </contour>
    <contour>
      <point x="296" y="516" type="move" name="top"/>
    </contour>
    <contour>
      <point x="572" y="516" type="move" name="topright"/>
    </contour>
  </outline>
</glyph>
<glyph name="h" format="1">
  <advance width="571"/>
  <unicode hex="0068"/>
  <outline>
    <contour>
      <point x="145" y="-15" type="curve"/>
      <point x="183" y="-15"/>
      <point x="211" y="4"/>
      <point x="223" y="15" type="curve"/>
      <point x="200" y="69"/>
      <point x="200" y="105"/>
      <point x="200" y="235" type="curve"/>
      <point x="200" y="390"/>
      <point x="242" y="468"/>
      <point x="303" y="468" type="curve"/>
      <point x="361" y="468"/>
      <point x="374" y="410"/>
      <point x="374" y="309" type="curve"/>
      <point x="374" y="56" type="line" smooth="yes"/>
      <point x="374" y="12"/>
      <point x="408" y="-15"/>
      <point x="453" y="-15" type="curve"/>
      <point x="488" y="-15"/>
      <point x="513" y="0"/>
      <point x="531" y="16" type="curve"/>
      <point x="514" y="60"/>
      <point x="511" y="116"/>
      <point x="511" y="146" type="curve"/>
      <point x="511" y="331" type="line" smooth="yes"/>
      <point x="511" y="464"/>
      <point x="460" y="531"/>
      <point x="350" y="531" type="curve"/>
      <point x="244" y="531"/>
      <point x="191" y="460"/>
      <point x="176" y="340" type="curve"/>
      <point x="199" y="371" type="line"/>
      <point x="199" y="458" type="line" smooth="yes"/>
      <point x="200" y="558"/>
      <point x="203" y="637"/>
      <point x="223" y="703" type="curve"/>
      <point x="210" y="713"/>
      <point x="172" y="736"/>
      <point x="129" y="732" type="curve"/>
      <point x="92" y="729"/>
      <point x="64" y="707"/>
      <point x="65" y="662" type="curve"/>
      <point x="65" y="63" type="line" smooth="yes"/>
      <point x="65" y="15"/>
      <point x="100" y="-15"/>
    </contour>
    <contour>
      <point x="286" y="0" type="move" name="bottom"/>
    </contour>
    <contour>
      <point x="286" y="258" type="move" name="center"/>
    </contour>
    <contour>
      <point x="151" y="694" type="move" name="top"/>
    </contour>
  </outline>
</glyph>
<glyph name="o" format="1">
  <advance width="562"/>
  <unicode hex="006F"/>
  <outline>
    <contour>
      <point x="281" y="-14" type="curve"/>
      <point x="437" y="-14"/>
      <point x="528" y="87"/>
      <point x="528" y="258" type="curve"/>
      <point x="528" y="430"/>
      <point x="437" y="531"/>
      <point x="281" y="531" type="curve"/>
      <point x="125" y="531"/>
      <point x="34" y="430"/>
      <point x="34" y="258" type="curve"/>
      <point x="34" y="87"/>
      <point x="125" y="-14"/>
    </contour>
    <contour>
      <point x="281" y="32" type="curve"/>
      <point x="212" y="32"/>
      <point x="181" y="108"/>
      <point x="181" y="258" type="curve"/>
      <point x="181" y="409"/>
      <point x="212" y="485"/>
      <point x="281" y="485" type="curve"/>
      <point x="349" y="485"/>
      <point x="380" y="409"/>
      <point x="380" y="258" type="curve"/>
      <point x="380" y="108"/>
      <point x="349" y="32"/>
    </contour>
    <contour>
      <point x="281" y="0" type="move" name="bottom"/>
    </contour>
    <contour>
      <point x="281" y="258" type="move" name="center"/>
    </contour>
    <contour>
      <point x="506" y="10" type="move" name="ogonek"/>
    </contour>
    <contour>
      <point x="281" y="516" type="move" name="top"/>
    </contour>
    <contour>
      <point x="406" y="502" type="move" name="topright"/>
    </contour>
  </outline>
</glyph>
<glyph name="q" format="1">
  <advance width="550"/>
  <unicode hex="0071"/>
  <outline>
    <contour>
      <point x="416" y="-225" type="curve"/>
      <point x="467" y="-224"/>
      <point x="497" y="-196"/>
      <point x="497" y="-154" type="curve"/>
      <point x="497" y="465" type="line"/>
      <point x="452" y="502"/>
      <point x="368" y="531"/>
      <point x="276" y="531" type="curve"/>
      <point x="102" y="531"/>
      <point x="34" y="412"/>
      <point x="34" y="242" type="curve"/>
      <point x="34" y="57"/>
      <point x="106" y="-15"/>
      <point x="209" y="-15" type="curve"/>
      <point x="283" y="-15"/>
      <point x="337" y="23"/>
      <point x="359" y="86" type="curve"/>
      <point x="359" y="43" type="line" smooth="yes"/>
      <point x="359" y="-17"/>
      <point x="363" y="-117"/>
      <point x="337" y="-194" type="curve"/>
      <point x="354" y="-209"/>
      <point x="378" y="-226"/>
    </contour>
    <contour>
      <point x="247" y="57" type="curve"/>
      <point x="197" y="57"/>
      <point x="182" y="123"/>
      <point x="181" y="239" type="curve"/>
      <point x="180" y="389"/>
      <point x="201" y="476"/>
      <point x="283" y="476" type="curve"/>
      <point x="314" y="476"/>
      <point x="342" y="466"/>
      <point x="360" y="455" type="curve"/>
      <point x="360" y="267" type="line" smooth="yes"/>
      <point x="360" y="166"/>
      <point x="321" y="57"/>
    </contour>
    <contour>
      <point x="268" y="50" type="move" name="bottom"/>
    </contour>
    <contour>
      <point x="268" y="390" type="move" name="top"/>
    </contour>
  </outline>
</glyph>
<glyph name="bar" format="1">
  <advance width="361"/>
  <unicode hex="007C"/>
  <outline>
    <contour>
      <point x="116" y="730" type="line"/>
      <point x="116" y="-137" type="line"/>
      <point x="244" y="-137" type="line"/>
      <point x="244" y="730" type="line"/>
    </contour>
  </outline>
</glyph>
<glyph name="currency" format="1">
  <advance width="621"/>
  <unicode hex="00A4"/>
  <outline>
    <contour>
      <point x="309" y="118" type="curve"/>
      <point x="439" y="118"/>
      <point x="545" y="215"/>
      <point x="545" y="351" type="curve"/>
      <point x="545" y="488"/>
      <point x="441" y="583"/>
      <point x="312" y="583" type="curve"/>
      <point x="182" y="583"/>
      <point x="75" y="487"/>
      <point x="75" y="350" type="curve"/>
      <point x="75" y="214"/>
      <point x="180" y="118"/>
    </contour>
    <contour>
      <point x="311" y="191" type="curve"/>
      <point x="234" y="191"/>
      <point x="169" y="255"/>
      <point x="169" y="351" type="curve"/>
      <point x="169" y="446"/>
      <point x="233" y="510"/>
      <point x="309" y="510" type="curve"/>
      <point x="387" y="510"/>
      <point x="451" y="446"/>
      <point x="451" y="350" type="curve"/>
      <point x="451" y="255"/>
      <point x="387" y="191"/>
    </contour>
    <contour>
      <point x="127" y="498" type="curve"/>
      <point x="153" y="474" type="line"/>
      <point x="194" y="514" type="line"/>
      <point x="116" y="589" type="line" smooth="yes"/>
      <point x="105" y="600"/>
      <point x="93" y="597"/>
      <point x="79" y="583" type="curve"/>
      <point x="68" y="572"/>
      <point x="64" y="564"/>
      <point x="61" y="554" type="curve"/>
      <point x="75" y="547"/>
      <point x="97" y="525"/>
    </contour>
    <contour>
      <point x="434" y="506" type="line"/>
      <point x="475" y="467" type="line"/>
      <point x="550" y="543" type="line" smooth="yes"/>
      <point x="560" y="554"/>
      <point x="558" y="566"/>
      <point x="543" y="581" type="curve"/>
      <point x="532" y="592"/>
      <point x="525" y="595"/>
      <point x="515" y="598" type="curve"/>
      <point x="506" y="584"/>
      <point x="485" y="561"/>
      <point x="459" y="532" type="curve"/>
    </contour>
    <contour>
      <point x="427" y="184" type="line"/>
      <point x="505" y="109" type="line"/>
      <point x="516" y="98"/>
      <point x="528" y="101"/>
      <point x="542" y="116" type="curve"/>
      <point x="553" y="127"/>
      <point x="556" y="133"/>
      <point x="559" y="143" type="curve"/>
      <point x="545" y="152"/>
      <point x="521" y="173"/>
      <point x="493" y="201" type="curve"/>
      <point x="467" y="225" type="line"/>
    </contour>
    <contour>
      <point x="104" y="100" type="curve"/>
      <point x="112" y="116"/>
      <point x="133" y="138"/>
      <point x="161" y="166" type="curve"/>
      <point x="186" y="192" type="line"/>
      <point x="145" y="232" type="line"/>
      <point x="69" y="154" type="line" smooth="yes"/>
      <point x="58" y="143"/>
      <point x="61" y="132"/>
      <point x="76" y="118" type="curve"/>
      <point x="86" y="107"/>
      <point x="94" y="105"/>
    </contour>
  </outline>
</glyph>
<glyph name="registered" format="1">
  <advance width="804"/>
  <unicode hex="00AE"/>
  <outline>
    <contour>
      <point x="403" y="-12" type="curve"/>
      <point x="601" y="-12"/>
      <point x="761" y="150"/>
      <point x="761" y="351" type="curve"/>
      <point x="761" y="550"/>
      <point x="601" y="712"/>
      <point x="403" y="712" type="curve"/>
      <point x="204" y="712"/>
      <point x="44" y="551"/>
      <point x="44" y="351" type="curve"/>
      <point x="44" y="150"/>
      <point x="204" y="-12"/>
    </contour>
    <contour>
      <point x="402" y="39" type="curve"/>
      <point x="232" y="39"/>
      <point x="96" y="177"/>
      <point x="96" y="351" type="curve"/>
      <point x="96" y="523"/>
      <point x="232" y="662"/>
      <point x="402" y="662" type="curve"/>
      <point x="571" y="662"/>
      <point x="708" y="522"/>
      <point x="708" y="351" type="curve"/>
      <point x="708" y="178"/>
      <point x="571" y="39"/>
    </contour>
    <contour>
      <point x="302" y="126" type="curve"/>
      <point x="329" y="126"/>
      <point x="348" y="140"/>
      <point x="355" y="147" type="curve"/>
      <point x="344" y="174"/>
      <point x="343" y="201"/>
      <point x="343" y="225" type="curve"/>
      <point x="343" y="538" type="line"/>
      <point x="346" y="538"/>
      <point x="365" y="538"/>
      <point x="370" y="538" type="curve"/>
      <point x="439" y="536"/>
      <point x="459" y="495"/>
      <point x="459" y="452" type="curve"/>
      <point x="459" y="399"/>
      <point x="427" y="358"/>
      <point x="368" y="355" type="curve"/>
      <point x="352" y="354"/>
      <point x="339" y="355"/>
      <point x="325" y="358" type="curve"/>
      <point x="333" y="324" type="line"/>
      <point x="364" y="323" type="line" smooth="yes"/>
      <point x="398" y="323"/>
      <point x="416" y="308"/>
      <point x="434" y="267" type="curve"/>
      <point x="451" y="227" type="line" smooth="yes"/>
      <point x="473" y="176"/>
      <point x="492" y="127"/>
      <point x="544" y="127" type="curve"/>
      <point x="578" y="127"/>
      <point x="602" y="149"/>
      <point x="602" y="178" type="curve"/>
      <point x="602" y="185"/>
      <point x="600" y="193"/>
      <point x="597" y="202" type="curve"/>
      <point x="590" y="199"/>
      <point x="587" y="198"/>
      <point x="581" y="199" type="curve"/>
      <point x="567" y="200"/>
      <point x="559" y="213"/>
      <point x="542" y="244" type="curve"/>
      <point x="515" y="295" type="line" smooth="yes"/>
      <point x="497" y="330"/>
      <point x="471" y="350"/>
      <point x="404" y="348" type="curve"/>
      <point x="392" y="336" type="line"/>
      <point x="489" y="333"/>
      <point x="557" y="381"/>
      <point x="557" y="458" type="curve"/>
      <point x="557" y="539"/>
      <point x="490" y="569"/>
      <point x="363" y="569" type="curve"/>
      <point x="304" y="569"/>
      <point x="266" y="562"/>
      <point x="238" y="549" type="curve"/>
      <point x="250" y="519"/>
      <point x="251" y="487"/>
      <point x="251" y="466" type="curve"/>
      <point x="251" y="173" type="line"/>
      <point x="251" y="144"/>
      <point x="274" y="126"/>
    </contour>
  </outline>
</glyph>
<glyph name="micro" format="1">
  <advance width="590"/>
  <unicode hex="00B5"/>
  <outline>
    <contour>
      <point x="229" y="-15" type="curve"/>
      <point x="339" y="-15"/>
      <point x="393" y="56"/>
      <point x="409" y="176" type="curve"/>
      <point x="392" y="146" type="line"/>
      <point x="392" y="115" type="line" smooth="yes"/>
      <point x="392" y="28"/>
      <point x="432" y="-14"/>
      <point x="495" y="-14" type="curve"/>
      <point x="548" y="-14"/>
      <point x="577" y="15"/>
      <point x="577" y="57" type="curve"/>
      <point x="577" y="72"/>
      <point x="573" y="85"/>
      <point x="564" y="99" type="curve"/>
      <point x="557" y="90"/>
      <point x="545" y="88"/>
      <point x="538" y="88" type="curve"/>
      <point x="521" y="88"/>
      <point x="512" y="102"/>
      <point x="512" y="140" type="curve"/>
      <point x="511" y="453" type="line" smooth="yes"/>
      <point x="511" y="502"/>
      <point x="476" y="531"/>
      <point x="432" y="531" type="curve"/>
      <point x="393" y="531"/>
      <point x="365" y="512"/>
      <point x="353" y="502" type="curve"/>
      <point x="376" y="447"/>
      <point x="376" y="411"/>
      <point x="376" y="282" type="curve"/>
      <point x="376" y="126"/>
      <point x="336" y="48"/>
      <point x="276" y="48" type="curve"/>
      <point x="221" y="48"/>
      <point x="209" y="103"/>
      <point x="209" y="208" type="curve"/>
      <point x="209" y="460" type="line" smooth="yes"/>
      <point x="209" y="505"/>
      <point x="175" y="531"/>
      <point x="130" y="531" type="curve"/>
      <point x="94" y="531"/>
      <point x="69" y="516"/>
      <point x="51" y="501" type="curve"/>
      <point x="68" y="456"/>
      <point x="71" y="400"/>
      <point x="71" y="370" type="curve"/>
      <point x="71" y="186" type="line" smooth="yes"/>
      <point x="71" y="40"/>
      <point x="122" y="-15"/>
    </contour>
    <contour>
      <point x="150" y="-216" type="curve"/>
      <point x="189" y="-216"/>
      <point x="217" y="-197"/>
      <point x="229" y="-186" type="curve"/>
      <point x="201" y="-132"/>
      <point x="192" y="-67"/>
      <point x="190" y="-21" type="curve"/>
      <point x="190" y="38" type="line"/>
      <point x="71" y="332" type="line" smooth="yes"/>
      <point x="71" y="-146" type="line" smooth="yes"/>
      <point x="71" y="-190"/>
      <point x="105" y="-216"/>
    </contour>
  </outline>
</glyph>
<glyph name="onesuperior" format="1">
  <advance width="361"/>
  <unicode hex="00B9"/>
  <outline>
    <contour>
      <point x="236" y="222" type="curve"/>
      <point x="268" y="222"/>
      <point x="291" y="239"/>
      <point x="300" y="248" type="curve"/>
      <point x="286" y="286"/>
      <point x="284" y="323"/>
      <point x="284" y="348" type="curve"/>
      <point x="284" y="651" type="line" smooth="yes"/>
      <point x="284" y="690"/>
      <point x="256" y="712"/>
      <point x="219" y="712" type="curve"/>
      <point x="202" y="712"/>
      <point x="185" y="707"/>
      <point x="175" y="703" type="curve"/>
      <point x="160" y="694"/>
      <point x="32" y="612"/>
      <point x="28" y="611" type="curve"/>
      <point x="28" y="605"/>
      <point x="23" y="535"/>
      <point x="75" y="535" type="curve"/>
      <point x="104" y="535"/>
      <point x="149" y="581"/>
      <point x="174" y="612" type="curve"/>
      <point x="176" y="603"/>
      <point x="176" y="596"/>
      <point x="176" y="586" type="curve"/>
      <point x="176" y="282" type="line" smooth="yes"/>
      <point x="176" y="244"/>
      <point x="202" y="222"/>
    </contour>
  </outline>
</glyph>
<glyph name="ae" format="1">
  <advance width="850"/>
  <unicode hex="00E6"/>
  <outline>
    <contour>
      <point x="166" y="-10" type="curve"/>
      <point x="285" y="-10"/>
      <point x="361" y="84"/>
      <point x="385" y="194" type="curve"/>
      <point x="360" y="199" type="line"/>
      <point x="360" y="179" type="line"/>
      <point x="493" y="174" type="line"/>
      <point x="483" y="302" type="line" smooth="yes"/>
      <point x="473" y="445"/>
      <point x="417" y="531"/>
      <point x="277" y="531" type="curve"/>
      <point x="142" y="531"/>
      <point x="58" y="487"/>
      <point x="58" y="407" type="curve"/>
      <point x="58" y="355"/>
      <point x="95" y="314"/>
      <point x="160" y="314" type="curve"/>
      <point x="189" y="314"/>
      <point x="217" y="322"/>
      <point x="233" y="338" type="curve"/>
      <point x="205" y="354"/>
      <point x="198" y="385"/>
      <point x="198" y="412" type="curve"/>
      <point x="198" y="465"/>
      <point x="226" y="486"/>
      <point x="269" y="486" type="curve"/>
      <point x="332" y="486"/>
      <point x="352" y="431"/>
      <point x="352" y="323" type="curve"/>
      <point x="352" y="298" type="line"/>
      <point x="310" y="296"/>
      <point x="262" y="292"/>
      <point x="209" y="277" type="curve"/>
      <point x="126" y="253"/>
      <point x="34" y="204"/>
      <point x="34" y="108" type="curve"/>
      <point x="34" y="31"/>
      <point x="90" y="-10"/>
    </contour>
    <contour>
      <point x="238" y="79" type="curve"/>
      <point x="200" y="75"/>
      <point x="185" y="108"/>
      <point x="185" y="142" type="curve"/>
      <point x="185" y="182"/>
      <point x="208" y="214"/>
      <point x="240" y="232" type="curve"/>
      <point x="271" y="250"/>
      <point x="313" y="254"/>
      <point x="356" y="254" type="curve"/>
      <point x="356" y="156"/>
      <point x="289" y="84"/>
    </contour>
    <component base="e" xOffset="322"/>
    <contour>
      <point x="57" y="0" type="move" name="bottom"/>
    </contour>
    <contour>
      <point x="228" y="-10" type="move" name="ogonek"/>
    </contour>
    <contour>
      <point x="57" y="516" type="move" name="top"/>
    </contour>
  </outline>
</glyph>
<glyph name="eth" format="1">
  <advance width="549"/>
  <unicode hex="00F0"/>
  <outline>
    <contour>
      <point x="263" y="-14" type="curve"/>
      <point x="433" y="-14"/>
      <point x="515" y="119"/>
      <point x="515" y="294" type="curve"/>
      <point x="515" y="536"/>
      <point x="413" y="734"/>
      <point x="232" y="734" type="curve"/>
      <point x="160" y="734"/>
      <point x="146" y="686"/>
      <point x="141" y="646" type="curve"/>
      <point x="146" y="647"/>
      <point x="154" y="648"/>
      <point x="163" y="648" type="curve"/>
      <point x="243" y="648"/>
      <point x="367" y="561"/>
      <point x="372" y="446" type="curve"/>
      <point x="393" y="425" type="line"/>
      <point x="377" y="466"/>
      <point x="331" y="506"/>
      <point x="247" y="506" type="curve"/>
      <point x="112" y="506"/>
      <point x="34" y="401"/>
      <point x="34" y="242" type="curve"/>
      <point x="34" y="93"/>
      <point x="86" y="-14"/>
    </contour>
    <contour>
      <point x="270" y="60" type="curve"/>
      <point x="201" y="60"/>
      <point x="181" y="120"/>
      <point x="181" y="247" type="curve"/>
      <point x="181" y="357"/>
      <point x="207" y="438"/>
      <point x="282" y="438" type="curve"/>
      <point x="350" y="438"/>
      <point x="366" y="370"/>
      <point x="366" y="277" type="curve"/>
      <point x="366" y="121"/>
      <point x="338" y="60"/>
    </contour>
    <contour>
      <point x="445" y="727" type="curve"/>
      <point x="211" y="586" type="line"/>
      <point x="213" y="567"/>
      <point x="221" y="553"/>
      <point x="238" y="543" type="curve"/>
      <point x="472" y="683" type="line"/>
      <point x="471" y="704"/>
      <point x="462" y="719"/>
    </contour>
  </outline>
</glyph>
<glyph name="oslash" format="1">
  <advance width="562"/>
  <unicode hex="00F8"/>
  <outline>
    <contour>
      <point x="427" y="528" type="curve"/>
      <point x="91" y="1" type="line"/>
      <point x="99" y="-16"/>
      <point x="114" y="-24"/>
      <point x="135" y="-25" type="curve"/>
      <point x="471" y="503" type="line"/>
      <point x="461" y="519"/>
      <point x="446" y="528"/>
    </contour>
    <component base="o"/>
    <contour>
      <point x="281" y="516" type="move" name="top"/>
    </contour>
  </outline>
</glyph>
<glyph name="dcroat" format="1">
  <advance width="592"/>
  <unicode hex="0111"/>
  <outline>
    <contour>
      <point x="570" y="627" type="curve"/>
      <point x="269" y="627" type="line"/>
      <point x="264" y="610"/>
      <point x="264" y="594"/>
      <point x="269" y="576" type="curve"/>
      <point x="570" y="576" type="line"/>
      <point x="575" y="594"/>
      <point x="575" y="610"/>
    </contour>
    <component base="d"/>
  </outline>
</glyph>
<glyph name="dotlessi" format="1">
  <advance width="270"/>
  <unicode hex="0131"/>
  <outline>
    <contour>
      <point x="207" y="146" type="curve"/>
      <point x="206" y="461" type="line" smooth="yes"/>
      <point x="206" y="506"/>
      <point x="173" y="532"/>
      <point x="128" y="532" type="curve"/>
      <point x="90" y="532"/>
      <point x="63" y="512"/>
      <point x="51" y="502" type="curve"/>
      <point x="68" y="457"/>
      <point x="71" y="409"/>
      <point x="71" y="371" type="curve"/>
      <point x="71" y="56" type="line" smooth="yes"/>
      <point x="71" y="12"/>
      <point x="105" y="-15"/>
      <point x="148" y="-15" type="curve"/>
      <point x="187" y="-15"/>
      <point x="215" y="5"/>
      <point x="227" y="16" type="curve"/>
      <point x="209" y="60"/>
      <point x="207" y="108"/>
    </contour>
    <contour>
      <point x="149" y="0" type="move" name="bottom"/>
    </contour>
    <contour>
      <point x="177" y="10" type="move" name="ogonek"/>
    </contour>
    <contour>
      <point x="127" y="516" type="move" name="top"/>
    </contour>
  </outline>
</glyph>
<glyph name="Lslash" format="1">
  <advance width="508"/>
  <unicode hex="0141"/>
  <outline>
    <contour>
      <point x="318" y="486" type="curve"/>
      <point x="-1" y="165" type="line"/>
      <point x="5" y="146"/>
      <point x="17" y="133"/>
      <point x="34" y="129" type="curve"/>
      <point x="354" y="450" type="line"/>
      <point x="350" y="468"/>
      <point x="337" y="481"/>
    </contour>
    <component base="L"/>
  </outline>
</glyph>
<glyph name="Schwa" format="1">
  <advance width="616"/>
  <unicode hex="018F"/>
  <outline>
    <contour>
      <point x="278" y="712" type="curve"/>
      <point x="179" y="712"/>
      <point x="91" y="674"/>
      <point x="61" y="607" type="curve"/>
      <point x="45" y="570"/>
      <point x="58" y="553"/>
      <point x="70" y="548" type="curve"/>
      <point x="98" y="595"/>
      <point x="161" y="627"/>
      <point x="241" y="627" type="curve"/>
      <point x="359" y="627"/>
      <point x="424" y="556"/>
      <point x="424" y="335" type="curve"/>
      <point x="424" y="146"/>
      <point x="375" y="31"/>
      <point x="285" y="31" type="curve"/>
      <point x="240" y="31"/>
      <point x="191" y="58"/>
      <point x="191" y="158" type="curve"/>
      <point x="191" y="309"/>
      <point x="313" y="338"/>
      <point x="389" y="338" type="curve"/>
      <point x="427" y="338"/>
      <point x="472" y="328"/>
      <point x="503" y="313" type="curve"/>
      <point x="508" y="354" type="line"/>
      <point x="441" y="388"/>
      <point x="350" y="389"/>
      <point x="283" y="389" type="curve"/>
      <point x="143" y="389"/>
      <point x="44" y="315"/>
      <point x="44" y="184" type="curve"/>
      <point x="44" y="51"/>
      <point x="148" y="-14"/>
      <point x="281" y="-14" type="curve"/>
      <point x="470" y="-14"/>
      <point x="571" y="123"/>
      <point x="571" y="346" type="curve"/>
      <point x="571" y="580"/>
      <point x="461" y="712"/>
    </contour>
  </outline>
</glyph>
<glyph name="apostrophemod" format="1">
  <advance width="600"/>
  <unicode hex="02BC"/>
  <outline>
    <contour>
      <point x="132" y="520" type="line"/>
      <point x="102" y="713" type="line"/>
      <point x="140" y="725"/>
      <point x="191" y="725"/>
      <point x="225" y="713" type="curve"/>
      <point x="189" y="520" type="line"/>
    </contour>
  </outline>
</glyph>
<glyph name="dieresiscomb" format="1">
  <advance width="600"/>
  <unicode hex="0308"/>
  <outline>
    <contour>
      <point x="191" y="615" type="curve"/>
      <point x="225" y="615"/>
      <point x="253" y="643"/>
      <point x="253" y="677" type="curve"/>
      <point x="253" y="712"/>
      <point x="225" y="739"/>
      <point x="191" y="739" type="curve"/>
      <point x="156" y="739"/>
      <point x="128" y="712"/>
      <point x="128" y="677" type="curve"/>
      <point x="128" y="643"/>
      <point x="156" y="615"/>
    </contour>
    <contour>
      <point x="381" y="615" type="curve"/>
      <point x="415" y="615"/>
      <point x="444" y="643"/>
      <point x="444" y="677" type="curve"/>
      <point x="444" y="712"/>
      <point x="415" y="739"/>
      <point x="381" y="739" type="curve"/>
      <point x="347" y="739"/>
      <point x="319" y="711"/>
      <point x="319" y="677" type="curve"/>
      <point x="319" y="643"/>
      <point x="347" y="615"/>
    </contour>
    <contour>
      <point x="285" y="520" type="move" name="_top"/>
    </contour>
    <contour>
      <point x="285" y="683" type="move" name="top"/>
    </contour>
  </outline>
</glyph>
<glyph name="horncomb" format="1">
  <advance width="600"/>
  <unicode hex="031B"/>
  <outline>
    <contour>
      <point x="163" y="526" type="curve"/>
      <point x="180" y="483" type="line"/>
      <point x="253" y="508"/>
      <point x="318" y="550"/>
      <point x="318" y="605" type="curve"/>
      <point x="318" y="639"/>
      <point x="302" y="675"/>
      <point x="290" y="688" type="curve"/>
      <point x="265" y="685"/>
      <point x="216" y="663"/>
      <point x="198" y="650" type="curve"/>
      <point x="209" y="638"/>
      <point x="221" y="615"/>
      <point x="221" y="592" type="curve"/>
      <point x="221" y="567"/>
      <point x="208" y="542"/>
    </contour>
    <contour>
      <point x="197" y="516" type="move" name="_topright"/>
    </contour>
    <contour>
      <point x="202" y="516" type="move" name="topright"/>
    </contour>
  </outline>
</glyph>
<glyph name="dotbelowcomb" format="1">
  <advance width="600"/>
  <unicode hex="0323"/>
  <outline>
    <contour>
      <point x="300" y="-190" type="curve"/>
      <point x="343" y="-190"/>
      <point x="377" y="-156"/>
      <point x="377" y="-113" type="curve"/>
      <point x="377" y="-69"/>
      <point x="343" y="-35"/>
      <point x="300" y="-35" type="curve"/>
      <point x="256" y="-35"/>
      <point x="222" y="-69"/>
      <point x="222" y="-113" type="curve"/>
      <point x="222" y="-156"/>
      <point x="256" y="-190"/>
    </contour>
    <contour>
      <point x="299" y="0" type="move" name="_bottom"/>
    </contour>
    <contour>
      <point x="296" y="0" type="move" name="bottom"/>
    </contour>
  </outline>
</glyph>
<glyph name="tonos" format="1">
  <advance width="195"/>
  <unicode hex="0384"/>
  <outline>
    <contour>
      <point x="76" y="571" type="curve"/>
      <point x="175" y="714" type="line"/>
      <point x="151" y="728"/>
      <point x="93" y="742"/>
      <point x="54" y="740" type="curve"/>
      <point x="28" y="580" type="line"/>
      <point x="39" y="575"/>
      <point x="60" y="572"/>
    </contour>
    <contour>
      <point x="50" y="520" type="move" name="_top"/>
    </contour>
    <contour>
      <point x="98" y="700" type="move" name="top"/>
    </contour>
  </outline>
</glyph>
<glyph name="Pi" format="1">
  <advance width="701"/>
  <unicode hex="03A0"/>
  <outline>
    <contour>
      <point x="163" y="-18" type="curve"/>
      <point x="202" y="-18"/>
      <point x="231" y="2"/>
      <point x="243" y="13" type="curve"/>
      <point x="225" y="57"/>
      <point x="223" y="105"/>
      <point x="223" y="143" type="curve"/>
      <point x="223" y="627" type="line"/>
      <point x="479" y="627" type="line"/>
      <point x="479" y="53" type="line" smooth="yes"/>
      <point x="479" y="9"/>
      <point x="513" y="-18"/>
      <point x="559" y="-18" type="curve"/>
      <point x="598" y="-18"/>
      <point x="627" y="2"/>
      <point x="639" y="13" type="curve"/>
      <point x="621" y="57"/>
      <point x="619" y="105"/>
      <point x="619" y="143" type="curve"/>
      <point x="619" y="551" type="line" smooth="yes"/>
      <point x="619" y="589"/>
      <point x="622" y="636"/>
      <point x="639" y="681" type="curve"/>
      <point x="606" y="700"/>
      <point x="556" y="700"/>
      <point x="515" y="700" type="curve"/>
      <point x="187" y="700" type="line" smooth="yes"/>
      <point x="146" y="700"/>
      <point x="96" y="700"/>
      <point x="63" y="681" type="curve"/>
      <point x="80" y="636"/>
      <point x="83" y="589"/>
      <point x="83" y="551" type="curve"/>
      <point x="83" y="53" type="line" smooth="yes"/>
      <point x="83" y="9"/>
      <point x="117" y="-18"/>
    </contour>
    <contour>
      <point x="31" y="700" type="move" name="topleft"/>
    </contour>
  </outline>
</glyph>
<glyph name="Omega" format="1">
  <advance width="679"/>
  <unicode hex="03A9"/>
  <outline>
    <contour>
      <point x="282" y="30" type="curve"/>
      <point x="314" y="25" type="line"/>
      <point x="242" y="84"/>
      <point x="207" y="207"/>
      <point x="207" y="395" type="curve"/>
      <point x="207" y="584"/>
      <point x="247" y="665"/>
      <point x="339" y="665" type="curve"/>
      <point x="431" y="665"/>
      <point x="471" y="584"/>
      <point x="471" y="395" type="curve"/>
      <point x="471" y="206"/>
      <point x="440" y="84"/>
      <point x="364" y="25" type="curve"/>
      <point x="396" y="30" type="line"/>
      <point x="536" y="70"/>
      <point x="625" y="236"/>
      <point x="625" y="395" type="curve"/>
      <point x="625" y="605"/>
      <point x="527" y="712"/>
      <point x="339" y="712" type="curve"/>
      <point x="151" y="712"/>
      <point x="53" y="605"/>
      <point x="53" y="395" type="curve"/>
      <point x="53" y="237"/>
      <point x="145" y="70"/>
    </contour>
    <contour>
      <point x="63" y="0" type="curve"/>
      <point x="314" y="0" type="line"/>
      <point x="313" y="25" type="line"/>
      <point x="37" y="114" type="line"/>
      <point x="0" y="63"/>
      <point x="28" y="0"/>
    </contour>
    <contour>
      <point x="365" y="25" type="line"/>
      <point x="365" y="0" type="line"/>
      <point x="616" y="0" type="line" smooth="yes"/>
      <point x="651" y="0"/>
      <point x="679" y="63"/>
      <point x="642" y="114" type="curve"/>
    </contour>
    <contour>
      <point x="340" y="0" type="move" name="bottom"/>
    </contour>
    <contour>
      <point x="110" y="700" type="move" name="topleft"/>
    </contour>
  </outline>
</glyph>
<glyph name="alpha" format="1">
  <advance width="613"/>
  <unicode hex="03B1"/>
  <outline>
    <contour>
      <point x="218" y="-18" type="curve"/>
      <point x="320" y="-18"/>
      <point x="364" y="56"/>
      <point x="392" y="141" type="curve"/>
      <point x="398" y="141" type="line"/>
      <point x="407" y="32"/>
      <point x="446" y="-18"/>
      <point x="510" y="-18" type="curve"/>
      <point x="589" y="-18"/>
      <point x="618" y="71"/>
      <point x="618" y="106" type="curve"/>
      <point x="618" y="128"/>
      <point x="612" y="142"/>
      <point x="602" y="147" type="curve"/>
      <point x="587" y="120"/>
      <point x="565" y="93"/>
      <point x="531" y="93" type="curve"/>
      <point x="486" y="93"/>
      <point x="475" y="178"/>
      <point x="475" y="222" type="curve"/>
      <point x="536" y="396" type="line" smooth="yes"/>
      <point x="566" y="481"/>
      <point x="510" y="535"/>
      <point x="431" y="535" type="curve"/>
      <point x="416" y="535"/>
      <point x="402" y="533"/>
      <point x="388" y="529" type="curve"/>
      <point x="391" y="506"/>
      <point x="387" y="467"/>
      <point x="386" y="447" type="curve"/>
      <point x="383" y="328" type="line" smooth="yes"/>
      <point x="380" y="215"/>
      <point x="339" y="88"/>
      <point x="265" y="88" type="curve"/>
      <point x="211" y="88"/>
      <point x="186" y="149"/>
      <point x="186" y="231" type="curve"/>
      <point x="186" y="320"/>
      <point x="209" y="455"/>
      <point x="301" y="455" type="curve"/>
      <point x="339" y="455"/>
      <point x="375" y="425"/>
      <point x="384" y="341" type="curve"/>
      <point x="395" y="439" type="line"/>
      <point x="374" y="494"/>
      <point x="325" y="535"/>
      <point x="263" y="535" type="curve"/>
      <point x="125" y="535"/>
      <point x="42" y="397"/>
      <point x="42" y="246" type="curve"/>
      <point x="42" y="44"/>
      <point x="137" y="-18"/>
    </contour>
    <contour>
      <point x="306" y="520" type="move" name="top"/>
    </contour>
  </outline>
</glyph>
<glyph name="epsilon" format="1">
  <advance width="506"/>
  <unicode hex="03B5"/>
  <outline>
    <contour>
      <point x="480" y="157" type="curve"/>
      <point x="453" y="100"/>
      <point x="391" y="70"/>
      <point x="315" y="70" type="curve"/>
      <point x="242" y="70"/>
      <point x="199" y="108"/>
      <point x="199" y="162" type="curve"/>
      <point x="199" y="187"/>
      <point x="205" y="207"/>
      <point x="221" y="225" type="curve"/>
      <point x="251" y="217"/>
      <point x="284" y="213"/>
      <point x="317" y="213" type="curve"/>
      <point x="372" y="213"/>
      <point x="398" y="254"/>
      <point x="371" y="296" type="curve"/>
      <point x="323" y="291"/>
      <point x="279" y="282"/>
      <point x="239" y="272" type="curve"/>
      <point x="215" y="297"/>
      <point x="204" y="344"/>
      <point x="204" y="377" type="curve"/>
      <point x="204" y="447"/>
      <point x="236" y="489"/>
      <point x="288" y="489" type="curve"/>
      <point x="323" y="489"/>
      <point x="349" y="471"/>
      <point x="349" y="435" type="curve"/>
      <point x="349" y="411"/>
      <point x="339" y="390"/>
      <point x="321" y="376" type="curve"/>
      <point x="333" y="366"/>
      <point x="361" y="359"/>
      <point x="391" y="359" type="curve"/>
      <point x="448" y="359"/>
      <point x="486" y="388"/>
      <point x="486" y="432" type="curve"/>
      <point x="486" y="494"/>
      <point x="413" y="533"/>
      <point x="288" y="533" type="curve"/>
      <point x="146" y="533"/>
      <point x="52" y="472"/>
      <point x="52" y="376" type="curve"/>
      <point x="52" y="321"/>
      <point x="96" y="268"/>
      <point x="160" y="246" type="curve"/>
      <point x="91" y="223"/>
      <point x="45" y="181"/>
      <point x="45" y="122" type="curve"/>
      <point x="45" y="36"/>
      <point x="132" y="-18"/>
      <point x="269" y="-18" type="curve"/>
      <point x="390" y="-18"/>
      <point x="474" y="27"/>
      <point x="493" y="98" type="curve"/>
      <point x="500" y="124"/>
      <point x="496" y="145"/>
    </contour>
  </outline>
</glyph>
<glyph name="eta" format="1">
  <advance width="615"/>
  <unicode hex="03B7"/>
  <outline>
    <contour>
      <point x="497" y="-224" type="curve"/>
      <point x="531" y="-224"/>
      <point x="561" y="-209"/>
      <point x="581" y="-175" type="curve"/>
      <point x="556" y="-152"/>
      <point x="548" y="-98"/>
      <point x="547" y="66" type="curve"/>
      <point x="546" y="317" type="line" smooth="yes"/>
      <point x="545" y="506"/>
      <point x="465" y="535"/>
      <point x="403" y="535" type="curve"/>
      <point x="328" y="535"/>
      <point x="250" y="482"/>
      <point x="214" y="371" type="curve"/>
      <point x="225" y="352" type="line"/>
      <point x="225" y="497"/>
      <point x="163" y="535"/>
      <point x="104" y="535" type="curve"/>
      <point x="55" y="535"/>
      <point x="15" y="501"/>
      <point x="15" y="453" type="curve"/>
      <point x="15" y="444"/>
      <point x="17" y="432"/>
      <point x="21" y="422" type="curve"/>
      <point x="31" y="428"/>
      <point x="46" y="432"/>
      <point x="60" y="432" type="curve"/>
      <point x="107" y="432"/>
      <point x="105" y="363"/>
      <point x="105" y="256" type="curve"/>
      <point x="89" y="92" type="line" smooth="yes"/>
      <point x="81" y="21"/>
      <point x="124" y="-18"/>
      <point x="182" y="-18" type="curve"/>
      <point x="212" y="-18"/>
      <point x="242" y="-8"/>
      <point x="259" y="5" type="curve"/>
      <point x="239" y="55"/>
      <point x="234" y="101"/>
      <point x="234" y="274" type="curve"/>
      <point x="234" y="332"/>
      <point x="279" y="412"/>
      <point x="366" y="412" type="curve"/>
      <point x="408" y="412"/>
      <point x="425" y="384"/>
      <point x="425" y="332" type="curve"/>
      <point x="425" y="287"/>
      <point x="409" y="55"/>
      <point x="409" y="-79" type="curve"/>
      <point x="409" y="-153"/>
      <point x="425" y="-224"/>
    </contour>
  </outline>
</glyph>
<glyph name="iota" format="1">
  <advance width="303"/>
  <unicode hex="03B9"/>
  <outline>
    <contour>
      <point x="195" y="-18" type="curve"/>
      <point x="242" y="-18"/>
      <point x="281" y="11"/>
      <point x="281" y="56" type="curve"/>
      <point x="281" y="71"/>
      <point x="277" y="93"/>
      <point x="269" y="103" type="curve"/>
      <point x="258" y="96"/>
      <point x="244" y="93"/>
      <point x="233" y="93" type="curve"/>
      <point x="195" y="93"/>
      <point x="186" y="118"/>
      <point x="192" y="175" type="curve"/>
      <point x="217" y="441" type="line" smooth="yes"/>
      <point x="224" y="511"/>
      <point x="180" y="535"/>
      <point x="134" y="535" type="curve"/>
      <point x="106" y="535"/>
      <point x="85" y="530"/>
      <point x="55" y="507" type="curve"/>
      <point x="63" y="479"/>
      <point x="68" y="450"/>
      <point x="68" y="393" type="curve"/>
      <point x="69" y="189" type="line" smooth="yes"/>
      <point x="69" y="64"/>
      <point x="109" y="-18"/>
    </contour>
    <contour>
      <point x="140" y="520" type="move" name="top"/>
    </contour>
  </outline>
</glyph>
<glyph name="lambda" format="1">
  <advance width="570"/>
  <unicode hex="03BB"/>
  <outline>
    <contour>
      <point x="496" y="-18" type="curve"/>
      <point x="557" y="-18"/>
      <point x="590" y="25"/>
      <point x="590" y="60" type="curve"/>
      <point x="590" y="77"/>
      <point x="585" y="93"/>
      <point x="578" y="103" type="curve"/>
      <point x="572" y="98"/>
      <point x="564" y="93"/>
      <point x="552" y="93" type="curve"/>
      <point x="527" y="93"/>
      <point x="492" y="109"/>
      <point x="459" y="204" type="curve"/>
      <point x="348" y="528" type="line" smooth="yes"/>
      <point x="301" y="665"/>
      <point x="257" y="733"/>
      <point x="165" y="733" type="curve"/>
      <point x="104" y="733"/>
      <point x="56" y="700"/>
      <point x="56" y="645" type="curve"/>
      <point x="56" y="636"/>
      <point x="60" y="622"/>
      <point x="62" y="616" type="curve"/>
      <point x="72" y="621"/>
      <point x="111" y="629"/>
      <point x="134" y="629" type="curve"/>
      <point x="202" y="629"/>
      <point x="244" y="591"/>
      <point x="278" y="460" type="curve"/>
      <point x="360" y="142" type="line" smooth="yes"/>
      <point x="380" y="63"/>
      <point x="406" y="-18"/>
    </contour>
    <contour>
      <point x="116" y="-18" type="curve"/>
      <point x="151" y="-18"/>
      <point x="172" y="-9"/>
      <point x="188" y="0" type="curve"/>
      <point x="181" y="10"/>
      <point x="178" y="23"/>
      <point x="178" y="39" type="curve"/>
      <point x="177" y="127"/>
      <point x="264" y="300"/>
      <point x="323" y="408" type="curve"/>
      <point x="262" y="531" type="line"/>
      <point x="174" y="380"/>
      <point x="35" y="118"/>
      <point x="35" y="55" type="curve"/>
      <point x="35" y="13"/>
      <point x="63" y="-18"/>
    </contour>
  </outline>
</glyph>
<glyph name="mu" format="1">
  <advance width="622"/>
  <unicode hex="03BC"/>
  <outline>
    <contour>
      <point x="404" y="141" type="curve"/>
      <point x="406" y="141" type="line"/>
      <point x="413" y="31"/>
      <point x="455" y="-18"/>
      <point x="515" y="-18" type="curve"/>
      <point x="584" y="-18"/>
      <point x="622" y="54"/>
      <point x="622" y="106" type="curve"/>
      <point x="622" y="129"/>
      <point x="614" y="143"/>
      <point x="606" y="147" type="curve"/>
      <point x="600" y="135"/>
      <point x="581" y="93"/>
      <point x="550" y="93" type="curve"/>
      <point x="512" y="93"/>
      <point x="491" y="142"/>
      <point x="491" y="208" type="curve"/>
      <point x="539" y="423" type="line" smooth="yes"/>
      <point x="556" y="498"/>
      <point x="506" y="535"/>
      <point x="455" y="535" type="curve"/>
      <point x="427" y="535"/>
      <point x="406" y="530"/>
      <point x="372" y="507" type="curve"/>
      <point x="388" y="459"/>
      <point x="388" y="388"/>
      <point x="389" y="243" type="curve"/>
      <point x="389" y="164"/>
      <point x="340" y="93"/>
      <point x="277" y="93" type="curve"/>
      <point x="219" y="93"/>
      <point x="197" y="144"/>
      <point x="197" y="208" type="curve"/>
      <point x="197" y="268"/>
      <point x="224" y="413"/>
      <point x="224" y="453" type="curve"/>
      <point x="224" y="508"/>
      <point x="190" y="535"/>
      <point x="138" y="535" type="curve"/>
      <point x="101" y="535"/>
      <point x="70" y="520"/>
      <point x="55" y="507" type="curve"/>
      <point x="63" y="480"/>
      <point x="65" y="444"/>
      <point x="77" y="279" type="curve"/>
      <point x="29" y="-121"/>
      <point x="36" y="-224"/>
      <point x="151" y="-224" type="curve"/>
      <point x="190" y="-224"/>
      <point x="229" y="-203"/>
      <point x="252" y="-169" type="curve"/>
      <point x="181" y="-118"/>
      <point x="132" y="39"/>
      <point x="132" y="135" type="curve"/>
      <point x="138" y="135" type="line"/>
      <point x="151" y="52"/>
      <point x="183" y="-18"/>
      <point x="258" y="-18" type="curve"/>
      <point x="334" y="-18"/>
      <point x="382" y="48"/>
    </contour>
  </outline>
</glyph>
<glyph name="omicron" format="1">
  <advance width="562"/>
  <unicode hex="03BF"/>
  <outline>
    <contour>
      <point x="282" y="535" type="curve"/>
      <point x="185" y="535"/>
      <point x="31" y="477"/>
      <point x="31" y="261" type="curve"/>
      <point x="31" y="45"/>
      <point x="169" y="-12"/>
      <point x="275" y="-12" type="curve"/>
      <point x="381" y="-12"/>
      <point x="525" y="38"/>
      <point x="525" y="264" type="curve"/>
      <point x="525" y="490"/>
      <point x="378" y="535"/>
    </contour>
    <contour>
      <point x="280" y="485" type="curve"/>
      <point x="319" y="485"/>
      <point x="379" y="448"/>
      <point x="379" y="263" type="curve"/>
      <point x="379" y="75"/>
      <point x="320" y="33"/>
      <point x="276" y="33" type="curve"/>
      <point x="233" y="33"/>
      <point x="177" y="81"/>
      <point x="177" y="261" type="curve"/>
      <point x="177" y="438"/>
      <point x="240" y="485"/>
    </contour>
    <contour>
      <point x="281" y="0" type="move" name="bottom"/>
    </contour>
    <contour>
      <point x="281" y="258" type="move" name="center"/>
    </contour>
    <contour>
      <point x="506" y="10" type="move" name="ogonek"/>
    </contour>
    <contour>
      <point x="281" y="516" type="move" name="top"/>
    </contour>
    <contour>
      <point x="406" y="502" type="move" name="topright"/>
    </contour>
  </outline>
</glyph>
<glyph name="pi" format="1">
  <advance width="631"/>
  <unicode hex="03C0"/>
  <outline>
    <contour>
      <point x="454" y="383" type="curve"/>
      <point x="408" y="388" type="line"/>
      <point x="408" y="129" type="line" smooth="yes"/>
      <point x="408" y="41"/>
      <point x="431" y="-14"/>
      <point x="506" y="-14" type="curve"/>
      <point x="559" y="-14"/>
      <point x="593" y="16"/>
      <point x="593" y="60" type="curve"/>
      <point x="593" y="70"/>
      <point x="589" y="87"/>
      <point x="579" y="101" type="curve"/>
      <point x="573" y="91"/>
      <point x="563" y="88"/>
      <point x="555" y="88" type="curve"/>
      <point x="506" y="88"/>
      <point x="454" y="245"/>
    </contour>
    <contour>
      <point x="46" y="358" type="curve"/>
      <point x="59" y="360"/>
      <point x="129" y="380"/>
      <point x="229" y="380" type="curve"/>
      <point x="558" y="380" type="line" smooth="yes"/>
      <point x="577" y="380"/>
      <point x="593" y="391"/>
      <point x="593" y="413" type="curve"/>
      <point x="594" y="520" type="line"/>
      <point x="584" y="518"/>
      <point x="289" y="516"/>
      <point x="279" y="516" type="curve"/>
      <point x="84" y="516" type="line" smooth="yes"/>
      <point x="55" y="516"/>
      <point x="16" y="493"/>
      <point x="16" y="437" type="curve"/>
      <point x="16" y="418"/>
      <point x="24" y="383"/>
    </contour>
    <contour>
      <point x="253" y="470" type="line"/>
      <point x="216" y="442" type="line"/>
      <point x="216" y="228"/>
      <point x="129" y="62"/>
      <point x="89" y="35" type="curve"/>
      <point x="112" y="4"/>
      <point x="148" y="-14"/>
      <point x="188" y="-14" type="curve"/>
      <point x="272" y="-14"/>
      <point x="267" y="80"/>
      <point x="263" y="197" type="curve"/>
    </contour>
  </outline>
</glyph>
<glyph name="rho" format="1">
  <advance width="554"/>
  <unicode hex="03C1"/>
  <outline>
    <contour>
      <point x="98" y="88" type="curve"/>
      <point x="69" y="51" type="line"/>
      <point x="94" y="23"/>
      <point x="171" y="-18"/>
      <point x="235" y="-18" type="curve"/>
      <point x="417" y="-18"/>
      <point x="527" y="104"/>
      <point x="527" y="284" type="curve"/>
      <point x="527" y="422"/>
      <point x="447" y="535"/>
      <point x="288" y="535" type="curve"/>
      <point x="156" y="535"/>
      <point x="38" y="461"/>
      <point x="38" y="268" type="curve"/>
      <point x="38" y="0"/>
      <point x="51" y="-224"/>
      <point x="183" y="-224" type="curve"/>
      <point x="235" y="-224"/>
      <point x="265" y="-195"/>
      <point x="284" y="-169" type="curve"/>
      <point x="248" y="-145"/>
      <point x="174" y="-67"/>
      <point x="174" y="239" type="curve"/>
      <point x="174" y="415"/>
      <point x="218" y="488"/>
      <point x="282" y="488" type="curve"/>
      <point x="344" y="488"/>
      <point x="377" y="406"/>
      <point x="377" y="295" type="curve"/>
      <point x="377" y="138"/>
      <point x="322" y="32"/>
      <point x="226" y="28" type="curve"/>
      <point x="189" y="26"/>
      <point x="146" y="45"/>
    </contour>
  </outline>
</glyph>
<glyph name="danda-deva" format="1">
  <advance width="279"/>
  <unicode hex="0964"/>
  <outline>
    <contour>
      <point x="75" y="730" type="line"/>
      <point x="75" y="-142" type="line"/>
      <point x="203" y="-132" type="line"/>
      <point x="203" y="730" type="line"/>
    </contour>
  </outline>
</glyph>
<glyph name="visarga-tamil" format="1">
  <advance width="754"/>
  <unicode hex="0B83"/>
  <outline>
    <contour>
      <point x="377" y="291" type="curve"/>
      <point x="472" y="291"/>
      <point x="528" y="343"/>
      <point x="528" y="433" type="curve"/>
      <point x="528" y="515"/>
      <point x="472" y="563"/>
      <point x="377" y="563" type="curve"/>
      <point x="282" y="563"/>
      <point x="226" y="515"/>
      <point x="226" y="433" type="curve"/>
      <point x="226" y="343"/>
      <point x="282" y="291"/>
    </contour>
    <contour>
      <point x="191" y="-18" type="curve"/>
      <point x="286" y="-18"/>
      <point x="342" y="32"/>
      <point x="342" y="118" type="curve"/>
      <point x="342" y="204"/>
      <point x="286" y="254"/>
      <point x="191" y="254" type="curve"/>
      <point x="96" y="254"/>
      <point x="40" y="204"/>
      <point x="40" y="118" type="curve"/>
      <point x="40" y="32"/>
      <point x="96" y="-18"/>
    </contour>
    <contour>
      <point x="191" y="16" type="curve"/>
      <point x="161" y="16"/>
      <point x="149" y="49"/>
      <point x="149" y="118" type="curve"/>
      <point x="149" y="187"/>
      <point x="161" y="220"/>
      <point x="191" y="220" type="curve"/>
      <point x="221" y="220"/>
      <point x="233" y="187"/>
      <point x="233" y="118" type="curve"/>
      <point x="233" y="49"/>
      <point x="221" y="16"/>
    </contour>
    <contour>
      <point x="563" y="-18" type="curve"/>
      <point x="658" y="-18"/>
      <point x="714" y="32"/>
      <point x="714" y="118" type="curve"/>
      <point x="714" y="204"/>
      <point x="658" y="254"/>
      <point x="563" y="254" type="curve"/>
      <point x="468" y="254"/>
      <point x="412" y="204"/>
      <point x="412" y="118" type="curve"/>
      <point x="412" y="32"/>
      <point x="468" y="-18"/>
    </contour>
    <contour>
      <point x="563" y="16" type="curve"/>
      <point x="533" y="16"/>
      <point x="521" y="49"/>
      <point x="521" y="118" type="curve"/>
      <point x="521" y="187"/>
      <point x="533" y="220"/>
      <point x="563" y="220" type="curve"/>
      <point x="593" y="220"/>
      <point x="605" y="187"/>
      <point x="605" y="118" type="curve"/>
      <point x="605" y="49"/>
      <point x="593" y="16"/>
    </contour>
    <contour>
      <point x="377" y="325" type="curve"/>
      <point x="347" y="325"/>
      <point x="335" y="361"/>
      <point x="335" y="433" type="curve"/>
      <point x="335" y="497"/>
      <point x="347" y="529"/>
      <point x="377" y="529" type="curve"/>
      <point x="407" y="529"/>
      <point x="419" y="497"/>
      <point x="419" y="433" type="curve"/>
      <point x="419" y="361"/>
      <point x="407" y="325"/>
    </contour>
  </outline>
</glyph>
<glyph name="ii-tamil" format="1">
  <advance width="772"/>
  <unicode hex="0B88"/>
  <outline>
    <contour>
      <point x="462" y="-10" type="curve"/>
      <point x="493" y="-10"/>
      <point x="521" y="-2"/>
      <point x="545" y="15" type="curve"/>
      <point x="534" y="45"/>
      <point x="526" y="72"/>
      <point x="526" y="158" type="curve"/>
      <point x="526" y="531" type="line"/>
      <point x="380" y="525" type="line"/>
      <point x="380" y="94" type="line" smooth="yes"/>
      <point x="380" y="9"/>
      <point x="411" y="-10"/>
    </contour>
    <contour>
      <point x="78" y="509" type="line"/>
      <point x="78" y="0" type="line"/>
      <point x="132" y="0" type="line"/>
      <point x="132" y="515" type="line"/>
    </contour>
    <contour>
      <point x="255" y="187" type="curve"/>
      <point x="290" y="187"/>
      <point x="318" y="217"/>
      <point x="318" y="252" type="curve"/>
      <point x="318" y="286"/>
      <point x="290" y="316"/>
      <point x="255" y="316" type="curve"/>
      <point x="221" y="316"/>
      <point x="193" y="288"/>
      <point x="193" y="254" type="curve"/>
      <point x="193" y="219"/>
      <point x="221" y="187"/>
    </contour>
    <contour>
      <point x="645" y="187" type="curve"/>
      <point x="678" y="187"/>
      <point x="706" y="217"/>
      <point x="706" y="252" type="curve"/>
      <point x="706" y="286"/>
      <point x="678" y="316"/>
      <point x="645" y="316" type="curve"/>
      <point x="609" y="316"/>
      <point x="581" y="286"/>
      <point x="581" y="252" type="curve"/>
      <point x="581" y="217"/>
      <point x="609" y="187"/>
    </contour>
    <contour>
      <point x="78" y="501" type="line"/>
      <point x="686" y="500" type="line"/>
      <point x="713" y="500"/>
      <point x="732" y="501"/>
      <point x="732" y="527" type="curve"/>
      <point x="732" y="533"/>
      <point x="731" y="540"/>
      <point x="729" y="548" type="curve"/>
      <point x="78" y="548" type="line"/>
    </contour>
  </outline>
</glyph>
<glyph name="u-tamil" format="1">
  <advance width="1043"/>
  <unicode hex="0B89"/>
  <outline>
    <contour>
      <point x="205" y="0" type="curve"/>
      <point x="1033" y="0" type="line"/>
      <point x="1033" y="48" type="line"/>
      <point x="209" y="48" type="line" smooth="yes"/>
      <point x="122" y="48"/>
      <point x="115" y="72"/>
      <point x="115" y="92" type="curve"/>
      <point x="115" y="130"/>
      <point x="142" y="142"/>
      <point x="224" y="143" type="curve"/>
      <point x="444" y="146"/>
      <point x="551" y="205"/>
      <point x="551" y="363" type="curve"/>
      <point x="551" y="528"/>
      <point x="416" y="563"/>
      <point x="310" y="563" type="curve"/>
      <point x="141" y="563"/>
      <point x="65" y="473"/>
      <point x="65" y="373" type="curve"/>
      <point x="65" y="304"/>
      <point x="100" y="243"/>
      <point x="189" y="243" type="curve"/>
      <point x="267" y="243"/>
      <point x="317" y="290"/>
      <point x="317" y="357" type="curve"/>
      <point x="317" y="418"/>
      <point x="276" y="461"/>
      <point x="201" y="461" type="curve"/>
      <point x="185" y="461"/>
      <point x="168" y="459"/>
      <point x="151" y="451" type="curve"/>
      <point x="174" y="480"/>
      <point x="216" y="495"/>
      <point x="269" y="495" type="curve"/>
      <point x="332" y="495"/>
      <point x="401" y="472"/>
      <point x="401" y="343" type="curve"/>
      <point x="401" y="228"/>
      <point x="357" y="194"/>
      <point x="228" y="191" type="curve"/>
      <point x="97" y="188"/>
      <point x="40" y="159"/>
      <point x="40" y="88" type="curve"/>
      <point x="40" y="38"/>
      <point x="68" y="0"/>
    </contour>
    <contour>
      <point x="170" y="295" type="curve"/>
      <point x="134" y="295"/>
      <point x="122" y="321"/>
      <point x="122" y="354" type="curve"/>
      <point x="122" y="391"/>
      <point x="137" y="418"/>
      <point x="171" y="418" type="curve"/>
      <point x="209" y="418"/>
      <point x="219" y="383"/>
      <point x="219" y="354" type="curve"/>
      <point x="219" y="329"/>
      <point x="211" y="295"/>
    </contour>
  </outline>
</glyph>
<glyph name="e-tamil" format="1">
  <advance width="906"/>
  <unicode hex="0B8E"/>
  <outline>
    <contour>
      <point x="282" y="-15" type="curve"/>
      <point x="390" y="-15"/>
      <point x="490" y="32"/>
      <point x="490" y="168" type="curve"/>
      <point x="490" y="265"/>
      <point x="438" y="347"/>
      <point x="318" y="347" type="curve"/>
      <point x="215" y="347"/>
      <point x="159" y="291"/>
      <point x="159" y="171" type="curve"/>
      <point x="159" y="125"/>
      <point x="167" y="75"/>
      <point x="207" y="32" type="curve"/>
      <point x="154" y="44"/>
      <point x="109" y="107"/>
      <point x="109" y="225" type="curve"/>
      <point x="109" y="448"/>
      <point x="276" y="500"/>
      <point x="431" y="500" type="curve"/>
      <point x="854" y="500" type="line" smooth="yes"/>
      <point x="881" y="500"/>
      <point x="903" y="501"/>
      <point x="903" y="527" type="curve"/>
      <point x="903" y="533"/>
      <point x="902" y="540"/>
      <point x="900" y="548" type="curve"/>
      <point x="445" y="548" type="line" smooth="yes"/>
      <point x="212" y="548"/>
      <point x="45" y="466"/>
      <point x="45" y="239" type="curve"/>
      <point x="45" y="55"/>
      <point x="156" y="-15"/>
    </contour>
    <contour>
      <point x="281" y="31" type="curve"/>
      <point x="241" y="31"/>
      <point x="221" y="77"/>
      <point x="221" y="156" type="curve"/>
      <point x="221" y="236"/>
      <point x="242" y="290"/>
      <point x="283" y="290" type="curve"/>
      <point x="326" y="290"/>
      <point x="340" y="232"/>
      <point x="340" y="161" type="curve"/>
      <point x="340" y="69"/>
      <point x="317" y="31"/>
    </contour>
    <contour>
      <point x="671" y="-10" type="curve"/>
      <point x="702" y="-10"/>
      <point x="730" y="-2"/>
      <point x="754" y="15" type="curve"/>
      <point x="743" y="45"/>
      <point x="735" y="72"/>
      <point x="735" y="167" type="curve"/>
      <point x="735" y="515" type="line"/>
      <point x="589" y="509" type="line"/>
      <point x="589" y="103" type="line" smooth="yes"/>
      <point x="589" y="9"/>
      <point x="620" y="-10"/>
    </contour>
  </outline>
</glyph>
<glyph name="oo-tamil" format="1">
  <advance width="814"/>
  <unicode hex="0B93"/>
  <outline>
    <contour>
      <point x="313" y="-189" type="curve"/>
      <point x="488" y="-189"/>
      <point x="649" y="-85"/>
      <point x="703" y="71" type="curve"/>
      <point x="692" y="79" type="line"/>
      <point x="661" y="68"/>
      <point x="629" y="63"/>
      <point x="599" y="63" type="curve"/>
      <point x="511" y="63"/>
      <point x="435" y="109"/>
      <point x="435" y="209" type="curve"/>
      <point x="435" y="280"/>
      <point x="473" y="317"/>
      <point x="492" y="323" type="curve"/>
      <point x="479" y="310"/>
      <point x="471" y="282"/>
      <point x="471" y="256" type="curve"/>
      <point x="471" y="192"/>
      <point x="522" y="145"/>
      <point x="606" y="145" type="curve"/>
      <point x="714" y="145"/>
      <point x="774" y="222"/>
      <point x="774" y="316" type="curve"/>
      <point x="774" y="486"/>
      <point x="578" y="563"/>
      <point x="384" y="563" type="curve"/>
      <point x="129" y="563"/>
      <point x="35" y="430"/>
      <point x="35" y="297" type="curve"/>
      <point x="35" y="221"/>
      <point x="66" y="164"/>
      <point x="163" y="164" type="curve"/>
      <point x="246" y="164"/>
      <point x="295" y="205"/>
      <point x="295" y="269" type="curve"/>
      <point x="295" y="326"/>
      <point x="255" y="366"/>
      <point x="172" y="366" type="curve"/>
      <point x="140" y="366"/>
      <point x="104" y="360"/>
      <point x="78" y="332" type="curve"/>
      <point x="87" y="276" type="line"/>
      <point x="87" y="412"/>
      <point x="184" y="502"/>
      <point x="364" y="502" type="curve"/>
      <point x="511" y="502"/>
      <point x="624" y="443"/>
      <point x="624" y="318" type="curve"/>
      <point x="624" y="273"/>
      <point x="611" y="215"/>
      <point x="575" y="215" type="curve"/>
      <point x="556" y="215"/>
      <point x="535" y="230"/>
      <point x="535" y="270" type="curve"/>
      <point x="535" y="290"/>
      <point x="540" y="330"/>
      <point x="554" y="342" type="curve"/>
      <point x="543" y="359" type="line"/>
      <point x="466" y="359"/>
      <point x="336" y="294"/>
      <point x="336" y="155" type="curve"/>
      <point x="336" y="29"/>
      <point x="444" y="-38"/>
      <point x="544" y="-38" type="curve"/>
      <point x="561" y="-38"/>
      <point x="574" y="-36"/>
      <point x="587" y="-34" type="curve"/>
      <point x="547" y="-78"/>
      <point x="463" y="-124"/>
      <point x="339" y="-124" type="curve"/>
      <point x="212" y="-124"/>
      <point x="196" y="-76"/>
      <point x="193" y="-30" type="curve"/>
      <point x="192" y="-15"/>
      <point x="192" y="22"/>
      <point x="198" y="32" type="curve"/>
      <point x="168" y="-10" type="line"/>
      <point x="167" y="-22"/>
      <point x="162" y="-23"/>
      <point x="162" y="-42" type="curve"/>
      <point x="162" y="-79"/>
      <point x="180" y="-119"/>
      <point x="239" y="-119" type="curve"/>
      <point x="317" y="-119"/>
      <point x="332" y="-51"/>
      <point x="332" y="-16" type="curve"/>
      <point x="332" y="43"/>
      <point x="291" y="84"/>
      <point x="215" y="84" type="curve"/>
      <point x="126" y="84"/>
      <point x="87" y="29"/>
      <point x="87" y="-35" type="curve"/>
      <point x="87" y="-141"/>
      <point x="194" y="-189"/>
    </contour>
    <contour>
      <point x="241" y="-83" type="curve"/>
      <point x="216" y="-83"/>
      <point x="201" y="-59"/>
      <point x="201" y="-23" type="curve"/>
      <point x="201" y="15"/>
      <point x="218" y="40"/>
      <point x="244" y="40" type="curve"/>
      <point x="269" y="40"/>
      <point x="285" y="17"/>
      <point x="285" y="-20" type="curve"/>
      <point x="285" y="-60"/>
      <point x="266" y="-83"/>
    </contour>
    <contour>
      <point x="141" y="202" type="curve"/>
      <point x="107" y="202"/>
      <point x="98" y="233"/>
      <point x="98" y="263" type="curve"/>
      <point x="98" y="300"/>
      <point x="112" y="327"/>
      <point x="142" y="327" type="curve"/>
      <point x="177" y="327"/>
      <point x="185" y="292"/>
      <point x="185" y="265" type="curve"/>
      <point x="185" y="242"/>
      <point x="179" y="202"/>
    </contour>
  </outline>
</glyph>
<glyph name="ka-tamil" format="1">
  <advance width="874"/>
  <unicode hex="0B95"/>
  <outline>
    <contour>
      <point x="262" y="-15" type="curve"/>
      <point x="409" y="-15"/>
      <point x="532" y="69"/>
      <point x="532" y="240" type="curve"/>
      <point x="532" y="532" type="line"/>
      <point x="386" y="531" type="line"/>
      <point x="386" y="230" type="line" smooth="yes"/>
      <point x="386" y="144"/>
      <point x="363" y="55"/>
      <point x="243" y="55" type="curve"/>
      <point x="159" y="55"/>
      <point x="112" y="105"/>
      <point x="112" y="170" type="curve"/>
      <point x="112" y="231"/>
      <point x="150" y="286"/>
      <point x="240" y="286" type="curve"/>
      <point x="546" y="286" type="line" smooth="yes"/>
      <point x="646" y="286"/>
      <point x="674" y="229"/>
      <point x="674" y="157" type="curve"/>
      <point x="674" y="78"/>
      <point x="637" y="46"/>
      <point x="574" y="46" type="curve"/>
      <point x="564" y="46"/>
      <point x="553" y="46"/>
      <point x="541" y="48" type="curve"/>
      <point x="535" y="46"/>
      <point x="529" y="34"/>
      <point x="529" y="23" type="curve"/>
      <point x="529" y="0"/>
      <point x="558" y="-15"/>
      <point x="614" y="-15" type="curve"/>
      <point x="729" y="-15"/>
      <point x="824" y="47"/>
      <point x="824" y="166" type="curve"/>
      <point x="824" y="279"/>
      <point x="737" y="334"/>
      <point x="564" y="334" type="curve"/>
      <point x="240" y="334" type="line" smooth="yes"/>
      <point x="110" y="334"/>
      <point x="50" y="263"/>
      <point x="50" y="170" type="curve"/>
      <point x="50" y="70"/>
      <point x="122" y="-15"/>
    </contour>
    <contour>
      <point x="229" y="500" type="curve"/>
      <point x="646" y="500" type="line"/>
      <point x="673" y="500"/>
      <point x="695" y="501"/>
      <point x="695" y="527" type="curve"/>
      <point x="695" y="533"/>
      <point x="694" y="540"/>
      <point x="690" y="548" type="curve"/>
      <point x="204" y="548" type="line" smooth="yes"/>
      <point x="180" y="548"/>
      <point x="166" y="537"/>
      <point x="166" y="507" type="curve"/>
      <point x="166" y="281" type="line"/>
      <point x="212" y="299" type="line"/>
      <point x="212" y="482" type="line" smooth="yes"/>
      <point x="212" y="496"/>
      <point x="220" y="500"/>
    </contour>
    <contour>
      <point x="473" y="548" type="move" name="imatra"/>
    </contour>
    <contour>
      <point x="462" y="548" type="move" name="top"/>
    </contour>
  </outline>
</glyph>
<glyph name="nga-tamil" format="1">
  <advance width="1112"/>
  <unicode hex="0B99"/>
  <outline>
    <contour>
      <point x="78" y="509" type="line"/>
      <point x="78" y="0" type="line"/>
      <point x="128" y="0" type="line"/>
      <point x="128" y="515" type="line"/>
    </contour>
    <contour>
      <point x="385" y="140" type="curve"/>
      <point x="427" y="140"/>
      <point x="451" y="152"/>
      <point x="466" y="167" type="curve"/>
      <point x="466" y="533" type="line"/>
      <point x="318" y="527" type="line"/>
      <point x="318" y="161" type="line" smooth="yes"/>
      <point x="318" y="148"/>
      <point x="350" y="140"/>
    </contour>
    <contour>
      <point x="615" y="548" type="curve"/>
      <point x="78" y="548" type="line"/>
      <point x="78" y="500" type="line"/>
      <point x="567" y="500" type="line" smooth="yes"/>
      <point x="594" y="500"/>
      <point x="620" y="500"/>
      <point x="620" y="526" type="curve"/>
      <point x="620" y="532"/>
      <point x="619" y="540"/>
    </contour>
    <contour>
      <point x="778" y="249" type="curve"/>
      <point x="778" y="351"/>
      <point x="719" y="417"/>
      <point x="613" y="417" type="curve"/>
      <point x="468" y="417"/>
      <point x="436" y="292"/>
      <point x="427" y="229" type="curve"/>
      <point x="466" y="167" type="line"/>
      <point x="468" y="261"/>
      <point x="509" y="322"/>
      <point x="567" y="322" type="curve"/>
      <point x="610" y="322"/>
      <point x="628" y="286"/>
      <point x="628" y="237" type="curve"/>
      <point x="628" y="99"/>
      <point x="472" y="51"/>
      <point x="335" y="39" type="curve"/>
      <point x="335" y="0" type="line"/>
      <point x="1026" y="0" type="line"/>
      <point x="1027" y="492" type="line" smooth="yes"/>
      <point x="1027" y="532"/>
      <point x="1008" y="558"/>
      <point x="948" y="558" type="curve"/>
      <point x="927" y="558"/>
      <point x="891" y="555"/>
      <point x="870" y="549" type="curve"/>
      <point x="877" y="531"/>
      <point x="877" y="503"/>
      <point x="877" y="483" type="curve"/>
      <point x="876" y="43" type="line"/>
      <point x="637" y="43" type="line"/>
      <point x="737" y="77"/>
      <point x="778" y="167"/>
    </contour>
    <contour>
      <point x="964" y="548" type="move" name="imatra"/>
    </contour>
    <contour>
      <point x="544" y="548" type="move" name="top"/>
    </contour>
  </outline>
</glyph>
<glyph name="ja-tamil" format="1">
  <advance width="908"/>
  <unicode hex="0B9C"/>
  <outline>
    <contour>
      <point x="578" y="15" type="curve"/>
      <point x="527" y="42" type="line"/>
      <point x="515" y="18"/>
      <point x="514" y="-19"/>
      <point x="514" y="-36" type="curve"/>
      <point x="514" y="-96"/>
      <point x="534" y="-190"/>
      <point x="673" y="-189" type="curve"/>
      <point x="797" y="-188"/>
      <point x="856" y="-121"/>
      <point x="856" y="-37" type="curve"/>
      <point x="856" y="59"/>
      <point x="779" y="120"/>
      <point x="664" y="120" type="curve"/>
      <point x="436" y="120"/>
      <point x="402" y="-121"/>
      <point x="266" y="-121" type="curve"/>
      <point x="215" y="-121"/>
      <point x="194" y="-87"/>
      <point x="194" y="-30" type="curve"/>
      <point x="194" y="84"/>
      <point x="278" y="133"/>
      <point x="486" y="165" type="curve"/>
      <point x="645" y="190"/>
      <point x="863" y="201"/>
      <point x="863" y="396" type="curve"/>
      <point x="863" y="497"/>
      <point x="804" y="563"/>
      <point x="673" y="563" type="curve"/>
      <point x="544" y="563"/>
      <point x="488" y="499"/>
      <point x="472" y="402" type="curve"/>
      <point x="455" y="510"/>
      <point x="385" y="563"/>
      <point x="273" y="563" type="curve"/>
      <point x="125" y="563"/>
      <point x="52" y="472"/>
      <point x="52" y="369" type="curve"/>
      <point x="52" y="306"/>
      <point x="80" y="249"/>
      <point x="174" y="249" type="curve"/>
      <point x="254" y="249"/>
      <point x="304" y="290"/>
      <point x="304" y="353" type="curve"/>
      <point x="304" y="411"/>
      <point x="262" y="451"/>
      <point x="186" y="451" type="curve"/>
      <point x="169" y="451"/>
      <point x="153" y="449"/>
      <point x="135" y="441" type="curve"/>
      <point x="151" y="480"/>
      <point x="193" y="501"/>
      <point x="242" y="501" type="curve"/>
      <point x="329" y="501"/>
      <point x="381" y="436"/>
      <point x="381" y="291" type="curve"/>
      <point x="535" y="291" type="line"/>
      <point x="550" y="425"/>
      <point x="566" y="496"/>
      <point x="642" y="496" type="curve"/>
      <point x="695" y="496"/>
      <point x="714" y="461"/>
      <point x="714" y="404" type="curve"/>
      <point x="714" y="286"/>
      <point x="631" y="237"/>
      <point x="444" y="206" type="curve"/>
      <point x="305" y="183"/>
      <point x="45" y="155"/>
      <point x="45" y="-32" type="curve"/>
      <point x="45" y="-135"/>
      <point x="124" y="-190"/>
      <point x="235" y="-190" type="curve"/>
      <point x="444" y="-190"/>
      <point x="455" y="7"/>
    </contour>
    <contour>
      <point x="150" y="287" type="curve"/>
      <point x="118" y="287"/>
      <point x="107" y="318"/>
      <point x="107" y="348" type="curve"/>
      <point x="107" y="385"/>
      <point x="123" y="412"/>
      <point x="153" y="412" type="curve"/>
      <point x="187" y="412"/>
      <point x="195" y="378"/>
      <point x="195" y="352" type="curve"/>
      <point x="195" y="327"/>
      <point x="188" y="287"/>
    </contour>
    <contour>
      <point x="652" y="56" type="curve"/>
      <point x="692" y="57"/>
      <point x="713" y="25"/>
      <point x="713" y="-38" type="curve"/>
      <point x="713" y="-69"/>
      <point x="708" y="-138"/>
      <point x="656" y="-138" type="curve"/>
      <point x="611" y="-138"/>
      <point x="594" y="-98"/>
      <point x="592" y="-44" type="curve"/>
      <point x="590" y="-4"/>
      <point x="599" y="55"/>
    </contour>
    <contour>
      <point x="758" y="548" type="move" name="imatra"/>
    </contour>
    <contour>
      <point x="477" y="548" type="move" name="top"/>
    </contour>
  </outline>
</glyph>
<glyph name="nya-tamil" format="1">
  <advance width="1392"/>
  <unicode hex="0B9E"/>
  <outline>
    <contour>
      <point x="586" y="31" type="curve"/>
      <point x="546" y="31"/>
      <point x="526" y="77"/>
      <point x="526" y="156" type="curve"/>
      <point x="526" y="236"/>
      <point x="547" y="290"/>
      <point x="588" y="290" type="curve"/>
      <point x="631" y="290"/>
      <point x="645" y="232"/>
      <point x="645" y="161" type="curve"/>
      <point x="645" y="69"/>
      <point x="622" y="31"/>
    </contour>
    <contour>
      <point x="959" y="-10" type="curve"/>
      <point x="992" y="-10"/>
      <point x="1020" y="-2"/>
      <point x="1044" y="15" type="curve"/>
      <point x="1035" y="41"/>
      <point x="1027" y="65"/>
      <point x="1026" y="159" type="curve"/>
      <point x="1023" y="515" type="line"/>
      <point x="877" y="509" type="line"/>
      <point x="877" y="103" type="line" smooth="yes"/>
      <point x="877" y="9"/>
      <point x="908" y="-10"/>
    </contour>
    <contour>
      <point x="688" y="-192" type="curve"/>
      <point x="1089" y="-192"/>
      <point x="1342" y="-104"/>
      <point x="1342" y="195" type="curve"/>
      <point x="1342" y="295"/>
      <point x="1315" y="417"/>
      <point x="1179" y="417" type="curve"/>
      <point x="1032" y="417"/>
      <point x="1004" y="276"/>
      <point x="993" y="195" type="curve"/>
      <point x="1026" y="153" type="line"/>
      <point x="1028" y="225"/>
      <point x="1053" y="322"/>
      <point x="1126" y="322" type="curve"/>
      <point x="1164" y="322"/>
      <point x="1192" y="295"/>
      <point x="1192" y="189" type="curve"/>
      <point x="1192" y="-79"/>
      <point x="1006" y="-141"/>
      <point x="684" y="-141" type="curve"/>
      <point x="384" y="-141"/>
      <point x="185" y="-62"/>
      <point x="185" y="220" type="curve"/>
      <point x="185" y="441"/>
      <point x="301" y="505"/>
      <point x="373" y="537" type="curve"/>
      <point x="360" y="565"/>
      <point x="348" y="565"/>
      <point x="327" y="563" type="curve"/>
      <point x="213" y="551"/>
      <point x="45" y="456"/>
      <point x="45" y="219" type="curve"/>
      <point x="45" y="2"/>
      <point x="190" y="-192"/>
    </contour>
    <contour>
      <point x="736" y="500" type="curve"/>
      <point x="1124" y="499" type="line"/>
      <point x="1151" y="499"/>
      <point x="1177" y="499"/>
      <point x="1177" y="525" type="curve"/>
      <point x="1177" y="531"/>
      <point x="1176" y="540"/>
      <point x="1172" y="548" type="curve"/>
      <point x="750" y="548" type="line" smooth="yes"/>
      <point x="470" y="548"/>
      <point x="309" y="456"/>
      <point x="309" y="244" type="curve"/>
      <point x="309" y="52"/>
      <point x="445" y="-15"/>
      <point x="582" y="-15" type="curve"/>
      <point x="696" y="-15"/>
      <point x="795" y="32"/>
      <point x="795" y="167" type="curve"/>
      <point x="795" y="265"/>
      <point x="742" y="347"/>
      <point x="625" y="347" type="curve"/>
      <point x="525" y="347"/>
      <point x="474" y="286"/>
      <point x="474" y="168" type="curve"/>
      <point x="474" y="124"/>
      <point x="481" y="74"/>
      <point x="513" y="31" type="curve"/>
      <point x="449" y="43"/>
      <point x="404" y="109"/>
      <point x="404" y="225" type="curve"/>
      <point x="404" y="451"/>
      <point x="571" y="500"/>
    </contour>
    <contour>
      <point x="957" y="548" type="move" name="imatra"/>
    </contour>
    <contour>
      <point x="768" y="548" type="move" name="top"/>
    </contour>
  </outline>
</glyph>
<glyph name="tta-tamil" format="1">
  <advance width="840"/>
  <unicode hex="0B9F"/>
  <outline>
    <contour>
      <point x="830" y="0" type="line"/>
      <point x="830" y="48" type="line"/>
      <point x="231" y="48" type="line"/>
      <point x="231" y="492" type="line" smooth="yes"/>
      <point x="231" y="537"/>
      <point x="210" y="558"/>
      <point x="147" y="558" type="curve"/>
      <point x="138" y="558"/>
      <point x="99" y="555"/>
      <point x="78" y="549" type="curve"/>
      <point x="85" y="531"/>
      <point x="85" y="503"/>
      <point x="85" y="483" type="curve"/>
      <point x="85" y="39" type="line" smooth="yes"/>
      <point x="85" y="18"/>
      <point x="95" y="0"/>
      <point x="124" y="0" type="curve"/>
    </contour>
    <contour>
      <point x="526" y="46" type="move" name="imatra"/>
    </contour>
    <contour>
      <point x="487" y="548" type="move" name="top"/>
    </contour>
  </outline>
</glyph>
<glyph name="nna-tamil" format="1">
  <advance width="1744"/>
  <unicode hex="0BA3"/>
  <outline>
    <contour>
      <point x="292" y="-15" type="curve"/>
      <point x="398" y="-15"/>
      <point x="499" y="32"/>
      <point x="499" y="167" type="curve"/>
      <point x="499" y="265"/>
      <point x="446" y="347"/>
      <point x="329" y="347" type="curve"/>
      <point x="226" y="347"/>
      <point x="173" y="286"/>
      <point x="173" y="168" type="curve"/>
      <point x="173" y="124"/>
      <point x="185" y="69"/>
      <point x="217" y="31" type="curve"/>
      <point x="159" y="43"/>
      <point x="108" y="107"/>
      <point x="108" y="228" type="curve"/>
      <point x="108" y="448"/>
      <point x="279" y="511"/>
      <point x="450" y="511" type="curve"/>
      <point x="606" y="511"/>
      <point x="764" y="456"/>
      <point x="764" y="200" type="curve"/>
      <point x="764" y="132"/>
      <point x="752" y="74"/>
      <point x="690" y="74" type="curve"/>
      <point x="652" y="74"/>
      <point x="618" y="96"/>
      <point x="618" y="202" type="curve"/>
      <point x="618" y="463"/>
      <point x="793" y="513"/>
      <point x="937" y="513" type="curve"/>
      <point x="1062" y="513"/>
      <point x="1179" y="458"/>
      <point x="1179" y="207" type="curve"/>
      <point x="1179" y="132"/>
      <point x="1168" y="74"/>
      <point x="1105" y="74" type="curve"/>
      <point x="1067" y="74"/>
      <point x="1033" y="96"/>
      <point x="1033" y="201" type="curve"/>
      <point x="1033" y="467"/>
      <point x="1238" y="500"/>
      <point x="1362" y="500" type="curve"/>
      <point x="1688" y="500" type="line" smooth="yes"/>
      <point x="1715" y="500"/>
      <point x="1741" y="500"/>
      <point x="1741" y="525" type="curve"/>
      <point x="1741" y="531"/>
      <point x="1740" y="540"/>
      <point x="1736" y="548" type="curve"/>
      <point x="1375" y="548" type="line" smooth="yes"/>
      <point x="1139" y="548"/>
      <point x="978" y="439"/>
      <point x="978" y="197" type="curve"/>
      <point x="978" y="54"/>
      <point x="1037" y="-15"/>
      <point x="1144" y="-15" type="curve"/>
      <point x="1264" y="-15"/>
      <point x="1329" y="76"/>
      <point x="1329" y="218" type="curve"/>
      <point x="1329" y="425"/>
      <point x="1194" y="562"/>
      <point x="952" y="562" type="curve"/>
      <point x="719" y="562"/>
      <point x="563" y="436"/>
      <point x="563" y="198" type="curve"/>
      <point x="563" y="54"/>
      <point x="622" y="-15"/>
      <point x="728" y="-15" type="curve"/>
      <point x="849" y="-15"/>
      <point x="914" y="79"/>
      <point x="914" y="209" type="curve"/>
      <point x="914" y="425"/>
      <point x="740" y="562"/>
      <point x="463" y="562" type="curve"/>
      <point x="210" y="562"/>
      <point x="45" y="456"/>
      <point x="45" y="237" type="curve"/>
      <point x="45" y="57"/>
      <point x="155" y="-15"/>
    </contour>
    <contour>
      <point x="290" y="31" type="curve"/>
      <point x="250" y="31"/>
      <point x="230" y="77"/>
      <point x="230" y="156" type="curve"/>
      <point x="230" y="236"/>
      <point x="251" y="290"/>
      <point x="292" y="290" type="curve"/>
      <point x="335" y="290"/>
      <point x="349" y="232"/>
      <point x="349" y="161" type="curve"/>
      <point x="349" y="69"/>
      <point x="326" y="31"/>
    </contour>
    <contour>
      <point x="1509" y="-10" type="curve"/>
      <point x="1541" y="-10"/>
      <point x="1569" y="-2"/>
      <point x="1593" y="15" type="curve"/>
      <point x="1584" y="36"/>
      <point x="1574" y="88"/>
      <point x="1574" y="167" type="curve"/>
      <point x="1574" y="514" type="line"/>
      <point x="1428" y="508" type="line"/>
      <point x="1428" y="103" type="line" smooth="yes"/>
      <point x="1428" y="9"/>
      <point x="1459" y="-10"/>
    </contour>
    <contour>
      <point x="1510" y="548" type="move" name="imatra"/>
    </contour>
    <contour>
      <point x="941" y="548" type="move" name="top"/>
    </contour>
  </outline>
</glyph>
<glyph name="pa-tamil" format="1">
  <advance width="862"/>
  <unicode hex="0BAA"/>
  <outline>
    <contour>
      <point x="124" y="0" type="curve"/>
      <point x="738" y="0" type="line" smooth="yes"/>
      <point x="767" y="0"/>
      <point x="777" y="18"/>
      <point x="777" y="39" type="curve"/>
      <point x="777" y="492" type="line" smooth="yes"/>
      <point x="777" y="537"/>
      <point x="756" y="558"/>
      <point x="693" y="558" type="curve"/>
      <point x="684" y="558"/>
      <point x="645" y="555"/>
      <point x="624" y="549" type="curve"/>
      <point x="631" y="531"/>
      <point x="631" y="503"/>
      <point x="631" y="483" type="curve"/>
      <point x="631" y="48" type="line"/>
      <point x="231" y="48" type="line"/>
      <point x="231" y="492" type="line" smooth="yes"/>
      <point x="231" y="537"/>
      <point x="210" y="558"/>
      <point x="147" y="558" type="curve"/>
      <point x="138" y="558"/>
      <point x="99" y="555"/>
      <point x="78" y="549" type="curve"/>
      <point x="85" y="531"/>
      <point x="85" y="503"/>
      <point x="85" y="483" type="curve"/>
      <point x="85" y="39" type="line" smooth="yes"/>
      <point x="85" y="18"/>
      <point x="95" y="0"/>
    </contour>
    <contour>
      <point x="755" y="548" type="move" name="imatra"/>
    </contour>
    <contour>
      <point x="450" y="548" type="move" name="top"/>
    </contour>
  </outline>
</glyph>
<glyph name="ya-tamil" format="1">
  <advance width="1065"/>
  <unicode hex="0BAF"/>
  <outline>
    <contour>
      <point x="231" y="197" type="curve"/>
      <point x="231" y="492" type="line" smooth="yes"/>
      <point x="231" y="531"/>
      <point x="212" y="558"/>
      <point x="154" y="558" type="curve"/>
      <point x="134" y="558"/>
      <point x="99" y="555"/>
      <point x="78" y="549" type="curve"/>
      <point x="85" y="531"/>
      <point x="85" y="503"/>
      <point x="85" y="483" type="curve"/>
      <point x="85" y="165" type="line" smooth="yes"/>
      <point x="85" y="38"/>
      <point x="144" y="-15"/>
      <point x="264" y="-15" type="curve"/>
      <point x="335" y="-15"/>
      <point x="404" y="4"/>
      <point x="465" y="103" type="curve"/>
      <point x="442" y="153" type="line"/>
      <point x="407" y="94"/>
      <point x="375" y="62"/>
      <point x="313" y="62" type="curve"/>
      <point x="240" y="62"/>
      <point x="231" y="107"/>
    </contour>
    <contour>
      <point x="980" y="39" type="curve"/>
      <point x="980" y="492" type="line"/>
      <point x="980" y="532"/>
      <point x="961" y="558"/>
      <point x="904" y="558" type="curve"/>
      <point x="884" y="558"/>
      <point x="848" y="555"/>
      <point x="827" y="549" type="curve"/>
      <point x="834" y="531"/>
      <point x="834" y="503"/>
      <point x="834" y="483" type="curve"/>
      <point x="834" y="43" type="line"/>
      <point x="560" y="43" type="line"/>
      <point x="560" y="492" type="line" smooth="yes"/>
      <point x="560" y="532"/>
      <point x="541" y="558"/>
      <point x="484" y="558" type="curve"/>
      <point x="464" y="558"/>
      <point x="428" y="555"/>
      <point x="407" y="549" type="curve"/>
      <point x="414" y="531"/>
      <point x="414" y="503"/>
      <point x="414" y="483" type="curve"/>
      <point x="414" y="39" type="line" smooth="yes"/>
      <point x="414" y="18"/>
      <point x="424" y="0"/>
      <point x="453" y="0" type="curve"/>
      <point x="941" y="0" type="line" smooth="yes"/>
      <point x="970" y="0"/>
      <point x="980" y="18"/>
    </contour>
    <contour>
      <point x="864" y="548" type="move" name="imatra"/>
    </contour>
    <contour>
      <point x="485" y="548" type="move" name="top"/>
    </contour>
  </outline>
</glyph>
<glyph name="ra-tamil" format="1">
  <advance width="677"/>
  <unicode hex="0BB0"/>
  <outline>
    <contour>
      <point x="116" y="-196" type="curve"/>
      <point x="235" y="-196"/>
      <point x="507" y="-137"/>
      <point x="505" y="135" type="curve"/>
      <point x="503" y="515" type="line"/>
      <point x="357" y="509" type="line"/>
      <point x="357" y="149" type="line" smooth="yes"/>
      <point x="357" y="-53"/>
      <point x="246" y="-106"/>
      <point x="123" y="-146" type="curve"/>
      <point x="104" y="-152"/>
      <point x="91" y="-155"/>
      <point x="78" y="-154" type="curve"/>
      <point x="79" y="-175"/>
      <point x="93" y="-196"/>
    </contour>
    <contour>
      <point x="83" y="509" type="line"/>
      <point x="83" y="0" type="line"/>
      <point x="137" y="0" type="line"/>
      <point x="137" y="515" type="line"/>
    </contour>
    <contour>
      <point x="83" y="548" type="line"/>
      <point x="83" y="500" type="line"/>
      <point x="621" y="500" type="line" smooth="yes"/>
      <point x="648" y="500"/>
      <point x="674" y="499"/>
      <point x="674" y="525" type="curve"/>
      <point x="674" y="531"/>
      <point x="673" y="540"/>
      <point x="669" y="548" type="curve"/>
    </contour>
    <contour>
      <point x="439" y="548" type="move" name="imatra"/>
    </contour>
    <contour>
      <point x="284" y="548" type="move" name="top"/>
    </contour>
  </outline>
</glyph>
<glyph name="la-tamil" format="1">
  <advance width="1006"/>
  <unicode hex="0BB2"/>
  <outline>
    <contour>
      <point x="289" y="-14" type="curve"/>
      <point x="399" y="-14"/>
      <point x="499" y="31"/>
      <point x="499" y="172" type="curve"/>
      <point x="499" y="262"/>
      <point x="458" y="343"/>
      <point x="336" y="344" type="curve"/>
      <point x="223" y="345"/>
      <point x="172" y="278"/>
      <point x="172" y="174" type="curve"/>
      <point x="172" y="123"/>
      <point x="184" y="64"/>
      <point x="217" y="32" type="curve"/>
      <point x="159" y="46"/>
      <point x="108" y="98"/>
      <point x="108" y="237" type="curve"/>
      <point x="108" y="443"/>
      <point x="220" y="514"/>
      <point x="356" y="514" type="curve"/>
      <point x="547" y="514"/>
      <point x="548" y="373"/>
      <point x="548" y="217" type="curve"/>
      <point x="548" y="113"/>
      <point x="571" y="-15"/>
      <point x="734" y="-15" type="curve"/>
      <point x="939" y="-15"/>
      <point x="961" y="192"/>
      <point x="961" y="300" type="curve"/>
      <point x="961" y="485"/>
      <point x="894" y="563"/>
      <point x="830" y="563" type="curve"/>
      <point x="781" y="563"/>
      <point x="764" y="517"/>
      <point x="770" y="505" type="curve"/>
      <point x="822" y="482"/>
      <point x="900" y="441"/>
      <point x="900" y="284" type="curve"/>
      <point x="900" y="170"/>
      <point x="860" y="52"/>
      <point x="773" y="52" type="curve"/>
      <point x="677" y="52"/>
      <point x="697" y="194"/>
      <point x="693" y="297" type="curve"/>
      <point x="686" y="501"/>
      <point x="591" y="563"/>
      <point x="408" y="563" type="curve"/>
      <point x="164" y="563"/>
      <point x="45" y="454"/>
      <point x="45" y="249" type="curve"/>
      <point x="45" y="50"/>
      <point x="156" y="-14"/>
    </contour>
    <contour>
      <point x="290" y="32" type="curve"/>
      <point x="250" y="32"/>
      <point x="230" y="78"/>
      <point x="230" y="157" type="curve"/>
      <point x="230" y="237"/>
      <point x="251" y="291"/>
      <point x="292" y="291" type="curve"/>
      <point x="335" y="291"/>
      <point x="349" y="233"/>
      <point x="349" y="162" type="curve"/>
      <point x="349" y="70"/>
      <point x="326" y="32"/>
    </contour>
    <contour>
      <point x="834" y="548" type="move" name="imatra"/>
    </contour>
    <contour>
      <point x="426" y="548" type="move" name="top"/>
    </contour>
  </outline>
</glyph>
<glyph name="llla-tamil" format="1">
  <advance width="926"/>
  <unicode hex="0BB4"/>
  <outline>
    <contour>
      <point x="224" y="-313" type="curve"/>
      <point x="363" y="-313"/>
      <point x="403" y="-205"/>
      <point x="502" y="-205" type="curve"/>
      <point x="745" y="-205" type="line"/>
      <point x="745" y="-154" type="line"/>
      <point x="678" y="-154" type="line" smooth="yes"/>
      <point x="598" y="-154"/>
      <point x="587" y="-101"/>
      <point x="587" y="-18" type="curve"/>
      <point x="587" y="0" type="line"/>
      <point x="669" y="0" type="line" smooth="yes"/>
      <point x="830" y="0"/>
      <point x="876" y="116"/>
      <point x="876" y="251" type="curve"/>
      <point x="876" y="440"/>
      <point x="783" y="563"/>
      <point x="614" y="563" type="curve"/>
      <point x="509" y="563"/>
      <point x="441" y="516"/>
      <point x="441" y="368" type="curve"/>
      <point x="441" y="48" type="line"/>
      <point x="246" y="48" type="line"/>
      <point x="246" y="492" type="line" smooth="yes"/>
      <point x="246" y="532"/>
      <point x="231" y="558"/>
      <point x="171" y="558" type="curve"/>
      <point x="150" y="558"/>
      <point x="114" y="555"/>
      <point x="93" y="549" type="curve"/>
      <point x="100" y="531"/>
      <point x="100" y="503"/>
      <point x="100" y="483" type="curve"/>
      <point x="100" y="39" type="line" smooth="yes"/>
      <point x="100" y="18"/>
      <point x="110" y="0"/>
      <point x="139" y="0" type="curve"/>
      <point x="441" y="0" type="line"/>
      <point x="441" y="-18" type="line" smooth="yes"/>
      <point x="441" y="-88"/>
      <point x="445" y="-139"/>
      <point x="480" y="-154" type="curve"/>
      <point x="410" y="-159"/>
      <point x="329" y="-260"/>
      <point x="233" y="-260" type="curve"/>
      <point x="192" y="-260"/>
      <point x="176" y="-242"/>
      <point x="176" y="-221" type="curve"/>
      <point x="176" y="-202"/>
      <point x="188" y="-190"/>
      <point x="208" y="-187" type="curve"/>
      <point x="215" y="-186"/>
      <point x="225" y="-186"/>
      <point x="234" y="-189" type="curve"/>
      <point x="242" y="-178"/>
      <point x="245" y="-166"/>
      <point x="245" y="-154" type="curve"/>
      <point x="245" y="-120"/>
      <point x="219" y="-86"/>
      <point x="169" y="-86" type="curve"/>
      <point x="120" y="-86"/>
      <point x="78" y="-119"/>
      <point x="78" y="-181" type="curve"/>
      <point x="78" y="-222"/>
      <point x="97" y="-313"/>
    </contour>
    <contour>
      <point x="653" y="48" type="curve"/>
      <point x="587" y="48" type="line"/>
      <point x="587" y="385" type="line" smooth="yes"/>
      <point x="587" y="481"/>
      <point x="598" y="507"/>
      <point x="650" y="507" type="curve"/>
      <point x="741" y="507"/>
      <point x="821" y="425"/>
      <point x="821" y="239" type="curve"/>
      <point x="821" y="113"/>
      <point x="785" y="48"/>
    </contour>
    <contour>
      <point x="705" y="548" type="move" name="imatra"/>
    </contour>
    <contour>
      <point x="636" y="548" type="move" name="top"/>
    </contour>
  </outline>
</glyph>
<glyph name="va-tamil" format="1">
  <advance width="1138"/>
  <unicode hex="0BB5"/>
  <outline>
    <contour>
      <point x="289" y="-15" type="curve"/>
      <point x="399" y="-18"/>
      <point x="499" y="29"/>
      <point x="499" y="167" type="curve"/>
      <point x="499" y="265"/>
      <point x="446" y="347"/>
      <point x="328" y="347" type="curve"/>
      <point x="226" y="347"/>
      <point x="173" y="285"/>
      <point x="173" y="169" type="curve"/>
      <point x="173" y="124"/>
      <point x="181" y="71"/>
      <point x="217" y="31" type="curve"/>
      <point x="159" y="44"/>
      <point x="108" y="102"/>
      <point x="108" y="230" type="curve"/>
      <point x="108" y="445"/>
      <point x="250" y="511"/>
      <point x="388" y="511" type="curve"/>
      <point x="562" y="511"/>
      <point x="617" y="406"/>
      <point x="617" y="275" type="curve"/>
      <point x="617" y="167"/>
      <point x="580" y="77"/>
      <point x="507" y="37" type="curve"/>
      <point x="507" y="0" type="line"/>
      <point x="1052" y="0" type="line"/>
      <point x="1053" y="482" type="line" smooth="yes"/>
      <point x="1053" y="522"/>
      <point x="1034" y="548"/>
      <point x="977" y="548" type="curve"/>
      <point x="957" y="548"/>
      <point x="921" y="545"/>
      <point x="900" y="539" type="curve"/>
      <point x="907" y="521"/>
      <point x="907" y="493"/>
      <point x="907" y="473" type="curve"/>
      <point x="906" y="48" type="line"/>
      <point x="684" y="48" type="line"/>
      <point x="736" y="93"/>
      <point x="767" y="173"/>
      <point x="767" y="264" type="curve"/>
      <point x="767" y="455"/>
      <point x="626" y="563"/>
      <point x="409" y="563" type="curve"/>
      <point x="191" y="563"/>
      <point x="45" y="454"/>
      <point x="45" y="239" type="curve"/>
      <point x="45" y="53"/>
      <point x="155" y="-15"/>
    </contour>
    <contour>
      <point x="290" y="31" type="curve"/>
      <point x="250" y="28"/>
      <point x="230" y="74"/>
      <point x="230" y="156" type="curve"/>
      <point x="230" y="236"/>
      <point x="251" y="290"/>
      <point x="292" y="290" type="curve"/>
      <point x="335" y="290"/>
      <point x="349" y="232"/>
      <point x="349" y="161" type="curve"/>
      <point x="349" y="66"/>
      <point x="326" y="28"/>
    </contour>
    <contour>
      <point x="996" y="548" type="move" name="imatra"/>
    </contour>
    <contour>
      <point x="480" y="548" type="move" name="top"/>
    </contour>
  </outline>
</glyph>
<glyph name="sha-tamil" format="1">
  <advance width="1245"/>
  <unicode hex="0BB6"/>
  <outline>
    <contour>
      <point x="312" y="-15" type="curve"/>
      <point x="377" y="-15"/>
      <point x="548" y="14"/>
      <point x="550" y="189" type="curve"/>
      <point x="553" y="520" type="line"/>
      <point x="404" y="520" type="line"/>
      <point x="404" y="196" type="line" smooth="yes"/>
      <point x="404" y="89"/>
      <point x="372" y="56"/>
      <point x="320" y="56" type="curve"/>
      <point x="246" y="56"/>
      <point x="235" y="112"/>
      <point x="234" y="214" type="curve"/>
      <point x="232" y="482" type="line" smooth="yes"/>
      <point x="232" y="527"/>
      <point x="211" y="548"/>
      <point x="148" y="548" type="curve"/>
      <point x="139" y="548"/>
      <point x="99" y="545"/>
      <point x="78" y="539" type="curve"/>
      <point x="85" y="521"/>
      <point x="85" y="493"/>
      <point x="85" y="473" type="curve"/>
      <point x="88" y="208" type="line" smooth="yes"/>
      <point x="89" y="104"/>
      <point x="117" y="-15"/>
    </contour>
    <contour>
      <point x="913" y="-15" type="curve"/>
      <point x="975" y="-15"/>
      <point x="1146" y="14"/>
      <point x="1148" y="189" type="curve"/>
      <point x="1151" y="520" type="line"/>
      <point x="1002" y="520" type="line"/>
      <point x="1002" y="196" type="line" smooth="yes"/>
      <point x="1002" y="89"/>
      <point x="970" y="56"/>
      <point x="921" y="56" type="curve"/>
      <point x="852" y="56"/>
      <point x="841" y="112"/>
      <point x="840" y="214" type="curve"/>
      <point x="838" y="548" type="line"/>
      <point x="691" y="548" type="line"/>
      <point x="694" y="208" type="line" smooth="yes"/>
      <point x="695" y="104"/>
      <point x="723" y="-15"/>
    </contour>
    <contour>
      <point x="404" y="500" type="line"/>
      <point x="1151" y="500" type="line"/>
      <point x="1151" y="548" type="line"/>
      <point x="404" y="548" type="line"/>
    </contour>
    <contour>
      <point x="1046" y="548" type="move" name="imatra"/>
    </contour>
    <contour>
      <point x="621" y="548" type="move" name="top"/>
    </contour>
  </outline>
</glyph>
<glyph name="aaMatra-tamil" format="1">
  <advance width="687"/>
  <unicode hex="0BBE"/>
  <outline>
    <contour>
      <point x="451" y="-9" type="curve"/>
      <point x="482" y="-9"/>
      <point x="510" y="-1"/>
      <point x="534" y="16" type="curve"/>
      <point x="523" y="46"/>
      <point x="515" y="73"/>
      <point x="515" y="159" type="curve"/>
      <point x="515" y="515" type="line"/>
      <point x="369" y="509" type="line"/>
      <point x="369" y="95" type="line" smooth="yes"/>
      <point x="369" y="10"/>
      <point x="400" y="-9"/>
    </contour>
    <contour>
      <point x="95" y="509" type="line"/>
      <point x="95" y="0" type="line"/>
      <point x="149" y="0" type="line"/>
      <point x="149" y="515" type="line"/>
    </contour>
    <contour>
      <point x="95" y="548" type="line"/>
      <point x="95" y="501" type="line"/>
      <point x="635" y="500" type="line" smooth="yes"/>
      <point x="662" y="500"/>
      <point x="684" y="500"/>
      <point x="684" y="525" type="curve"/>
      <point x="684" y="531"/>
      <point x="682" y="538"/>
      <point x="680" y="547" type="curve"/>
    </contour>
    <contour>
      <point x="438" y="548" type="move" name="imatra"/>
    </contour>
    <contour>
      <point x="297" y="548" type="move" name="top"/>
    </contour>
  </outline>
</glyph>
<glyph name="iiMatra-tamil" format="1">
  <advance width="600"/>
  <unicode hex="0BC0"/>
  <outline>
    <contour>
      <point x="345" y="528" type="curve"/>
      <point x="359" y="548" type="line"/>
      <point x="292" y="556"/>
      <point x="220" y="602"/>
      <point x="220" y="715" type="curve"/>
      <point x="220" y="800"/>
      <point x="273" y="834"/>
      <point x="353" y="836" type="curve"/>
      <point x="359" y="836"/>
      <point x="365" y="835"/>
      <point x="371" y="835" type="curve"/>
      <point x="319" y="819"/>
      <point x="304" y="777"/>
      <point x="304" y="739" type="curve"/>
      <point x="304" y="685"/>
      <point x="338" y="636"/>
      <point x="418" y="636" type="curve"/>
      <point x="483" y="636"/>
      <point x="540" y="668"/>
      <point x="540" y="741" type="curve"/>
      <point x="540" y="810"/>
      <point x="489" y="875"/>
      <point x="353" y="876" type="curve"/>
      <point x="234" y="877"/>
      <point x="117" y="827"/>
      <point x="117" y="701" type="curve"/>
      <point x="117" y="592"/>
      <point x="198" y="528"/>
    </contour>
    <contour>
      <point x="447" y="671" type="curve"/>
      <point x="418" y="671"/>
      <point x="400" y="696"/>
      <point x="400" y="736" type="curve"/>
      <point x="400" y="775"/>
      <point x="417" y="802"/>
      <point x="449" y="802" type="curve"/>
      <point x="479" y="802"/>
      <point x="492" y="777"/>
      <point x="492" y="739" type="curve"/>
      <point x="492" y="695"/>
      <point x="475" y="671"/>
    </contour>
    <contour>
      <point x="346" y="548" type="move" name="_imatra"/>
    </contour>
  </outline>
</glyph>
<glyph name="uuMatra-tamil" format="1">
  <advance width="639"/>
  <unicode hex="0BC2"/>
  <outline>
    <contour>
      <point x="205" y="274" type="curve"/>
      <point x="269" y="274"/>
      <point x="358" y="302"/>
      <point x="358" y="411" type="curve"/>
      <point x="358" y="482"/>
      <point x="321" y="548"/>
      <point x="193" y="548" type="curve"/>
      <point x="183" y="548" type="line"/>
      <point x="230" y="592"/>
      <point x="290" y="603"/>
      <point x="332" y="603" type="curve"/>
      <point x="437" y="603"/>
      <point x="476" y="532"/>
      <point x="476" y="440" type="curve"/>
      <point x="476" y="381"/>
      <point x="460" y="313"/>
      <point x="402" y="294" type="curve"/>
      <point x="401" y="284"/>
      <point x="411" y="270"/>
      <point x="426" y="270" type="curve"/>
      <point x="453" y="270"/>
      <point x="579" y="315"/>
      <point x="579" y="459" type="curve"/>
      <point x="579" y="597"/>
      <point x="464" y="652"/>
      <point x="345" y="652" type="curve"/>
      <point x="248" y="652"/>
      <point x="172" y="615"/>
      <point x="117" y="548" type="curve"/>
      <point x="-185" y="548" type="line"/>
      <point x="-185" y="500" type="line"/>
      <point x="88" y="500" type="line"/>
      <point x="77" y="475"/>
      <point x="71" y="448"/>
      <point x="71" y="417" type="curve"/>
      <point x="71" y="337"/>
      <point x="110" y="274"/>
    </contour>
    <contour>
      <point x="176" y="316" type="curve"/>
      <point x="141" y="316"/>
      <point x="119" y="345"/>
      <point x="119" y="400" type="curve"/>
      <point x="119" y="454"/>
      <point x="140" y="488"/>
      <point x="178" y="488" type="curve"/>
      <point x="214" y="488"/>
      <point x="231" y="458"/>
      <point x="231" y="404" type="curve"/>
      <point x="231" y="343"/>
      <point x="210" y="316"/>
    </contour>
  </outline>
</glyph>
<glyph name="eMatra-tamil" format="1">
  <advance width="856"/>
  <unicode hex="0BC6"/>
  <outline>
    <contour>
      <point x="325" y="-15" type="curve"/>
      <point x="433" y="-15"/>
      <point x="533" y="32"/>
      <point x="533" y="168" type="curve"/>
      <point x="533" y="265"/>
      <point x="481" y="347"/>
      <point x="361" y="347" type="curve"/>
      <point x="258" y="347"/>
      <point x="202" y="291"/>
      <point x="202" y="171" type="curve"/>
      <point x="202" y="125"/>
      <point x="210" y="75"/>
      <point x="250" y="32" type="curve"/>
      <point x="176" y="44"/>
      <point x="112" y="106"/>
      <point x="112" y="339" type="curve"/>
      <point x="112" y="477"/>
      <point x="140" y="724"/>
      <point x="408" y="724" type="curve"/>
      <point x="599" y="724"/>
      <point x="615" y="566"/>
      <point x="615" y="494" type="curve"/>
      <point x="615" y="103" type="line" smooth="yes"/>
      <point x="615" y="9"/>
      <point x="646" y="-10"/>
      <point x="697" y="-10" type="curve"/>
      <point x="728" y="-10"/>
      <point x="756" y="-2"/>
      <point x="780" y="15" type="curve"/>
      <point x="769" y="45"/>
      <point x="761" y="72"/>
      <point x="761" y="167" type="curve"/>
      <point x="761" y="495" type="line" smooth="yes"/>
      <point x="761" y="679"/>
      <point x="643" y="764"/>
      <point x="428" y="764" type="curve"/>
      <point x="83" y="764"/>
      <point x="50" y="495"/>
      <point x="50" y="342" type="curve"/>
      <point x="50" y="54"/>
      <point x="179" y="-15"/>
    </contour>
    <contour>
      <point x="324" y="31" type="curve"/>
      <point x="284" y="31"/>
      <point x="264" y="77"/>
      <point x="264" y="156" type="curve"/>
      <point x="264" y="236"/>
      <point x="285" y="290"/>
      <point x="326" y="290" type="curve"/>
      <point x="369" y="290"/>
      <point x="383" y="232"/>
      <point x="383" y="161" type="curve"/>
      <point x="383" y="69"/>
      <point x="360" y="31"/>
    </contour>
  </outline>
</glyph>
<glyph name="eeMatra-tamil" format="1">
  <advance width="710"/>
  <unicode hex="0BC7"/>
  <outline>
    <contour>
      <point x="438" y="-15" type="curve"/>
      <point x="546" y="-15"/>
      <point x="646" y="32"/>
      <point x="646" y="168" type="curve"/>
      <point x="646" y="255"/>
      <point x="594" y="337"/>
      <point x="474" y="337" type="curve"/>
      <point x="374" y="337"/>
      <point x="320" y="281"/>
      <point x="320" y="171" type="curve"/>
      <point x="320" y="125"/>
      <point x="327" y="75"/>
      <point x="363" y="32" type="curve"/>
      <point x="305" y="44"/>
      <point x="204" y="100"/>
      <point x="204" y="388" type="curve"/>
      <point x="204" y="652"/>
      <point x="304" y="707"/>
      <point x="362" y="719" type="curve"/>
      <point x="326" y="676"/>
      <point x="319" y="626"/>
      <point x="319" y="580" type="curve"/>
      <point x="319" y="470"/>
      <point x="373" y="414"/>
      <point x="473" y="414" type="curve"/>
      <point x="593" y="414"/>
      <point x="645" y="496"/>
      <point x="645" y="583" type="curve"/>
      <point x="645" y="719"/>
      <point x="545" y="766"/>
      <point x="437" y="766" type="curve"/>
      <point x="222" y="766"/>
      <point x="64" y="667"/>
      <point x="64" y="376" type="curve"/>
      <point x="64" y="80"/>
      <point x="223" y="-15"/>
    </contour>
    <contour>
      <point x="437" y="31" type="curve"/>
      <point x="397" y="31"/>
      <point x="377" y="77"/>
      <point x="377" y="156" type="curve"/>
      <point x="377" y="226"/>
      <point x="398" y="280"/>
      <point x="439" y="280" type="curve"/>
      <point x="482" y="280"/>
      <point x="496" y="222"/>
      <point x="496" y="161" type="curve"/>
      <point x="496" y="69"/>
      <point x="473" y="31"/>
    </contour>
    <contour>
      <point x="438" y="471" type="curve"/>
      <point x="397" y="471"/>
      <point x="376" y="525"/>
      <point x="376" y="595" type="curve"/>
      <point x="376" y="674"/>
      <point x="396" y="720"/>
      <point x="436" y="720" type="curve"/>
      <point x="472" y="720"/>
      <point x="495" y="682"/>
      <point x="495" y="590" type="curve"/>
      <point x="495" y="529"/>
      <point x="481" y="471"/>
    </contour>
  </outline>
</glyph>
<glyph name="ooMatra-tamil" format="1">
  <advance width="2020"/>
  <unicode hex="0BCB"/>
  <outline>
    <contour>
      <point x="1190" y="422" type="curve"/>
      <point x="1205" y="422"/>
      <point x="1217" y="434"/>
      <point x="1217" y="450" type="curve"/>
      <point x="1217" y="466"/>
      <point x="1205" y="478"/>
      <point x="1190" y="478" type="curve"/>
      <point x="1174" y="478"/>
      <point x="1162" y="466"/>
      <point x="1162" y="450" type="curve"/>
      <point x="1162" y="434"/>
      <point x="1174" y="422"/>
    </contour>
    <contour>
      <point x="824" y="57" type="curve"/>
      <point x="840" y="57"/>
      <point x="852" y="69"/>
      <point x="852" y="85" type="curve"/>
      <point x="852" y="101"/>
      <point x="840" y="113"/>
      <point x="824" y="113" type="curve"/>
      <point x="809" y="113"/>
      <point x="797" y="101"/>
      <point x="797" y="85" type="curve"/>
      <point x="797" y="69"/>
      <point x="809" y="57"/>
    </contour>
    <contour>
      <point x="769" y="140" type="curve"/>
      <point x="785" y="140"/>
      <point x="797" y="152"/>
      <point x="797" y="168" type="curve"/>
      <point x="797" y="184"/>
      <point x="785" y="196"/>
      <point x="769" y="196" type="curve"/>
      <point x="754" y="196"/>
      <point x="742" y="184"/>
      <point x="742" y="168" type="curve"/>
      <point x="742" y="152"/>
      <point x="754" y="140"/>
    </contour>
    <contour>
      <point x="909" y="0" type="curve"/>
      <point x="925" y="0"/>
      <point x="937" y="12"/>
      <point x="937" y="28" type="curve"/>
      <point x="937" y="44"/>
      <point x="925" y="56"/>
      <point x="909" y="56" type="curve"/>
      <point x="894" y="56"/>
      <point x="882" y="44"/>
      <point x="882" y="28" type="curve"/>
      <point x="882" y="12"/>
      <point x="894" y="0"/>
    </contour>
    <contour>
      <point x="748" y="238" type="curve"/>
      <point x="764" y="238"/>
      <point x="776" y="250"/>
      <point x="776" y="266" type="curve"/>
      <point x="776" y="282"/>
      <point x="764" y="294"/>
      <point x="748" y="294" type="curve"/>
      <point x="733" y="294"/>
      <point x="721" y="282"/>
      <point x="721" y="266" type="curve"/>
      <point x="721" y="250"/>
      <point x="733" y="238"/>
    </contour>
    <contour>
      <point x="1007" y="-19" type="curve"/>
      <point x="1022" y="-19"/>
      <point x="1034" y="-7"/>
      <point x="1034" y="9" type="curve"/>
      <point x="1034" y="25"/>
      <point x="1022" y="37"/>
      <point x="1007" y="37" type="curve"/>
      <point x="991" y="37"/>
      <point x="979" y="25"/>
      <point x="979" y="9" type="curve"/>
      <point x="979" y="-7"/>
      <point x="991" y="-19"/>
    </contour>
    <contour>
      <point x="1105" y="0" type="curve"/>
      <point x="1120" y="0"/>
      <point x="1132" y="12"/>
      <point x="1132" y="28" type="curve"/>
      <point x="1132" y="44"/>
      <point x="1120" y="56"/>
      <point x="1105" y="56" type="curve"/>
      <point x="1089" y="56"/>
      <point x="1077" y="44"/>
      <point x="1077" y="28" type="curve"/>
      <point x="1077" y="12"/>
      <point x="1089" y="0"/>
    </contour>
    <contour>
      <point x="767" y="338" type="curve"/>
      <point x="783" y="338"/>
      <point x="795" y="350"/>
      <point x="795" y="366" type="curve"/>
      <point x="795" y="382"/>
      <point x="783" y="394"/>
      <point x="767" y="394" type="curve"/>
      <point x="752" y="394"/>
      <point x="740" y="382"/>
      <point x="740" y="366" type="curve"/>
      <point x="740" y="350"/>
      <point x="752" y="338"/>
    </contour>
    <contour>
      <point x="1190" y="57" type="curve"/>
      <point x="1205" y="57"/>
      <point x="1217" y="69"/>
      <point x="1217" y="85" type="curve"/>
      <point x="1217" y="101"/>
      <point x="1205" y="113"/>
      <point x="1190" y="113" type="curve"/>
      <point x="1174" y="113"/>
      <point x="1162" y="101"/>
      <point x="1162" y="85" type="curve"/>
      <point x="1162" y="69"/>
      <point x="1174" y="57"/>
    </contour>
    <contour>
      <point x="824" y="422" type="curve"/>
      <point x="840" y="422"/>
      <point x="852" y="434"/>
      <point x="852" y="450" type="curve"/>
      <point x="852" y="466"/>
      <point x="840" y="478"/>
      <point x="824" y="478" type="curve"/>
      <point x="809" y="478"/>
      <point x="797" y="466"/>
      <point x="797" y="450" type="curve"/>
      <point x="797" y="434"/>
      <point x="809" y="422"/>
    </contour>
    <contour>
      <point x="1245" y="140" type="curve"/>
      <point x="1260" y="140"/>
      <point x="1272" y="152"/>
      <point x="1272" y="168" type="curve"/>
      <point x="1272" y="184"/>
      <point x="1260" y="196"/>
      <point x="1245" y="196" type="curve"/>
      <point x="1229" y="196"/>
      <point x="1217" y="184"/>
      <point x="1217" y="168" type="curve"/>
      <point x="1217" y="152"/>
      <point x="1229" y="140"/>
    </contour>
    <contour>
      <point x="907" y="478" type="curve"/>
      <point x="923" y="478"/>
      <point x="935" y="490"/>
      <point x="935" y="506" type="curve"/>
      <point x="935" y="522"/>
      <point x="923" y="534"/>
      <point x="907" y="534" type="curve"/>
      <point x="892" y="534"/>
      <point x="880" y="522"/>
      <point x="880" y="506" type="curve"/>
      <point x="880" y="490"/>
      <point x="892" y="478"/>
    </contour>
    <contour>
      <point x="1007" y="497" type="curve"/>
      <point x="1022" y="497"/>
      <point x="1034" y="509"/>
      <point x="1034" y="525" type="curve"/>
      <point x="1034" y="541"/>
      <point x="1022" y="553"/>
      <point x="1007" y="553" type="curve"/>
      <point x="991" y="553"/>
      <point x="979" y="541"/>
      <point x="979" y="525" type="curve"/>
      <point x="979" y="509"/>
      <point x="991" y="497"/>
    </contour>
    <contour>
      <point x="1266" y="238" type="curve"/>
      <point x="1281" y="238"/>
      <point x="1293" y="250"/>
      <point x="1293" y="266" type="curve"/>
      <point x="1293" y="282"/>
      <point x="1281" y="294"/>
      <point x="1266" y="294" type="curve"/>
      <point x="1250" y="294"/>
      <point x="1238" y="282"/>
      <point x="1238" y="266" type="curve"/>
      <point x="1238" y="250"/>
      <point x="1250" y="238"/>
    </contour>
    <contour>
      <point x="1107" y="478" type="curve"/>
      <point x="1122" y="478"/>
      <point x="1134" y="490"/>
      <point x="1134" y="506" type="curve"/>
      <point x="1134" y="522"/>
      <point x="1122" y="534"/>
      <point x="1107" y="534" type="curve"/>
      <point x="1091" y="534"/>
      <point x="1079" y="522"/>
      <point x="1079" y="506" type="curve"/>
      <point x="1079" y="490"/>
      <point x="1091" y="478"/>
    </contour>
    <contour>
      <point x="1247" y="338" type="curve"/>
      <point x="1262" y="338"/>
      <point x="1274" y="350"/>
      <point x="1274" y="366" type="curve"/>
      <point x="1274" y="382"/>
      <point x="1262" y="394"/>
      <point x="1247" y="394" type="curve"/>
      <point x="1231" y="394"/>
      <point x="1219" y="382"/>
      <point x="1219" y="366" type="curve"/>
      <point x="1219" y="350"/>
      <point x="1231" y="338"/>
    </contour>
    <component base="eeMatra-tamil"/>
    <component base="aaMatra-tamil" xOffset="1316"/>
  </outline>
</glyph>
<glyph name="auMatra-tamil" format="1">
  <advance width="2702"/>
  <unicode hex="0BCC"/>
  <outline>
    <contour>
      <point x="944" y="57" type="curve"/>
      <point x="960" y="57"/>
      <point x="972" y="69"/>
      <point x="972" y="85" type="curve"/>
      <point x="972" y="101"/>
      <point x="960" y="113"/>
      <point x="944" y="113" type="curve"/>
      <point x="929" y="113"/>
      <point x="917" y="101"/>
      <point x="917" y="85" type="curve"/>
      <point x="917" y="69"/>
      <point x="929" y="57"/>
    </contour>
    <contour>
      <point x="889" y="140" type="curve"/>
      <point x="905" y="140"/>
      <point x="917" y="152"/>
      <point x="917" y="168" type="curve"/>
      <point x="917" y="184"/>
      <point x="905" y="196"/>
      <point x="889" y="196" type="curve"/>
      <point x="874" y="196"/>
      <point x="862" y="184"/>
      <point x="862" y="168" type="curve"/>
      <point x="862" y="152"/>
      <point x="874" y="140"/>
    </contour>
    <contour>
      <point x="1029" y="0" type="curve"/>
      <point x="1045" y="0"/>
      <point x="1057" y="12"/>
      <point x="1057" y="28" type="curve"/>
      <point x="1057" y="44"/>
      <point x="1045" y="56"/>
      <point x="1029" y="56" type="curve"/>
      <point x="1014" y="56"/>
      <point x="1002" y="44"/>
      <point x="1002" y="28" type="curve"/>
      <point x="1002" y="12"/>
      <point x="1014" y="0"/>
    </contour>
    <contour>
      <point x="868" y="238" type="curve"/>
      <point x="884" y="238"/>
      <point x="896" y="250"/>
      <point x="896" y="266" type="curve"/>
      <point x="896" y="282"/>
      <point x="884" y="294"/>
      <point x="868" y="294" type="curve"/>
      <point x="853" y="294"/>
      <point x="841" y="282"/>
      <point x="841" y="266" type="curve"/>
      <point x="841" y="250"/>
      <point x="853" y="238"/>
    </contour>
    <contour>
      <point x="1127" y="-19" type="curve"/>
      <point x="1142" y="-19"/>
      <point x="1154" y="-7"/>
      <point x="1154" y="9" type="curve"/>
      <point x="1154" y="25"/>
      <point x="1142" y="37"/>
      <point x="1127" y="37" type="curve"/>
      <point x="1111" y="37"/>
      <point x="1099" y="25"/>
      <point x="1099" y="9" type="curve"/>
      <point x="1099" y="-7"/>
      <point x="1111" y="-19"/>
    </contour>
    <contour>
      <point x="1225" y="0" type="curve"/>
      <point x="1240" y="0"/>
      <point x="1252" y="12"/>
      <point x="1252" y="28" type="curve"/>
      <point x="1252" y="44"/>
      <point x="1240" y="56"/>
      <point x="1225" y="56" type="curve"/>
      <point x="1209" y="56"/>
      <point x="1197" y="44"/>
      <point x="1197" y="28" type="curve"/>
      <point x="1197" y="12"/>
      <point x="1209" y="0"/>
    </contour>
    <contour>
      <point x="887" y="338" type="curve"/>
      <point x="903" y="338"/>
      <point x="915" y="350"/>
      <point x="915" y="366" type="curve"/>
      <point x="915" y="382"/>
      <point x="903" y="394"/>
      <point x="887" y="394" type="curve"/>
      <point x="872" y="394"/>
      <point x="860" y="382"/>
      <point x="860" y="366" type="curve"/>
      <point x="860" y="350"/>
      <point x="872" y="338"/>
    </contour>
    <contour>
      <point x="1310" y="57" type="curve"/>
      <point x="1325" y="57"/>
      <point x="1337" y="69"/>
      <point x="1337" y="85" type="curve"/>
      <point x="1337" y="101"/>
      <point x="1325" y="113"/>
      <point x="1310" y="113" type="curve"/>
      <point x="1294" y="113"/>
      <point x="1282" y="101"/>
      <point x="1282" y="85" type="curve"/>
      <point x="1282" y="69"/>
      <point x="1294" y="57"/>
    </contour>
    <contour>
      <point x="944" y="422" type="curve"/>
      <point x="960" y="422"/>
      <point x="972" y="434"/>
      <point x="972" y="450" type="curve"/>
      <point x="972" y="466"/>
      <point x="960" y="478"/>
      <point x="944" y="478" type="curve"/>
      <point x="929" y="478"/>
      <point x="917" y="466"/>
      <point x="917" y="450" type="curve"/>
      <point x="917" y="434"/>
      <point x="929" y="422"/>
    </contour>
    <contour>
      <point x="1365" y="140" type="curve"/>
      <point x="1380" y="140"/>
      <point x="1392" y="152"/>
      <point x="1392" y="168" type="curve"/>
      <point x="1392" y="184"/>
      <point x="1380" y="196"/>
      <point x="1365" y="196" type="curve"/>
      <point x="1349" y="196"/>
      <point x="1337" y="184"/>
      <point x="1337" y="168" type="curve"/>
      <point x="1337" y="152"/>
      <point x="1349" y="140"/>
    </contour>
    <contour>
      <point x="1027" y="478" type="curve"/>
      <point x="1043" y="478"/>
      <point x="1055" y="490"/>
      <point x="1055" y="506" type="curve"/>
      <point x="1055" y="522"/>
      <point x="1043" y="534"/>
      <point x="1027" y="534" type="curve"/>
      <point x="1012" y="534"/>
      <point x="1000" y="522"/>
      <point x="1000" y="506" type="curve"/>
      <point x="1000" y="490"/>
      <point x="1012" y="478"/>
    </contour>
    <contour>
      <point x="1127" y="497" type="curve"/>
      <point x="1142" y="497"/>
      <point x="1154" y="509"/>
      <point x="1154" y="525" type="curve"/>
      <point x="1154" y="541"/>
      <point x="1142" y="553"/>
      <point x="1127" y="553" type="curve"/>
      <point x="1111" y="553"/>
      <point x="1099" y="541"/>
      <point x="1099" y="525" type="curve"/>
      <point x="1099" y="509"/>
      <point x="1111" y="497"/>
    </contour>
    <contour>
      <point x="1386" y="238" type="curve"/>
      <point x="1401" y="238"/>
      <point x="1413" y="250"/>
      <point x="1413" y="266" type="curve"/>
      <point x="1413" y="282"/>
      <point x="1401" y="294"/>
      <point x="1386" y="294" type="curve"/>
      <point x="1370" y="294"/>
      <point x="1358" y="282"/>
      <point x="1358" y="266" type="curve"/>
      <point x="1358" y="250"/>
      <point x="1370" y="238"/>
    </contour>
    <contour>
      <point x="1227" y="478" type="curve"/>
      <point x="1242" y="478"/>
      <point x="1254" y="490"/>
      <point x="1254" y="506" type="curve"/>
      <point x="1254" y="522"/>
      <point x="1242" y="534"/>
      <point x="1227" y="534" type="curve"/>
      <point x="1211" y="534"/>
      <point x="1199" y="522"/>
      <point x="1199" y="506" type="curve"/>
      <point x="1199" y="490"/>
      <point x="1211" y="478"/>
    </contour>
    <contour>
      <point x="1367" y="338" type="curve"/>
      <point x="1382" y="338"/>
      <point x="1394" y="350"/>
      <point x="1394" y="366" type="curve"/>
      <point x="1394" y="382"/>
      <point x="1382" y="394"/>
      <point x="1367" y="394" type="curve"/>
      <point x="1351" y="394"/>
      <point x="1339" y="382"/>
      <point x="1339" y="366" type="curve"/>
      <point x="1339" y="350"/>
      <point x="1351" y="338"/>
    </contour>
    <contour>
      <point x="1310" y="422" type="curve"/>
      <point x="1325" y="422"/>
      <point x="1337" y="434"/>
      <point x="1337" y="450" type="curve"/>
      <point x="1337" y="466"/>
      <point x="1325" y="478"/>
      <point x="1310" y="478" type="curve"/>
      <point x="1294" y="478"/>
      <point x="1282" y="466"/>
      <point x="1282" y="450" type="curve"/>
      <point x="1282" y="434"/>
      <point x="1294" y="422"/>
    </contour>
    <component base="lla-tamil" xOffset="1460"/>
    <component base="eMatra-tamil"/>
  </outline>
</glyph>
<glyph name="halant-tamil" format="1">
  <advance width="0"/>
  <unicode hex="0BCD"/>
  <outline>
    <contour>
      <point x="-1" y="692" type="curve"/>
      <point x="32" y="692"/>
      <point x="59" y="718"/>
      <point x="59" y="752" type="curve"/>
      <point x="59" y="786"/>
      <point x="32" y="812"/>
      <point x="-1" y="812" type="curve"/>
      <point x="-35" y="812"/>
      <point x="-62" y="786"/>
      <point x="-62" y="752" type="curve"/>
      <point x="-62" y="718"/>
      <point x="-35" y="692"/>
    </contour>
    <contour>
      <point x="-2" y="548" type="move" name="_top"/>
    </contour>
  </outline>
</glyph>
<glyph name="om-tamil" format="1">
  <advance width="823"/>
  <unicode hex="0BD0"/>
  <outline>
    <contour>
      <point x="322" y="-189" type="curve"/>
      <point x="493" y="-189"/>
      <point x="638" y="-90"/>
      <point x="713" y="71" type="curve"/>
      <point x="702" y="79" type="line"/>
      <point x="662" y="63"/>
      <point x="624" y="63"/>
      <point x="603" y="63" type="curve"/>
      <point x="516" y="63"/>
      <point x="445" y="109"/>
      <point x="445" y="208" type="curve"/>
      <point x="445" y="280"/>
      <point x="483" y="317"/>
      <point x="502" y="323" type="curve"/>
      <point x="489" y="310"/>
      <point x="481" y="281"/>
      <point x="481" y="256" type="curve"/>
      <point x="481" y="192"/>
      <point x="532" y="145"/>
      <point x="616" y="145" type="curve"/>
      <point x="723" y="145"/>
      <point x="783" y="221"/>
      <point x="783" y="316" type="curve"/>
      <point x="783" y="488"/>
      <point x="586" y="563"/>
      <point x="393" y="563" type="curve"/>
      <point x="137" y="563"/>
      <point x="45" y="430"/>
      <point x="45" y="298" type="curve"/>
      <point x="45" y="221"/>
      <point x="76" y="164"/>
      <point x="173" y="164" type="curve"/>
      <point x="256" y="164"/>
      <point x="305" y="205"/>
      <point x="305" y="269" type="curve"/>
      <point x="305" y="326"/>
      <point x="265" y="366"/>
      <point x="182" y="366" type="curve"/>
      <point x="150" y="366"/>
      <point x="114" y="360"/>
      <point x="88" y="332" type="curve"/>
      <point x="97" y="276" type="line"/>
      <point x="97" y="412"/>
      <point x="195" y="502"/>
      <point x="375" y="502" type="curve"/>
      <point x="515" y="502"/>
      <point x="633" y="449"/>
      <point x="633" y="313" type="curve"/>
      <point x="633" y="259"/>
      <point x="616" y="215"/>
      <point x="584" y="215" type="curve"/>
      <point x="566" y="215"/>
      <point x="545" y="228"/>
      <point x="545" y="277" type="curve"/>
      <point x="545" y="295"/>
      <point x="548" y="331"/>
      <point x="562" y="343" type="curve"/>
      <point x="553" y="359" type="line"/>
      <point x="476" y="359"/>
      <point x="346" y="295"/>
      <point x="346" y="153" type="curve"/>
      <point x="346" y="28"/>
      <point x="448" y="-38"/>
      <point x="554" y="-38" type="curve"/>
      <point x="567" y="-38"/>
      <point x="582" y="-37"/>
      <point x="597" y="-34" type="curve"/>
      <point x="567" y="-76"/>
      <point x="481" y="-127"/>
      <point x="344" y="-127" type="curve"/>
      <point x="202" y="-127"/>
      <point x="179" y="-72"/>
      <point x="179" y="6" type="curve"/>
      <point x="179" y="42"/>
      <point x="184" y="64"/>
      <point x="195" y="86" type="curve"/>
      <point x="188" y="97"/>
      <point x="178" y="103"/>
      <point x="162" y="103" type="curve"/>
      <point x="129" y="103"/>
      <point x="75" y="75"/>
      <point x="75" y="-4" type="curve"/>
      <point x="75" y="-106"/>
      <point x="166" y="-189"/>
    </contour>
    <contour>
      <point x="241" y="-76" type="curve"/>
      <point x="346" y="-76" type="line" smooth="yes"/>
      <point x="389" y="-76"/>
      <point x="389" y="-41"/>
      <point x="389" y="-23" type="curve"/>
      <point x="389" y="10"/>
      <point x="378" y="45"/>
      <point x="336" y="45" type="curve"/>
      <point x="316" y="45"/>
      <point x="295" y="37"/>
      <point x="295" y="7" type="curve"/>
      <point x="295" y="-54" type="line"/>
      <point x="263" y="-54" type="line"/>
      <point x="263" y="38" type="line" smooth="yes"/>
      <point x="263" y="41"/>
      <point x="257" y="43"/>
      <point x="246" y="43" type="curve"/>
      <point x="238" y="43"/>
      <point x="234" y="42"/>
      <point x="228" y="41" type="curve"/>
      <point x="230" y="37"/>
      <point x="230" y="31"/>
      <point x="230" y="26" type="curve"/>
      <point x="230" y="-61" type="line" smooth="yes"/>
      <point x="230" y="-69"/>
      <point x="228" y="-76"/>
    </contour>
    <contour>
      <point x="344" y="-54" type="curve"/>
      <point x="329" y="-54" type="line"/>
      <point x="329" y="9" type="line" smooth="yes"/>
      <point x="329" y="21"/>
      <point x="334" y="23"/>
      <point x="338" y="23" type="curve"/>
      <point x="349" y="23"/>
      <point x="355" y="6"/>
      <point x="355" y="-24" type="curve"/>
      <point x="355" y="-41"/>
      <point x="353" y="-54"/>
    </contour>
    <contour>
      <point x="292" y="58" type="curve"/>
      <point x="300" y="58"/>
      <point x="306" y="64"/>
      <point x="306" y="72" type="curve"/>
      <point x="306" y="80"/>
      <point x="300" y="86"/>
      <point x="292" y="86" type="curve"/>
      <point x="284" y="86"/>
      <point x="278" y="80"/>
      <point x="278" y="72" type="curve"/>
      <point x="278" y="64"/>
      <point x="284" y="58"/>
    </contour>
    <contour>
      <point x="151" y="202" type="curve"/>
      <point x="117" y="202"/>
      <point x="108" y="233"/>
      <point x="108" y="263" type="curve"/>
      <point x="108" y="300"/>
      <point x="122" y="327"/>
      <point x="152" y="327" type="curve"/>
      <point x="187" y="327"/>
      <point x="195" y="292"/>
      <point x="195" y="265" type="curve"/>
      <point x="195" y="242"/>
      <point x="189" y="202"/>
    </contour>
  </outline>
</glyph>
<glyph name="zero-tamil" format="1">
  <advance width="638"/>
  <unicode hex="0BE6"/>
  <outline>
    <contour>
      <point x="319" y="-15" type="curve"/>
      <point x="482" y="-15"/>
      <point x="578" y="93"/>
      <point x="578" y="275" type="curve"/>
      <point x="578" y="457"/>
      <point x="482" y="565"/>
      <point x="319" y="565" type="curve"/>
      <point x="156" y="565"/>
      <point x="60" y="457"/>
      <point x="60" y="275" type="curve"/>
      <point x="60" y="93"/>
      <point x="156" y="-15"/>
    </contour>
    <contour>
      <point x="320" y="33" type="curve"/>
      <point x="245" y="33"/>
      <point x="210" y="108"/>
      <point x="210" y="275" type="curve"/>
      <point x="210" y="435"/>
      <point x="242" y="517"/>
      <point x="313" y="517" type="curve"/>
      <point x="378" y="517"/>
      <point x="428" y="447"/>
      <point x="428" y="269" type="curve"/>
      <point x="428" y="122"/>
      <point x="401" y="33"/>
    </contour>
  </outline>
</glyph>
<glyph name="one-tamil" format="1">
  <advance width="879"/>
  <unicode hex="0BE7"/>
  <outline>
    <contour>
      <point x="266" y="-15" type="curve"/>
      <point x="406" y="-15"/>
      <point x="531" y="69"/>
      <point x="531" y="240" type="curve"/>
      <point x="531" y="532" type="line"/>
      <point x="385" y="531" type="line"/>
      <point x="385" y="230" type="line" smooth="yes"/>
      <point x="385" y="147"/>
      <point x="362" y="55"/>
      <point x="245" y="55" type="curve"/>
      <point x="172" y="55"/>
      <point x="112" y="90"/>
      <point x="112" y="174" type="curve"/>
      <point x="112" y="240"/>
      <point x="150" y="296"/>
      <point x="260" y="296" type="curve"/>
      <point x="555" y="296" type="line" smooth="yes"/>
      <point x="666" y="296"/>
      <point x="689" y="220"/>
      <point x="689" y="179" type="curve"/>
      <point x="689" y="107"/>
      <point x="668" y="55"/>
      <point x="550" y="14" type="curve"/>
      <point x="550" y="-2"/>
      <point x="571" y="-18"/>
      <point x="587" y="-18" type="curve"/>
      <point x="700" y="-18"/>
      <point x="839" y="48"/>
      <point x="839" y="176" type="curve"/>
      <point x="839" y="269"/>
      <point x="768" y="344"/>
      <point x="566" y="344" type="curve"/>
      <point x="239" y="344" type="line" smooth="yes"/>
      <point x="110" y="344"/>
      <point x="50" y="266"/>
      <point x="50" y="173" type="curve"/>
      <point x="50" y="70"/>
      <point x="126" y="-15"/>
    </contour>
    <contour>
      <point x="715" y="548" type="curve"/>
      <point x="203" y="548" type="line" smooth="yes"/>
      <point x="179" y="548"/>
      <point x="165" y="537"/>
      <point x="165" y="507" type="curve"/>
      <point x="165" y="301" type="line"/>
      <point x="209" y="306" type="line"/>
      <point x="209" y="482" type="line" smooth="yes"/>
      <point x="209" y="496"/>
      <point x="217" y="499"/>
      <point x="226" y="499" type="curve"/>
      <point x="671" y="500" type="line" smooth="yes"/>
      <point x="698" y="500"/>
      <point x="720" y="501"/>
      <point x="720" y="527" type="curve"/>
      <point x="720" y="533"/>
      <point x="719" y="540"/>
    </contour>
  </outline>
</glyph>
<glyph name="two-tamil" format="1">
  <advance width="1063"/>
  <unicode hex="0BE8"/>
  <outline>
    <contour>
      <point x="1053" y="48" type="line"/>
      <point x="229" y="48" type="line"/>
      <point x="142" y="48"/>
      <point x="135" y="72"/>
      <point x="135" y="92" type="curve"/>
      <point x="135" y="130"/>
      <point x="162" y="142"/>
      <point x="244" y="143" type="curve"/>
      <point x="464" y="146"/>
      <point x="571" y="205"/>
      <point x="571" y="363" type="curve"/>
      <point x="571" y="518"/>
      <point x="436" y="563"/>
      <point x="330" y="563" type="curve"/>
      <point x="161" y="563"/>
      <point x="85" y="479"/>
      <point x="85" y="343" type="curve"/>
      <point x="85" y="285"/>
      <point x="129" y="197"/>
      <point x="201" y="179" type="curve"/>
      <point x="188" y="178"/>
      <point x="177" y="178"/>
      <point x="166" y="178" type="curve"/>
      <point x="94" y="177"/>
      <point x="60" y="134"/>
      <point x="60" y="88" type="curve"/>
      <point x="60" y="38"/>
      <point x="88" y="0"/>
      <point x="225" y="0" type="curve"/>
      <point x="1053" y="0" type="line"/>
    </contour>
    <contour>
      <point x="142" y="343" type="curve"/>
      <point x="142" y="474"/>
      <point x="237" y="495"/>
      <point x="283" y="495" type="curve"/>
      <point x="350" y="495"/>
      <point x="421" y="463"/>
      <point x="421" y="343" type="curve"/>
      <point x="421" y="250"/>
      <point x="380" y="195"/>
      <point x="283" y="193" type="curve"/>
      <point x="183" y="191"/>
      <point x="142" y="280"/>
    </contour>
  </outline>
</glyph>
<glyph name="three-tamil" format="1">
  <advance width="970"/>
  <unicode hex="0BE9"/>
  <outline>
    <contour>
      <point x="356" y="39" type="curve"/>
      <point x="356" y="0" type="line"/>
      <point x="960" y="0" type="line"/>
      <point x="960" y="43" type="line"/>
      <point x="678" y="43" type="line"/>
      <point x="778" y="77"/>
      <point x="819" y="167"/>
      <point x="819" y="249" type="curve"/>
      <point x="819" y="351"/>
      <point x="756" y="417"/>
      <point x="644" y="417" type="curve"/>
      <point x="491" y="417"/>
      <point x="457" y="292"/>
      <point x="448" y="229" type="curve"/>
      <point x="487" y="167" type="line"/>
      <point x="489" y="261"/>
      <point x="534" y="322"/>
      <point x="598" y="322" type="curve"/>
      <point x="648" y="322"/>
      <point x="669" y="286"/>
      <point x="669" y="237" type="curve"/>
      <point x="669" y="99"/>
      <point x="502" y="51"/>
    </contour>
    <contour>
      <point x="78" y="509" type="line"/>
      <point x="78" y="0" type="line"/>
      <point x="128" y="0" type="line"/>
      <point x="128" y="515" type="line"/>
    </contour>
    <contour>
      <point x="406" y="140" type="curve"/>
      <point x="448" y="140"/>
      <point x="472" y="152"/>
      <point x="487" y="167" type="curve"/>
      <point x="487" y="514" type="line"/>
      <point x="339" y="508" type="line"/>
      <point x="339" y="161" type="line" smooth="yes"/>
      <point x="339" y="148"/>
      <point x="371" y="140"/>
    </contour>
    <contour>
      <point x="78" y="548" type="line"/>
      <point x="78" y="500" type="line"/>
      <point x="622" y="500" type="line" smooth="yes"/>
      <point x="649" y="500"/>
      <point x="671" y="501"/>
      <point x="671" y="527" type="curve"/>
      <point x="671" y="533"/>
      <point x="670" y="540"/>
      <point x="666" y="548" type="curve"/>
    </contour>
  </outline>
</glyph>
<glyph name="four-tamil" format="1">
  <advance width="805"/>
  <unicode hex="0BEA"/>
  <outline>
    <contour>
      <point x="266" y="-15" type="curve"/>
      <point x="406" y="-15"/>
      <point x="531" y="66"/>
      <point x="531" y="230" type="curve"/>
      <point x="531" y="530" type="line"/>
      <point x="385" y="529" type="line"/>
      <point x="385" y="220" type="line" smooth="yes"/>
      <point x="385" y="142"/>
      <point x="362" y="55"/>
      <point x="245" y="55" type="curve"/>
      <point x="172" y="55"/>
      <point x="112" y="90"/>
      <point x="112" y="174" type="curve"/>
      <point x="112" y="240"/>
      <point x="150" y="296"/>
      <point x="260" y="296" type="curve"/>
      <point x="696" y="296" type="line" smooth="yes"/>
      <point x="723" y="296"/>
      <point x="745" y="317"/>
      <point x="745" y="344" type="curve"/>
      <point x="745" y="548" type="line"/>
      <point x="701" y="548" type="line"/>
      <point x="701" y="356" type="line" smooth="yes"/>
      <point x="701" y="349"/>
      <point x="696" y="344"/>
      <point x="689" y="344" type="curve"/>
      <point x="239" y="344" type="line" smooth="yes"/>
      <point x="110" y="344"/>
      <point x="50" y="266"/>
      <point x="50" y="173" type="curve"/>
      <point x="50" y="70"/>
      <point x="126" y="-15"/>
    </contour>
    <contour>
      <point x="165" y="507" type="curve"/>
      <point x="165" y="318" type="line"/>
      <point x="209" y="321" type="line"/>
      <point x="209" y="482" type="line" smooth="yes"/>
      <point x="209" y="496"/>
      <point x="217" y="499"/>
      <point x="226" y="499" type="curve"/>
      <point x="600" y="500" type="line" smooth="yes"/>
      <point x="635" y="500"/>
      <point x="654" y="501"/>
      <point x="654" y="527" type="curve"/>
      <point x="654" y="533"/>
      <point x="653" y="540"/>
      <point x="649" y="548" type="curve"/>
      <point x="203" y="548" type="line" smooth="yes"/>
      <point x="179" y="548"/>
      <point x="165" y="537"/>
    </contour>
  </outline>
</glyph>
<glyph name="nine-tamil" format="1">
  <advance width="1239"/>
  <unicode hex="0BEF"/>
  <outline>
    <contour>
      <point x="266" y="-15" type="curve"/>
      <point x="406" y="-15"/>
      <point x="531" y="69"/>
      <point x="531" y="240" type="curve"/>
      <point x="531" y="532" type="line"/>
      <point x="385" y="531" type="line"/>
      <point x="385" y="230" type="line" smooth="yes"/>
      <point x="385" y="147"/>
      <point x="362" y="55"/>
      <point x="245" y="55" type="curve"/>
      <point x="172" y="55"/>
      <point x="112" y="90"/>
      <point x="112" y="174" type="curve"/>
      <point x="112" y="240"/>
      <point x="150" y="296"/>
      <point x="260" y="296" type="curve"/>
      <point x="671" y="296" type="line" smooth="yes"/>
      <point x="782" y="296"/>
      <point x="805" y="214"/>
      <point x="805" y="169" type="curve"/>
      <point x="805" y="125"/>
      <point x="793" y="54"/>
      <point x="728" y="54" type="curve"/>
      <point x="687" y="54"/>
      <point x="651" y="88"/>
      <point x="651" y="160" type="curve"/>
      <point x="651" y="265"/>
      <point x="730" y="366"/>
      <point x="876" y="366" type="curve"/>
      <point x="989" y="366"/>
      <point x="1046" y="284"/>
      <point x="1046" y="198" type="curve"/>
      <point x="1046" y="106"/>
      <point x="1025" y="55"/>
      <point x="979" y="9" type="curve"/>
      <point x="979" y="-7"/>
      <point x="994" y="-15"/>
      <point x="1006" y="-15" type="curve"/>
      <point x="1088" y="-15"/>
      <point x="1189" y="80"/>
      <point x="1189" y="199" type="curve"/>
      <point x="1189" y="358"/>
      <point x="1076" y="425"/>
      <point x="908" y="425" type="curve"/>
      <point x="718" y="425"/>
      <point x="589" y="313"/>
      <point x="589" y="160" type="curve"/>
      <point x="589" y="43"/>
      <point x="655" y="-15"/>
      <point x="743" y="-15" type="curve"/>
      <point x="872" y="-15"/>
      <point x="951" y="60"/>
      <point x="951" y="166" type="curve"/>
      <point x="951" y="265"/>
      <point x="881" y="344"/>
      <point x="682" y="344" type="curve"/>
      <point x="239" y="344" type="line" smooth="yes"/>
      <point x="110" y="344"/>
      <point x="50" y="266"/>
      <point x="50" y="173" type="curve"/>
      <point x="50" y="70"/>
      <point x="126" y="-15"/>
    </contour>
    <contour>
      <point x="165" y="507" type="curve"/>
      <point x="165" y="301" type="line"/>
      <point x="209" y="306" type="line"/>
      <point x="209" y="482" type="line" smooth="yes"/>
      <point x="209" y="496"/>
      <point x="217" y="499"/>
      <point x="226" y="499" type="curve"/>
      <point x="645" y="500" type="line" smooth="yes"/>
      <point x="672" y="500"/>
      <point x="694" y="501"/>
      <point x="694" y="527" type="curve"/>
      <point x="694" y="533"/>
      <point x="693" y="540"/>
      <point x="689" y="548" type="curve"/>
      <point x="203" y="548" type="line" smooth="yes"/>
      <point x="179" y="548"/>
      <point x="165" y="537"/>
    </contour>
  </outline>
</glyph>
<glyph name="onethousand-tamil" format="1">
  <advance width="1085"/>
  <unicode hex="0BF2"/>
  <outline>
    <contour>
      <point x="267" y="-15" type="curve"/>
      <point x="406" y="-15"/>
      <point x="531" y="69"/>
      <point x="531" y="240" type="curve"/>
      <point x="531" y="532" type="line"/>
      <point x="385" y="531" type="line"/>
      <point x="385" y="230" type="line" smooth="yes"/>
      <point x="385" y="147"/>
      <point x="362" y="55"/>
      <point x="245" y="55" type="curve"/>
      <point x="172" y="55"/>
      <point x="112" y="91"/>
      <point x="112" y="171" type="curve"/>
      <point x="112" y="236"/>
      <point x="150" y="286"/>
      <point x="260" y="286" type="curve"/>
      <point x="983" y="286" type="line" smooth="yes"/>
      <point x="1010" y="286"/>
      <point x="1020" y="318"/>
      <point x="1012" y="334" type="curve"/>
      <point x="239" y="334" type="line" smooth="yes"/>
      <point x="110" y="334"/>
      <point x="50" y="262"/>
      <point x="50" y="171" type="curve"/>
      <point x="50" y="71"/>
      <point x="126" y="-15"/>
    </contour>
    <contour>
      <point x="590" y="-247" type="curve"/>
      <point x="617" y="-247"/>
      <point x="634" y="-233"/>
      <point x="637" y="-209" type="curve"/>
      <point x="623" y="-193"/>
      <point x="622" y="-185"/>
      <point x="623" y="-175" type="curve"/>
      <point x="624" y="-163"/>
      <point x="631" y="-144"/>
      <point x="676" y="-144" type="curve"/>
      <point x="784" y="-144" type="line" smooth="yes"/>
      <point x="953" y="-144"/>
      <point x="1065" y="-107"/>
      <point x="1065" y="27" type="curve"/>
      <point x="1065" y="122"/>
      <point x="1008" y="171"/>
      <point x="867" y="171" type="curve"/>
      <point x="665" y="171" type="line" smooth="yes"/>
      <point x="574" y="171"/>
      <point x="532" y="121"/>
      <point x="532" y="60" type="curve"/>
      <point x="532" y="-4"/>
      <point x="579" y="-57"/>
      <point x="675" y="-57" type="curve"/>
      <point x="770" y="-57"/>
      <point x="865" y="-4"/>
      <point x="865" y="110" type="curve"/>
      <point x="864" y="300" type="line"/>
      <point x="741" y="299" type="line"/>
      <point x="741" y="90" type="line" smooth="yes"/>
      <point x="741" y="48"/>
      <point x="728" y="-2"/>
      <point x="664" y="-2" type="curve"/>
      <point x="624" y="-2"/>
      <point x="592" y="17"/>
      <point x="592" y="60" type="curve"/>
      <point x="592" y="96"/>
      <point x="615" y="126"/>
      <point x="678" y="126" type="curve"/>
      <point x="849" y="126" type="line" smooth="yes"/>
      <point x="933" y="126"/>
      <point x="947" y="87"/>
      <point x="947" y="31" type="curve"/>
      <point x="947" y="-66"/>
      <point x="905" y="-99"/>
      <point x="771" y="-99" type="curve"/>
      <point x="681" y="-99" type="line" smooth="yes"/>
      <point x="584" y="-99"/>
      <point x="538" y="-135"/>
      <point x="538" y="-190" type="curve"/>
      <point x="538" y="-218"/>
      <point x="550" y="-247"/>
    </contour>
    <contour>
      <point x="165" y="507" type="curve"/>
      <point x="165" y="291" type="line"/>
      <point x="209" y="299" type="line"/>
      <point x="209" y="482" type="line" smooth="yes"/>
      <point x="209" y="496"/>
      <point x="217" y="499"/>
      <point x="226" y="499" type="curve"/>
      <point x="641" y="500" type="line" smooth="yes"/>
      <point x="668" y="500"/>
      <point x="690" y="501"/>
      <point x="690" y="527" type="curve"/>
      <point x="690" y="533"/>
      <point x="689" y="540"/>
      <point x="685" y="548" type="curve"/>
      <point x="203" y="548" type="line" smooth="yes"/>
      <point x="179" y="548"/>
      <point x="165" y="537"/>
    </contour>
  </outline>
</glyph>
<glyph name="month-tamil" format="1">
  <advance width="925"/>
  <unicode hex="0BF4"/>
  <outline>
    <contour>
      <point x="1345" y="785" type="line"/>
      <point x="1345" y="842" type="line"/>
      <point x="1303" y="842" type="line" smooth="yes"/>
      <point x="1198" y="842"/>
      <point x="1175" y="771"/>
      <point x="1171" y="736" type="curve"/>
      <point x="1154" y="797"/>
      <point x="1093" y="849"/>
      <point x="996" y="849" type="curve"/>
      <point x="879" y="849"/>
      <point x="797" y="773"/>
      <point x="797" y="659" type="curve"/>
      <point x="797" y="590"/>
      <point x="827" y="533"/>
      <point x="905" y="533" type="curve"/>
      <point x="965" y="533"/>
      <point x="1032" y="567"/>
      <point x="1025" y="660" type="curve"/>
      <point x="1016" y="775"/>
      <point x="907" y="820"/>
      <point x="801" y="820" type="curve"/>
      <point x="702" y="820"/>
      <point x="625" y="781"/>
      <point x="625" y="686" type="curve"/>
      <point x="625" y="567"/>
      <point x="744" y="509"/>
      <point x="790" y="387" type="curve"/>
      <point x="844" y="384" type="line"/>
      <point x="815" y="498"/>
      <point x="699" y="574"/>
      <point x="699" y="687" type="curve"/>
      <point x="699" y="742"/>
      <point x="727" y="790"/>
      <point x="802" y="790" type="curve"/>
      <point x="880" y="790"/>
      <point x="925" y="739"/>
      <point x="925" y="649" type="curve"/>
      <point x="925" y="613"/>
      <point x="918" y="581"/>
      <point x="886" y="581" type="curve"/>
      <point x="853" y="581"/>
      <point x="837" y="614"/>
      <point x="837" y="658" type="curve"/>
      <point x="837" y="746"/>
      <point x="899" y="815"/>
      <point x="979" y="815" type="curve"/>
      <point x="1054" y="815"/>
      <point x="1100" y="755"/>
      <point x="1100" y="645" type="curve"/>
      <point x="1100" y="543" type="line"/>
      <point x="1196" y="543" type="line"/>
      <point x="1196" y="658" type="line" smooth="yes"/>
      <point x="1196" y="724"/>
      <point x="1202" y="782"/>
      <point x="1300" y="785" type="curve"/>
    </contour>
    <component base="ma-tamil"/>
  </outline>
</glyph>
<glyph name="year-tamil" format="1">
  <advance width="2486"/>
  <unicode hex="0BF5"/>
  <outline>
    <contour>
      <point x="1002" y="-220" type="curve"/>
      <point x="1514" y="-220"/>
      <point x="1892" y="-132"/>
      <point x="1892" y="208" type="curve"/>
      <point x="1892" y="299"/>
      <point x="1865" y="417"/>
      <point x="1725" y="417" type="curve"/>
      <point x="1574" y="417"/>
      <point x="1546" y="281"/>
      <point x="1535" y="215" type="curve"/>
      <point x="1574" y="163" type="line"/>
      <point x="1575" y="230"/>
      <point x="1608" y="322"/>
      <point x="1679" y="322" type="curve"/>
      <point x="1719" y="322"/>
      <point x="1742" y="291"/>
      <point x="1742" y="197" type="curve"/>
      <point x="1742" y="-7"/>
      <point x="1633" y="-169"/>
      <point x="971" y="-169" type="curve"/>
      <point x="515" y="-169"/>
      <point x="189" y="-84"/>
      <point x="189" y="260" type="curve"/>
      <point x="189" y="604"/>
      <point x="514" y="685"/>
      <point x="1035" y="685" type="curve"/>
      <point x="1865" y="685"/>
      <point x="2007" y="510"/>
      <point x="2019" y="217" type="curve"/>
      <point x="2022" y="140"/>
      <point x="2029" y="-15"/>
      <point x="2217" y="-15" type="curve"/>
      <point x="2415" y="-15"/>
      <point x="2436" y="185"/>
      <point x="2436" y="296" type="curve"/>
      <point x="2436" y="487"/>
      <point x="2369" y="563"/>
      <point x="2305" y="563" type="curve"/>
      <point x="2256" y="563"/>
      <point x="2239" y="517"/>
      <point x="2245" y="505" type="curve"/>
      <point x="2297" y="482"/>
      <point x="2375" y="442"/>
      <point x="2375" y="283" type="curve"/>
      <point x="2375" y="171"/>
      <point x="2342" y="52"/>
      <point x="2258" y="52" type="curve"/>
      <point x="2142" y="52"/>
      <point x="2162" y="193"/>
      <point x="2162" y="263" type="curve"/>
      <point x="2162" y="641"/>
      <point x="1704" y="736"/>
      <point x="1081" y="736" type="curve"/>
      <point x="215" y="736"/>
      <point x="50" y="505"/>
      <point x="50" y="266" type="curve"/>
      <point x="50" y="7"/>
      <point x="244" y="-220"/>
    </contour>
    <contour>
      <point x="563" y="31" type="curve"/>
      <point x="523" y="31"/>
      <point x="503" y="77"/>
      <point x="503" y="156" type="curve"/>
      <point x="503" y="236"/>
      <point x="524" y="290"/>
      <point x="565" y="290" type="curve"/>
      <point x="608" y="290"/>
      <point x="622" y="232"/>
      <point x="622" y="161" type="curve"/>
      <point x="622" y="69"/>
      <point x="599" y="31"/>
    </contour>
    <contour>
      <point x="562" y="-15" type="curve"/>
      <point x="672" y="-15"/>
      <point x="772" y="32"/>
      <point x="772" y="167" type="curve"/>
      <point x="772" y="265"/>
      <point x="719" y="347"/>
      <point x="601" y="347" type="curve"/>
      <point x="499" y="347"/>
      <point x="446" y="285"/>
      <point x="446" y="169" type="curve"/>
      <point x="446" y="124"/>
      <point x="454" y="74"/>
      <point x="490" y="31" type="curve"/>
      <point x="432" y="44"/>
      <point x="381" y="100"/>
      <point x="381" y="230" type="curve"/>
      <point x="381" y="445"/>
      <point x="523" y="511"/>
      <point x="661" y="511" type="curve"/>
      <point x="835" y="511"/>
      <point x="890" y="406"/>
      <point x="890" y="275" type="curve"/>
      <point x="890" y="167"/>
      <point x="853" y="77"/>
      <point x="780" y="37" type="curve"/>
      <point x="780" y="0" type="line"/>
      <point x="1198" y="0" type="line"/>
      <point x="1195" y="48" type="line"/>
      <point x="957" y="48" type="line"/>
      <point x="1009" y="93"/>
      <point x="1040" y="173"/>
      <point x="1040" y="264" type="curve"/>
      <point x="1040" y="455"/>
      <point x="899" y="563"/>
      <point x="682" y="563" type="curve"/>
      <point x="464" y="563"/>
      <point x="318" y="454"/>
      <point x="318" y="239" type="curve"/>
      <point x="318" y="51"/>
      <point x="428" y="-15"/>
    </contour>
    <contour>
      <point x="1165" y="509" type="line"/>
      <point x="1165" y="0" type="line"/>
      <point x="1219" y="0" type="line"/>
      <point x="1219" y="515" type="line"/>
    </contour>
    <contour>
      <point x="1508" y="-10" type="curve"/>
      <point x="1541" y="-10"/>
      <point x="1569" y="-2"/>
      <point x="1593" y="15" type="curve"/>
      <point x="1580" y="49"/>
      <point x="1574" y="107"/>
      <point x="1574" y="183" type="curve"/>
      <point x="1574" y="514" type="line"/>
      <point x="1428" y="508" type="line"/>
      <point x="1428" y="103" type="line" smooth="yes"/>
      <point x="1428" y="9"/>
      <point x="1459" y="-10"/>
    </contour>
    <contour>
      <point x="1165" y="500" type="line"/>
      <point x="1706" y="499" type="line"/>
      <point x="1739" y="499"/>
      <point x="1762" y="510"/>
      <point x="1752" y="548" type="curve"/>
      <point x="1165" y="548" type="line"/>
    </contour>
  </outline>
</glyph>
<glyph name="asabove-tamil" format="1">
  <advance width="2020"/>
  <unicode hex="0BF8"/>
  <outline>
    <contour>
      <point x="295" y="-15" type="curve"/>
      <point x="404" y="-15"/>
      <point x="504" y="32"/>
      <point x="504" y="167" type="curve"/>
      <point x="504" y="265"/>
      <point x="451" y="347"/>
      <point x="333" y="347" type="curve"/>
      <point x="231" y="347"/>
      <point x="178" y="285"/>
      <point x="178" y="169" type="curve"/>
      <point x="178" y="124"/>
      <point x="186" y="74"/>
      <point x="222" y="31" type="curve"/>
      <point x="164" y="43"/>
      <point x="113" y="107"/>
      <point x="113" y="225" type="curve"/>
      <point x="113" y="445"/>
      <point x="288" y="511"/>
      <point x="480" y="511" type="curve"/>
      <point x="712" y="511"/>
      <point x="824" y="414"/>
      <point x="824" y="223" type="curve"/>
      <point x="824" y="121"/>
      <point x="792" y="74"/>
      <point x="736" y="74" type="curve"/>
      <point x="676" y="74"/>
      <point x="643" y="128"/>
      <point x="643" y="234" type="curve"/>
      <point x="643" y="433"/>
      <point x="758" y="511"/>
      <point x="897" y="511" type="curve"/>
      <point x="1054" y="511"/>
      <point x="1117" y="412"/>
      <point x="1117" y="274" type="curve"/>
      <point x="1117" y="139"/>
      <point x="1058" y="76"/>
      <point x="1013" y="33" type="curve"/>
      <point x="1020" y="0" type="line"/>
      <point x="1864" y="-1" type="line"/>
      <point x="1864" y="43" type="line"/>
      <point x="1183" y="44" type="line"/>
      <point x="1232" y="88"/>
      <point x="1267" y="160"/>
      <point x="1267" y="265" type="curve"/>
      <point x="1267" y="474"/>
      <point x="1125" y="562"/>
      <point x="930" y="562" type="curve"/>
      <point x="710" y="562"/>
      <point x="580" y="449"/>
      <point x="580" y="225" type="curve"/>
      <point x="580" y="46"/>
      <point x="662" y="-15"/>
      <point x="777" y="-15" type="curve"/>
      <point x="886" y="-15"/>
      <point x="974" y="39"/>
      <point x="974" y="200" type="curve"/>
      <point x="974" y="415"/>
      <point x="819" y="562"/>
      <point x="489" y="562" type="curve"/>
      <point x="206" y="562"/>
      <point x="50" y="453"/>
      <point x="50" y="237" type="curve"/>
      <point x="50" y="56"/>
      <point x="160" y="-15"/>
    </contour>
    <contour>
      <point x="295" y="31" type="curve"/>
      <point x="255" y="31"/>
      <point x="235" y="77"/>
      <point x="235" y="156" type="curve"/>
      <point x="235" y="236"/>
      <point x="256" y="290"/>
      <point x="297" y="290" type="curve"/>
      <point x="340" y="290"/>
      <point x="354" y="232"/>
      <point x="354" y="161" type="curve"/>
      <point x="354" y="69"/>
      <point x="331" y="31"/>
    </contour>
    <contour>
      <point x="1520" y="282" type="curve"/>
      <point x="1520" y="-246" type="line"/>
      <point x="1650" y="-246" type="line"/>
      <point x="1650" y="289" type="line" smooth="yes"/>
      <point x="1650" y="480"/>
      <point x="1600" y="549"/>
      <point x="1493" y="549" type="curve"/>
      <point x="1399" y="549"/>
      <point x="1319" y="496"/>
      <point x="1319" y="377" type="curve"/>
      <point x="1319" y="250"/>
      <point x="1410" y="191"/>
      <point x="1551" y="191" type="curve"/>
      <point x="1776" y="191"/>
      <point x="1816" y="341"/>
      <point x="1846" y="387" type="curve"/>
      <point x="1798" y="411" type="line"/>
      <point x="1740" y="321"/>
      <point x="1700" y="245"/>
      <point x="1551" y="245" type="curve"/>
      <point x="1456" y="245"/>
      <point x="1374" y="276"/>
      <point x="1374" y="382" type="curve"/>
      <point x="1374" y="450"/>
      <point x="1407" y="492"/>
      <point x="1458" y="492" type="curve"/>
      <point x="1508" y="492"/>
      <point x="1520" y="450"/>
    </contour>
    <contour>
      <point x="1798" y="411" type="line"/>
      <point x="1798" y="0" type="line"/>
      <point x="1945" y="0" type="line"/>
      <point x="1945" y="411" type="line"/>
    </contour>
  </outline>
</glyph>
<glyph name="Germandbls" format="1">
  <advance width="648"/>
  <unicode hex="1E9E"/>
  <outline>
    <contour>
      <point x="406" y="-14" type="curve"/>
      <point x="532" y="-14"/>
      <point x="614" y="60"/>
      <point x="614" y="175" type="curve"/>
      <point x="614" y="297"/>
      <point x="527" y="350"/>
      <point x="445" y="374" type="curve"/>
      <point x="515" y="444"/>
      <point x="554" y="548"/>
      <point x="577" y="667" type="curve"/>
      <point x="516" y="712"/>
      <point x="408" y="728"/>
      <point x="333" y="728" type="curve"/>
      <point x="161" y="728"/>
      <point x="61" y="638"/>
      <point x="63" y="394" type="curve"/>
      <point x="64" y="67" type="line" smooth="yes"/>
      <point x="64" y="17"/>
      <point x="102" y="-11"/>
      <point x="142" y="-11" type="curve"/>
      <point x="178" y="-11"/>
      <point x="212" y="10"/>
      <point x="223" y="19" type="curve"/>
      <point x="201" y="69"/>
      <point x="200" y="82"/>
      <point x="199" y="271" type="curve"/>
      <point x="197" y="583"/>
      <point x="202" y="683"/>
      <point x="330" y="683" type="curve"/>
      <point x="368" y="683"/>
      <point x="407" y="676"/>
      <point x="433" y="650" type="curve"/>
      <point x="422" y="569"/>
      <point x="395" y="472"/>
      <point x="322" y="385" type="curve"/>
      <point x="322" y="355" type="line"/>
      <point x="415" y="324"/>
      <point x="467" y="286"/>
      <point x="467" y="156" type="curve"/>
      <point x="467" y="101"/>
      <point x="457" y="30"/>
      <point x="400" y="30" type="curve"/>
      <point x="361" y="30"/>
      <point x="337" y="57"/>
      <point x="341" y="137" type="curve"/>
      <point x="296" y="145"/>
      <point x="266" y="121"/>
      <point x="266" y="79" type="curve"/>
      <point x="266" y="34"/>
      <point x="309" y="-14"/>
    </contour>
  </outline>
</glyph>
<glyph name="ocircumflexacute" format="1">
  <advance width="562"/>
  <unicode hex="1ED1"/>
  <outline>
    <contour>
      <point x="154" y="552" type="curve"/>
      <point x="273" y="634" type="line"/>
      <point x="390" y="552" type="line"/>
      <point x="401" y="552"/>
      <point x="424" y="563"/>
      <point x="425" y="568" type="curve"/>
      <point x="307" y="713" type="line"/>
      <point x="295" y="719"/>
      <point x="250" y="718"/>
      <point x="238" y="713" type="curve"/>
      <point x="120" y="568" type="line"/>
      <point x="121" y="563"/>
      <point x="143" y="553"/>
    </contour>
    <contour>
      <point x="446" y="632" type="curve"/>
      <point x="576" y="758" type="line"/>
      <point x="566" y="768"/>
      <point x="511" y="787"/>
      <point x="481" y="782" type="curve"/>
      <point x="398" y="642" type="line"/>
      <point x="406" y="637"/>
      <point x="430" y="633"/>
    </contour>
    <component base="o"/>
  </outline>
</glyph>
<glyph name="zerowidthjoiner" format="1">
  <advance width="0"/>
  <unicode hex="200D"/>
  <outline>
    <contour>
      <point x="-22" y="538" type="line"/>
      <point x="-22" y="-76" type="line"/>
      <point x="22" y="-76" type="line"/>
      <point x="22" y="538" type="line"/>
      <point x="116" y="440" type="line"/>
      <point x="147" y="471" type="line"/>
      <point x="30" y="587" type="line"/>
      <point x="147" y="704" type="line"/>
      <point x="117" y="733" type="line"/>
      <point x="0" y="617" type="line"/>
      <point x="-116" y="734" type="line"/>
      <point x="-147" y="703" type="line"/>
      <point x="-31" y="587" type="line"/>
      <point x="-145" y="473" type="line"/>
      <point x="-114" y="443" type="line"/>
    </contour>
  </outline>
</glyph>
<glyph name="dagger" format="1">
  <advance width="411"/>
  <unicode hex="2020"/>
  <outline>
    <contour>
      <point x="216" y="-128" type="curve"/>
      <point x="255" y="-128"/>
      <point x="284" y="-108"/>
      <point x="296" y="-98" type="curve"/>
      <point x="278" y="-53"/>
      <point x="276" y="-6"/>
      <point x="276" y="33" type="curve"/>
      <point x="276" y="641" type="line" smooth="yes"/>
      <point x="276" y="685"/>
      <point x="241" y="711"/>
      <point x="196" y="711" type="curve"/>
      <point x="157" y="711"/>
      <point x="128" y="692"/>
      <point x="116" y="681" type="curve"/>
      <point x="133" y="636"/>
      <point x="136" y="589"/>
      <point x="136" y="551" type="curve"/>
      <point x="136" y="-57" type="line" smooth="yes"/>
      <point x="136" y="-102"/>
      <point x="170" y="-128"/>
    </contour>
    <contour>
      <point x="24" y="484" type="curve"/>
      <point x="23" y="451" type="line"/>
      <point x="36" y="453"/>
      <point x="70" y="455"/>
      <point x="83" y="455" type="curve"/>
      <point x="352" y="455" type="line" smooth="yes"/>
      <point x="371" y="455"/>
      <point x="386" y="466"/>
      <point x="387" y="488" type="curve"/>
      <point x="388" y="520" type="line"/>
      <point x="378" y="518"/>
      <point x="283" y="516"/>
      <point x="273" y="516" type="curve"/>
      <point x="60" y="516" type="line" smooth="yes"/>
      <point x="41" y="516"/>
      <point x="25" y="506"/>
    </contour>
  </outline>
</glyph>
<glyph name="bullet" format="1">
  <advance width="391"/>
  <unicode hex="2022"/>
  <outline>
    <contour>
      <point x="196" y="164" type="curve"/>
      <point x="259" y="164"/>
      <point x="311" y="216"/>
      <point x="311" y="280" type="curve"/>
      <point x="311" y="344"/>
      <point x="259" y="395"/>
      <point x="196" y="395" type="curve"/>
      <point x="132" y="395"/>
      <point x="80" y="344"/>
      <point x="80" y="280" type="curve"/>
      <point x="80" y="216"/>
      <point x="132" y="164"/>
    </contour>
  </outline>
</glyph>
<glyph name="foursuperior" format="1">
  <advance width="473"/>
  <unicode hex="2074"/>
  <outline>
    <contour>
      <point x="333" y="222" type="curve"/>
      <point x="365" y="222"/>
      <point x="388" y="239"/>
      <point x="396" y="248" type="curve"/>
      <point x="383" y="286"/>
      <point x="381" y="323"/>
      <point x="381" y="348" type="curve"/>
      <point x="381" y="651" type="line" smooth="yes"/>
      <point x="381" y="690"/>
      <point x="353" y="712"/>
      <point x="316" y="712" type="curve"/>
      <point x="292" y="712"/>
      <point x="264" y="698"/>
      <point x="254" y="685" type="curve"/>
      <point x="33" y="399" type="line" smooth="yes"/>
      <point x="16" y="375"/>
      <point x="32" y="338"/>
      <point x="62" y="336" type="curve"/>
      <point x="442" y="336" type="line"/>
      <point x="457" y="364"/>
      <point x="459" y="392"/>
      <point x="449" y="418" type="curve"/>
      <point x="404" y="404"/>
      <point x="358" y="401"/>
      <point x="313" y="401" type="curve"/>
      <point x="99" y="401" type="line"/>
      <point x="273" y="619" type="line"/>
      <point x="273" y="283" type="line"/>
      <point x="273" y="244"/>
      <point x="299" y="222"/>
    </contour>
  </outline>
</glyph>
<glyph name="threeinferior" format="1">
  <advance width="442"/>
  <unicode hex="2083"/>
  <outline>
    <contour>
      <point x="203" y="-8" type="curve"/>
      <point x="328" y="-8"/>
      <point x="410" y="48"/>
      <point x="410" y="133" type="curve"/>
      <point x="410" y="204"/>
      <point x="345" y="237"/>
      <point x="261" y="248" type="curve"/>
      <point x="332" y="268"/>
      <point x="389" y="315"/>
      <point x="389" y="370" type="curve"/>
      <point x="389" y="466"/>
      <point x="283" y="484"/>
      <point x="212" y="484" type="curve"/>
      <point x="105" y="484"/>
      <point x="48" y="453"/>
      <point x="48" y="397" type="curve"/>
      <point x="48" y="383"/>
      <point x="54" y="342"/>
      <point x="131" y="344" type="curve"/>
      <point x="131" y="394"/>
      <point x="143" y="449"/>
      <point x="204" y="449" type="curve"/>
      <point x="249" y="449"/>
      <point x="264" y="424"/>
      <point x="264" y="379" type="curve"/>
      <point x="264" y="336"/>
      <point x="230" y="274"/>
      <point x="116" y="267" type="curve"/>
      <point x="116" y="229" type="line"/>
      <point x="201" y="230"/>
      <point x="284" y="202"/>
      <point x="284" y="122" type="curve"/>
      <point x="284" y="64"/>
      <point x="247" y="25"/>
      <point x="196" y="25" type="curve"/>
      <point x="110" y="25"/>
      <point x="107" y="101"/>
      <point x="104" y="134" type="curve"/>
      <point x="35" y="134"/>
      <point x="23" y="92"/>
      <point x="23" y="69" type="curve"/>
      <point x="23" y="43"/>
      <point x="47" y="-8"/>
    </contour>
  </outline>
</glyph>
<glyph name="fourinferior" format="1">
  <advance width="473"/>
  <unicode hex="2084"/>
  <outline>
    <contour>
      <point x="381" y="115" type="curve"/>
      <point x="381" y="418" type="line" smooth="yes"/>
      <point x="381" y="457"/>
      <point x="353" y="479"/>
      <point x="316" y="479" type="curve"/>
      <point x="292" y="479"/>
      <point x="264" y="465"/>
      <point x="254" y="452" type="curve"/>
      <point x="33" y="166" type="line" smooth="yes"/>
      <point x="16" y="142"/>
      <point x="32" y="105"/>
      <point x="62" y="103" type="curve"/>
      <point x="442" y="103" type="line"/>
      <point x="457" y="131"/>
      <point x="459" y="159"/>
      <point x="449" y="185" type="curve"/>
      <point x="404" y="171"/>
      <point x="358" y="168"/>
      <point x="313" y="168" type="curve"/>
      <point x="99" y="168" type="line"/>
      <point x="273" y="386" type="line"/>
      <point x="273" y="50" type="line"/>
      <point x="273" y="11"/>
      <point x="299" y="-12"/>
      <point x="333" y="-12" type="curve"/>
      <point x="365" y="-12"/>
      <point x="388" y="6"/>
      <point x="396" y="15" type="curve"/>
      <point x="383" y="53"/>
      <point x="381" y="90"/>
    </contour>
  </outline>
</glyph>
<glyph name="sixinferior" format="1">
  <advance width="472"/>
  <unicode hex="2086"/>
  <outline>
    <contour>
      <point x="241" y="-8" type="curve"/>
      <point x="375" y="-8"/>
      <point x="433" y="60"/>
      <point x="433" y="145" type="curve"/>
      <point x="433" y="245"/>
      <point x="358" y="292"/>
      <point x="277" y="292" type="curve"/>
      <point x="179" y="292"/>
      <point x="149" y="221"/>
      <point x="133" y="166" type="curve"/>
      <point x="168" y="139" type="line"/>
      <point x="174" y="219"/>
      <point x="211" y="241"/>
      <point x="252" y="241" type="curve"/>
      <point x="299" y="241"/>
      <point x="310" y="208"/>
      <point x="310" y="151" type="curve"/>
      <point x="310" y="86"/>
      <point x="298" y="30"/>
      <point x="247" y="30" type="curve"/>
      <point x="183" y="30"/>
      <point x="178" y="121"/>
      <point x="178" y="216" type="curve"/>
      <point x="178" y="355"/>
      <point x="188" y="436"/>
      <point x="268" y="436" type="curve"/>
      <point x="299" y="436"/>
      <point x="329" y="413"/>
      <point x="363" y="349" type="curve"/>
      <point x="372" y="354"/>
      <point x="404" y="385"/>
      <point x="404" y="417" type="curve"/>
      <point x="404" y="468"/>
      <point x="334" y="482"/>
      <point x="275" y="482" type="curve"/>
      <point x="115" y="482"/>
      <point x="54" y="379"/>
      <point x="54" y="222" type="curve"/>
      <point x="54" y="30"/>
      <point x="137" y="-8"/>
    </contour>
  </outline>
</glyph>
<glyph name="seveninferior" format="1">
  <advance width="385"/>
  <unicode hex="2087"/>
  <outline>
    <contour>
      <point x="211" y="0" type="curve"/>
      <point x="211" y="93"/>
      <point x="268" y="288"/>
      <point x="350" y="386" type="curve"/>
      <point x="372" y="413"/>
      <point x="369" y="451"/>
      <point x="363" y="472" type="curve"/>
      <point x="181" y="472" type="line" smooth="yes"/>
      <point x="133" y="472"/>
      <point x="87" y="474"/>
      <point x="36" y="480" type="curve"/>
      <point x="24" y="454"/>
      <point x="30" y="389"/>
      <point x="47" y="369" type="curve"/>
      <point x="130" y="369"/>
      <point x="206" y="366"/>
      <point x="280" y="383" type="curve"/>
      <point x="194" y="308"/>
      <point x="130" y="101"/>
      <point x="117" y="2" type="curve"/>
      <point x="148" y="-7"/>
      <point x="180" y="-7"/>
    </contour>
  </outline>
</glyph>
<glyph name="euro" format="1">
  <advance width="641"/>
  <unicode hex="20AC"/>
  <outline>
    <contour>
      <point x="16" y="251" type="curve"/>
      <point x="385" y="251" type="line"/>
      <point x="402" y="258"/>
      <point x="419" y="285"/>
      <point x="410" y="315" type="curve"/>
      <point x="16" y="315" type="line"/>
      <point x="5" y="294"/>
      <point x="5" y="272"/>
    </contour>
    <contour>
      <point x="16" y="374" type="curve"/>
      <point x="433" y="374" type="line"/>
      <point x="450" y="381"/>
      <point x="467" y="408"/>
      <point x="458" y="438" type="curve"/>
      <point x="16" y="438" type="line"/>
      <point x="5" y="416"/>
      <point x="5" y="395"/>
    </contour>
    <contour>
      <point x="496" y="514" type="curve"/>
      <point x="610" y="545"/>
      <point x="605" y="637"/>
      <point x="546" y="673" type="curve"/>
      <point x="504" y="701"/>
      <point x="441" y="712"/>
      <point x="382" y="712" type="curve"/>
      <point x="198" y="712"/>
      <point x="89" y="580"/>
      <point x="89" y="349" type="curve"/>
      <point x="89" y="118"/>
      <point x="194" y="-14"/>
      <point x="372" y="-14" type="curve"/>
      <point x="486" y="-14"/>
      <point x="604" y="35"/>
      <point x="606" y="136" type="curve"/>
      <point x="607" y="203"/>
      <point x="556" y="231"/>
      <point x="510" y="220" type="curve"/>
      <point x="495" y="93"/>
      <point x="450" y="33"/>
      <point x="380" y="33" type="curve"/>
      <point x="285" y="33"/>
      <point x="243" y="138"/>
      <point x="243" y="349" type="curve"/>
      <point x="243" y="560"/>
      <point x="286" y="665"/>
      <point x="384" y="665" type="curve"/>
      <point x="442" y="665"/>
      <point x="480" y="617"/>
    </contour>
    <contour>
      <point x="379" y="698" type="move" name="top"/>
    </contour>
  </outline>
</glyph>
<glyph name="liraTurkish" format="1">
  <advance width="513"/>
  <unicode hex="20BA"/>
  <outline>
    <contour>
      <point x="177" y="0" type="curve"/>
      <point x="282" y="0"/>
      <point x="493" y="84"/>
      <point x="495" y="216" type="curve"/>
      <point x="496" y="263"/>
      <point x="478" y="307"/>
      <point x="421" y="307" type="curve"/>
      <point x="421" y="193"/>
      <point x="315" y="70"/>
      <point x="237" y="66" type="curve"/>
      <point x="236" y="641" type="line" smooth="yes"/>
      <point x="236" y="685"/>
      <point x="202" y="711"/>
      <point x="157" y="711" type="curve"/>
      <point x="118" y="711"/>
      <point x="89" y="692"/>
      <point x="77" y="681" type="curve"/>
      <point x="94" y="636"/>
      <point x="97" y="589"/>
      <point x="97" y="551" type="curve"/>
      <point x="97" y="71" type="line" smooth="yes"/>
      <point x="97" y="26"/>
      <point x="131" y="0"/>
    </contour>
    <contour>
      <point x="24" y="278" type="curve"/>
      <point x="23" y="245" type="line"/>
      <point x="36" y="250"/>
      <point x="70" y="261"/>
      <point x="83" y="264" type="curve"/>
      <point x="349" y="330" type="line" smooth="yes"/>
      <point x="368" y="334"/>
      <point x="384" y="349"/>
      <point x="385" y="371" type="curve"/>
      <point x="386" y="404" type="line"/>
      <point x="376" y="399"/>
      <point x="264" y="370"/>
      <point x="254" y="367" type="curve"/>
      <point x="60" y="320" type="line" smooth="yes"/>
      <point x="41" y="314"/>
      <point x="25" y="300"/>
    </contour>
    <contour>
      <point x="24" y="395" type="curve"/>
      <point x="23" y="362" type="line"/>
      <point x="36" y="367"/>
      <point x="70" y="378"/>
      <point x="83" y="381" type="curve"/>
      <point x="349" y="447" type="line" smooth="yes"/>
      <point x="368" y="452"/>
      <point x="384" y="466"/>
      <point x="385" y="489" type="curve"/>
      <point x="386" y="521" type="line"/>
      <point x="376" y="516"/>
      <point x="264" y="488"/>
      <point x="254" y="485" type="curve"/>
      <point x="60" y="437" type="line" smooth="yes"/>
      <point x="41" y="432"/>
      <point x="25" y="417"/>
    </contour>
  </outline>
</glyph>
<glyph name="increment" format="1">
  <advance width="688"/>
  <unicode hex="2206"/>
  <outline>
    <contour>
      <point x="20" y="0" type="curve"/>
      <point x="668" y="0" type="line" smooth="yes"/>
      <point x="679" y="0"/>
      <point x="684" y="6"/>
      <point x="679" y="17" type="curve"/>
      <point x="354" y="682" type="line" smooth="yes"/>
      <point x="349" y="693"/>
      <point x="339" y="693"/>
      <point x="334" y="682" type="curve"/>
      <point x="9" y="17" type="line" smooth="yes"/>
      <point x="4" y="6"/>
      <point x="9" y="0"/>
    </contour>
    <contour>
      <point x="313" y="526" type="line"/>
      <point x="537" y="53" type="line"/>
      <point x="81" y="53" type="line"/>
    </contour>
  </outline>
</glyph>
<glyph name="summation" format="1">
  <advance width="581"/>
  <unicode hex="2211"/>
  <outline>
    <contour>
      <point x="251" y="303" type="line"/>
      <point x="37" y="-87" type="line"/>
      <point x="37" y="-127" type="line"/>
      <point x="529" y="-127" type="line"/>
      <point x="535" y="-113"/>
      <point x="535" y="-96"/>
      <point x="529" y="-83" type="curve"/>
      <point x="182" y="-83" type="line"/>
      <point x="387" y="287" type="line"/>
      <point x="168" y="644" type="line"/>
      <point x="501" y="644" type="line"/>
      <point x="507" y="657"/>
      <point x="507" y="674"/>
      <point x="501" y="688" type="curve"/>
      <point x="42" y="688" type="line"/>
      <point x="42" y="649" type="line"/>
    </contour>
  </outline>
</glyph>
<glyph name="minus" format="1">
  <advance width="549"/>
  <unicode hex="2212"/>
  <outline>
    <contour>
      <point x="474" y="382" type="curve"/>
      <point x="75" y="382" type="line"/>
      <point x="66" y="358"/>
      <point x="66" y="334"/>
      <point x="75" y="310" type="curve"/>
      <point x="474" y="310" type="line"/>
      <point x="483" y="334"/>
      <point x="483" y="358"/>
    </contour>
  </outline>
</glyph>
<glyph name="infinity" format="1">
  <advance width="861"/>
  <unicode hex="221E"/>
  <outline>
    <contour>
      <point x="211" y="69" type="curve"/>
      <point x="288" y="69"/>
      <point x="373" y="135"/>
      <point x="445" y="239" type="curve"/>
      <point x="413" y="281" type="line"/>
      <point x="360" y="179"/>
      <point x="285" y="112"/>
      <point x="216" y="112" type="curve"/>
      <point x="148" y="112"/>
      <point x="99" y="173"/>
      <point x="99" y="264" type="curve"/>
      <point x="99" y="354"/>
      <point x="147" y="416"/>
      <point x="203" y="416" type="curve"/>
      <point x="274" y="416"/>
      <point x="337" y="304"/>
      <point x="387" y="223" type="curve"/>
      <point x="455" y="116"/>
      <point x="536" y="69"/>
      <point x="634" y="69" type="curve"/>
      <point x="751" y="69"/>
      <point x="809" y="147"/>
      <point x="809" y="261" type="curve"/>
      <point x="809" y="375"/>
      <point x="739" y="459"/>
      <point x="646" y="459" type="curve"/>
      <point x="561" y="459"/>
      <point x="476" y="389"/>
      <point x="418" y="290" type="curve"/>
      <point x="449" y="249" type="line"/>
      <point x="499" y="345"/>
      <point x="572" y="416"/>
      <point x="644" y="416" type="curve"/>
      <point x="711" y="416"/>
      <point x="762" y="357"/>
      <point x="762" y="264" type="curve"/>
      <point x="762" y="174"/>
      <point x="713" y="112"/>
      <point x="657" y="112" type="curve"/>
      <point x="588" y="112"/>
      <point x="527" y="228"/>
      <point x="471" y="316" type="curve"/>
      <point x="405" y="413"/>
      <point x="329" y="459"/>
      <point x="229" y="459" type="curve"/>
      <point x="108" y="459"/>
      <point x="52" y="373"/>
      <point x="52" y="267" type="curve"/>
      <point x="52" y="137"/>
      <point x="128" y="69"/>
    </contour>
  </outline>
</glyph>
<glyph name="approxequal" format="1">
  <advance width="539"/>
  <unicode hex="2248"/>
  <outline>
    <contour>
      <point x="479" y="478" type="curve"/>
      <point x="469" y="485"/>
      <point x="460" y="486"/>
      <point x="445" y="486" type="curve"/>
      <point x="434" y="462"/>
      <point x="423" y="439"/>
      <point x="383" y="439" type="curve"/>
      <point x="319" y="439"/>
      <point x="252" y="500"/>
      <point x="174" y="500" type="curve"/>
      <point x="122" y="500"/>
      <point x="66" y="473"/>
      <point x="59" y="387" type="curve"/>
      <point x="68" y="381"/>
      <point x="85" y="376"/>
      <point x="94" y="378" type="curve"/>
      <point x="105" y="400"/>
      <point x="124" y="425"/>
      <point x="167" y="425" type="curve"/>
      <point x="239" y="425"/>
      <point x="307" y="364"/>
      <point x="372" y="364" type="curve"/>
      <point x="432" y="364"/>
      <point x="468" y="412"/>
    </contour>
    <contour>
      <point x="479" y="287" type="curve"/>
      <point x="469" y="293"/>
      <point x="460" y="295"/>
      <point x="445" y="295" type="curve"/>
      <point x="434" y="270"/>
      <point x="423" y="247"/>
      <point x="383" y="247" type="curve"/>
      <point x="319" y="247"/>
      <point x="252" y="308"/>
      <point x="174" y="308" type="curve"/>
      <point x="122" y="308"/>
      <point x="66" y="281"/>
      <point x="59" y="195" type="curve"/>
      <point x="68" y="189"/>
      <point x="85" y="184"/>
      <point x="94" y="186" type="curve"/>
      <point x="105" y="208"/>
      <point x="124" y="233"/>
      <point x="167" y="233" type="curve"/>
      <point x="239" y="233"/>
      <point x="307" y="172"/>
      <point x="372" y="172" type="curve"/>
      <point x="432" y="172"/>
      <point x="468" y="220"/>
    </contour>
  </outline>
</glyph>
<glyph name="upBlackTriangle" format="1">
  <advance width="600"/>
  <unicode hex="25B2"/>
  <outline>
    <contour>
      <point x="615" y="31" type="line"/>
      <point x="37" y="31" type="line"/>
      <point x="326" y="532" type="line"/>
    </contour>
  </outline>
</glyph>
<glyph name="rightWhiteTriangle" format="1">
  <advance width="600"/>
  <unicode hex="25B7"/>
  <outline>
    <contour>
      <point x="619" y="272" type="line"/>
      <point x="118" y="561" type="line"/>
      <point x="118" y="-18" type="line"/>
    </contour>
    <contour>
      <point x="187" y="110" type="line"/>
      <point x="187" y="436" type="line"/>
      <point x="479" y="272" type="line"/>
    </contour>
  </outline>
</glyph>
<glyph name="downBlackTriangle" format="1">
  <advance width="600"/>
  <unicode hex="25BC"/>
  <outline>
    <contour>
      <point x="326" y="28" type="line"/>
      <point x="37" y="529" type="line"/>
      <point x="615" y="529" type="line"/>
    </contour>
  </outline>
</glyph>
<glyph name="downWhiteTriangle" format="1">
  <advance width="600"/>
  <unicode hex="25BD"/>
  <outline>
    <contour>
      <point x="615" y="503" type="line"/>
      <point x="37" y="503" type="line"/>
      <point x="326" y="2" type="line"/>
    </contour>
    <contour>
      <point x="326" y="142" type="line"/>
      <point x="162" y="434" type="line"/>
      <point x="487" y="434" type="line"/>
    </contour>
  </outline>
</glyph>
<glyph name="G_tildecomb" format="1">
  <advance width="656"/>
  <outline>
    <component base="G"/>
    <component base="tildecomb" xOffset="43" yOffset="177"/>
    <contour>
      <point x="300" y="0" type="move" name="bottom"/>
    </contour>
    <contour>
      <point x="300" y="516" type="move" name="top"/>
    </contour>
  </outline>
</glyph>
<glyph name="aiMatra-tamil.alt" format="1">
  <advance width="600"/>
  <outline>
    <contour>
      <point x="341" y="-18" type="curve"/>
      <point x="579" y="-18"/>
      <point x="669" y="186"/>
      <point x="682" y="259" type="curve"/>
      <point x="647" y="272" type="line"/>
      <point x="623" y="187"/>
      <point x="519" y="31"/>
      <point x="374" y="31" type="curve"/>
      <point x="294" y="31"/>
      <point x="256" y="79"/>
      <point x="256" y="139" type="curve"/>
      <point x="256" y="320"/>
      <point x="608" y="332"/>
      <point x="608" y="573" type="curve"/>
      <point x="608" y="708"/>
      <point x="498" y="785"/>
      <point x="348" y="785" type="curve"/>
      <point x="217" y="785"/>
      <point x="86" y="726"/>
      <point x="86" y="590" type="curve"/>
      <point x="86" y="510"/>
      <point x="131" y="435"/>
      <point x="245" y="435" type="curve"/>
      <point x="348" y="435"/>
      <point x="402" y="497"/>
      <point x="403" y="592" type="curve"/>
      <point x="403" y="609"/>
      <point x="404" y="690"/>
      <point x="320" y="726" type="curve"/>
      <point x="326" y="726"/>
      <point x="331" y="726"/>
      <point x="337" y="726" type="curve"/>
      <point x="418" y="726"/>
      <point x="475" y="661"/>
      <point x="475" y="574" type="curve"/>
      <point x="475" y="361"/>
      <point x="131" y="387"/>
      <point x="131" y="161" type="curve"/>
      <point x="131" y="76"/>
      <point x="179" y="-18"/>
    </contour>
    <contour>
      <point x="282" y="492" type="curve"/>
      <point x="243" y="492"/>
      <point x="218" y="528"/>
      <point x="218" y="589" type="curve"/>
      <point x="218" y="665"/>
      <point x="257" y="704"/>
      <point x="287" y="704" type="curve"/>
      <point x="317" y="704"/>
      <point x="346" y="666"/>
      <point x="346" y="597" type="curve"/>
      <point x="346" y="541"/>
      <point x="327" y="492"/>
    </contour>
  </outline>
</glyph>
<glyph name="alpha.002.003.001" format="1">
  <advance width="555"/>
  <outline>
    <contour>
      <point x="376" y="521" type="curve"/>
      <point x="322" y="243" type="line" smooth="yes"/>
      <point x="293" y="114"/>
      <point x="239" y="74"/>
      <point x="187" y="74" type="curve"/>
      <point x="112" y="74"/>
      <point x="80" y="153"/>
      <point x="80" y="222" type="curve"/>
      <point x="80" y="305"/>
      <point x="127" y="389"/>
      <point x="226" y="389" type="curve"/>
      <point x="268" y="389"/>
      <point x="327" y="369"/>
      <point x="352" y="338" type="curve"/>
      <point x="359" y="399" type="line"/>
      <point x="342" y="471"/>
      <point x="298" y="535"/>
      <point x="221" y="535" type="curve"/>
      <point x="106" y="535"/>
      <point x="34" y="402"/>
      <point x="34" y="227" type="curve"/>
      <point x="34" y="74"/>
      <point x="112" y="-18"/>
      <point x="204" y="-18" type="curve"/>
      <point x="279" y="-18"/>
      <point x="365" y="17"/>
      <point x="423" y="143" type="curve"/>
      <point x="400" y="131" type="line"/>
      <point x="403" y="62"/>
      <point x="407" y="-14"/>
      <point x="487" y="-14" type="curve"/>
      <point x="526" y="-14"/>
      <point x="559" y="15"/>
      <point x="559" y="56" type="curve"/>
      <point x="559" y="68"/>
      <point x="555" y="85"/>
      <point x="547" y="99" type="curve"/>
      <point x="536" y="92"/>
      <point x="519" y="88"/>
      <point x="504" y="88" type="curve"/>
      <point x="438" y="88"/>
      <point x="441" y="141"/>
      <point x="457" y="222" type="curve"/>
      <point x="502" y="451" type="line" smooth="yes"/>
      <point x="513" y="509"/>
      <point x="473" y="535"/>
      <point x="425" y="535" type="curve"/>
      <point x="405" y="535"/>
      <point x="388" y="531"/>
    </contour>
    <contour>
      <point x="277" y="0" type="move" name="bottom"/>
    </contour>
    <contour>
      <point x="277" y="516" type="move" name="top"/>
    </contour>
  </outline>
</glyph>
